<svg width="24" height="21" viewBox="0 0 24 21" xmlns="http://www.w3.org/2000/svg"><path d="M23.034 9.493l-.21-.098-.233-.054-.124-.005h-1.949l.458-.796a1.097 1.097 0 0 0-.045-1.169l-.159-.185-.196-.147-.004-.003v-.002a1.11 1.11 0 0 0-.832-.104 1.068 1.068 0 0 0-.666.511h-.001v.001l-1.094 1.893H16.05a3.968 3.968 0 0 0-.978-1.691l.967-1.672h2.185l.194-.017c.228-.041.426-.149.583-.303.155-.157.264-.354.306-.582l.016-.196a1.097 1.097 0 0 0-.473-.907l-.2-.109-.228-.068-.196-.015h-.918l.976-1.691a1.095 1.095 0 0 0-.043-1.169l-.158-.183-.197-.149h-.003a1.097 1.097 0 0 0-1.17.042l-.18.156-.147.201-.979 1.689-.458-.792v-.002a1.102 1.102 0 0 0-.953-.55c-.188 0-.373.048-.547.149l-.008.001v.003c-.263.15-.438.392-.51.666a1.225 1.225 0 0 0-.039.286c0 .183.048.37.145.545l.004.002.002.002 1.093 1.893-.962 1.671a3.938 3.938 0 0 0-.977-.121 3.93 3.93 0 0 0-.976.121l-.967-1.674 1.093-1.892.002-.002h.001a1.1 1.1 0 0 0-.404-1.497l-.002-.003a1.1 1.1 0 0 0-1.171.048l-.182.158-.148.196v.005l-.457.787L8.009.982V.98A1.097 1.097 0 0 0 6.507.579L6.504.58c-.378.218-.579.63-.547 1.038l.047.236.095.227.005.004.975 1.691h-.914l-.194.015a1.114 1.114 0 0 0-.583.303 1.119 1.119 0 0 0-.304.582l-.016.196.016.197a1.102 1.102 0 0 0 .883.887l.198.017h2.184l.968 1.675a3.957 3.957 0 0 0-.977 1.688H6.413L5.32 7.442a1.105 1.105 0 0 0-1.039-.55l-.235.044-.228.098-.005.002h-.001a1.13 1.13 0 0 0-.513.671 1.097 1.097 0 0 0 .111.833l.002.003.456.793H1.917l-.125.008a1.056 1.056 0 0 0-.65.315 1.092 1.092 0 0 0-.314.653l-.007.124.007.124c.028.253.145.481.316.651.172.172.398.285.651.312l.124.007 1.953-.001-.46.797v.001H3.41a1.09 1.09 0 0 0-.106.832c.071.272.249.515.513.668v.003c.379.216.833.183 1.168-.049l.185-.157.146-.201h.002l1.095-1.894 1.927.001c.182.645.523 1.225.978 1.693l-.967 1.669H6.165l-.194.017a1.14 1.14 0 0 0-.583.305 1.12 1.12 0 0 0-.304.581l-.016.197.016.198c.041.223.147.423.304.579.153.156.354.264.579.304l.198.019h.918l-.975 1.688v.004a1.093 1.093 0 0 0 .397 1.496h.003v.002c.264.151.56.184.831.113.271-.075.516-.248.667-.51l.004-.005.974-1.69.46.795v.001h.001a1.078 1.078 0 0 0 .95.546c.184 0 .372-.045.546-.145l.006-.003h.001c.262-.15.435-.395.507-.665a1.089 1.089 0 0 0-.107-.828l-.001-.006-1.093-1.893.964-1.671c.313.077.641.121.979.121.334 0 .661-.044.973-.121l.966 1.672-1.092 1.892c-.22.379-.186.834.045 1.169l.16.186.194.144v.003h.001c.381.219.836.183 1.173-.046l.184-.155.145-.201h.004l.457-.791.972 1.69c.22.38.629.578 1.038.548l.238-.046.227-.097h.002c.38-.222.58-.631.55-1.041l-.044-.236-.099-.224-.001-.004-.004-.004-.973-1.688h.912a1.1 1.1 0 0 0 .905-.474l.11-.202.067-.223.016-.2-.016-.196a1.102 1.102 0 0 0-.885-.886l-.196-.019h-2.185l-.967-1.673a4.026 4.026 0 0 0 .976-1.689h1.926l1.095 1.893c.22.382.63.582 1.038.55l.237-.045.226-.097.004-.001c.379-.22.581-.63.546-1.04l-.043-.236-.102-.227v-.003l-.457-.794h1.951l.12-.007c.255-.027.483-.141.659-.318.171-.169.287-.401.311-.652l.007-.121a1.09 1.09 0 0 0-.534-.939M12.196 12.34a1.91 1.91 0 1 1 0-3.817 1.91 1.91 0 0 1 0 3.817" fill="#1B1B1B"/></svg>