<svg width="24" height="18" viewBox="0 0 24 18" xmlns="http://www.w3.org/2000/svg"><g fill="#1B1B1B"><path d="M18.113 7.984c1.007 0 1.822-.883 1.822-1.971 0-1.086-.815-1.968-1.822-1.968-1.008 0-1.824.882-1.824 1.968 0 1.089.816 1.971 1.824 1.971"/><path d="M17.219 9.933c3.824.055 3.194-1.546.38-1.546-.996 0-1.498-.044-1.583-.137-.086-.09-.01-.639-.01-1.736 0-1.454-.134-1.625-.322-1.828a.722.722 0 0 0-1.039 0c-.311.336-.283 4.583-.01 4.948.197.262.219.265 2.584.299M9.781 5.021c-2.878 0-5.075-.217-6.242 2.395-.291.651-.422 2.064-.22 2.329.116.151-.176.106 10.358.106v-.402c.02-.359.032-.982.032-1.674.001-2.87.166-2.754-3.928-2.754"/><path d="M23.575 1.11l-.23-.174c-.349-.263-1.542-.239-1.86.038l-.246.216c-.021 4.862-.03 7.755-.049 9.481H2.786c-.039-.29-.036-.797-.061-1.743-.057-2.253-.043-2.226-1.164-2.226-.643 0-.833.042-.971.204-.156.185-.171.72-.167 5.381.004 4.477.026 5.197.164 5.344.179.196 1.642.196 1.908.063.131-.067.168-.455.214-1.69.039-1.005-.012-1.612.063-1.663.034-.021 1.387-.037 3.202-.043h7.108c4.092.011 7.878.041 7.974.081.094.039.131.427.131 1.411 0 2.175.228 2.009 1.255 2.011 1.5.004 1.133 1.025 1.133-16.691"/></g></svg>