<svg width="24" height="18" viewBox="0 0 24 18" xmlns="http://www.w3.org/2000/svg"><g fill="#1B1B1B"><path d="M18.119 7.922c1.007 0 1.823-.883 1.823-1.971 0-1.086-.816-1.968-1.823-1.968-1.007 0-1.823.882-1.823 1.968 0 1.088.816 1.971 1.823 1.971"/><path d="M17.226 9.87c3.823.055 3.194-1.546.381-1.546-.997 0-1.5-.044-1.584-.136-.086-.091-.011-.639-.011-1.737 0-1.453-.134-1.625-.322-1.828a.723.723 0 0 0-1.039 0c-.312.336-.283 4.583-.009 4.948.197.263.22.266 2.584.299M9.787 4.959c-2.877 0-5.076-.217-6.241 2.396-.291.651-.423 2.064-.221 2.329.116.15-.176.105 10.358.105v-.402c.02-.359.032-.982.032-1.674.001-2.87.167-2.754-3.928-2.754"/><path d="M23.582 1.048l-.231-.174c-.348-.263-1.541-.239-1.86.038l-.245.216c-.023 4.863-.031 7.756-.05 9.481H2.793c-.038-.29-.037-.798-.062-1.742-.056-2.254-.043-2.227-1.166-2.227-.64 0-.83.042-.969.205-.154.184-.171.72-.166 5.38.005 4.478.025 5.197.163 5.344.181.196 1.642.196 1.908.063.131-.066.168-.455.215-1.69.038-1.005-.012-1.611.063-1.662.033-.022 1.387-.037 3.201-.045h7.109c4.091.011 7.876.041 7.973.081.096.039.131.428.131 1.411 0 2.175.228 2.009 1.257 2.011 1.498.005 1.132 1.026 1.132-16.69"/><path d="M6.983 17.752l-.165-.749-.224-.945h-.013l-.39 1.694h-.629l-.609-2.143h.583l.246.949c.04.171.081.404.121.703h.012c.004-.097.027-.251.066-.462l.031-.162.265-1.028h.644l.25 1.028.024.124.031.175.026.182.017.143h.012c.011-.092.031-.218.06-.378l.063-.325.257-.949h.573l-.617 2.143h-.634zm3.541-1.075c0 .349-.09.621-.274.818-.184.197-.439.295-.768.295-.207 0-.387-.046-.544-.135a.89.89 0 0 1-.362-.388 1.295 1.295 0 0 1-.126-.59c0-.35.091-.621.273-.815.183-.195.439-.292.771-.292.205 0 .387.045.544.134a.909.909 0 0 1 .361.385c.083.167.125.362.125.588m-1.478 0c0 .212.034.372.104.48.07.109.183.165.34.165.156 0 .269-.055.337-.164.068-.108.102-.267.102-.481 0-.212-.034-.371-.103-.478-.069-.105-.182-.158-.339-.158-.156 0-.269.052-.338.158-.069.106-.103.264-.103.478m3.881 1.075h-.585V16.5c0-.154-.025-.269-.077-.348-.053-.077-.133-.114-.244-.114-.149 0-.258.054-.326.164-.067.11-.102.291-.102.541v1.009h-.584v-2.143h.446l.078.275h.033a.601.601 0 0 1 .249-.232.82.82 0 0 1 .373-.083c.32 0 .538.106.652.315h.051a.573.573 0 0 1 .254-.232.854.854 0 0 1 .378-.083c.243 0 .426.063.551.188.125.124.188.323.188.599v1.396h-.586V16.5c0-.154-.026-.269-.078-.348-.052-.077-.133-.114-.244-.114-.144 0-.25.05-.32.152-.071.103-.106.264-.106.486v1.076h-.001zm2.903.039c-.345 0-.613-.096-.809-.286-.193-.191-.291-.459-.291-.808 0-.359.09-.637.269-.833.181-.195.429-.294.745-.294.303 0 .538.087.706.259.169.173.254.411.254.714v.284h-1.381a.564.564 0 0 0 .146.389c.091.093.222.139.388.139a1.653 1.653 0 0 0 .725-.168v.452a1.34 1.34 0 0 1-.328.114 2.021 2.021 0 0 1-.424.038m-.082-1.805a.368.368 0 0 0-.292.117.547.547 0 0 0-.12.333h.82a.49.49 0 0 0-.113-.333.38.38 0 0 0-.295-.117m3.407 1.766h-.585V16.5c0-.154-.027-.269-.083-.348-.054-.077-.142-.114-.262-.114-.162 0-.282.054-.354.162-.073.111-.11.291-.11.543v1.009h-.584v-2.143h.447l.078.275h.032a.608.608 0 0 1 .27-.235.93.93 0 0 1 .39-.08c.249 0 .438.068.567.203.129.134.193.329.193.584v1.396h.001z"/></g></svg>