<svg width="30" height="18" viewBox="0 0 30 18" xmlns="http://www.w3.org/2000/svg"><path d="M24.325 7.136c-.408 0-.806.047-1.186.136-.284-.773-.567-1.549-.852-2.323l-1.339-3.651a.668.668 0 0 0-.074-.149.567.567 0 0 0-.451-.313c-.002-.001-.005-.001-.009-.004l-.018-.001c-.023-.002-.049-.002-.072-.002h-1.565c-.824 0-.824 1.279 0 1.279h1.129c.234.637.468 1.274.701 1.913h-8.388l-.03.002h-.038l-.518-1.405h1.127c.825 0 .825-1.279 0-1.279H9.109c-.825 0-.825 1.279 0 1.279h1.146l.848 2.297c-.9 1.041-1.802 2.081-2.703 3.12a5.207 5.207 0 0 0-2.928-.898 5.224 5.224 0 0 0-5.219 5.218c0 2.88 2.34 5.221 5.219 5.221a5.228 5.228 0 0 0 5.181-4.579h2.406a1.902 1.902 0 0 0 3.295-1.724l3.921-4.349.98-1.086.686 1.876a5.224 5.224 0 0 0-2.839 4.642 5.227 5.227 0 0 0 5.222 5.221 5.226 5.226 0 0 0 5.219-5.221 5.224 5.224 0 0 0-5.218-5.22zm-4.307-1.834l-4.315 4.785-.109.122a1.89 1.89 0 0 0-1.293-.316 1836.78 1836.78 0 0 1-1.693-4.591h7.41zm-7.052 4.663c.063.165.125.334.186.502a1.892 1.892 0 0 0-.527 1.248h-1.97a5.21 5.21 0 0 0-1.294-2.84A1173.606 1173.606 0 0 0 11.61 6.28l1.356 3.685zm-4.449-.113c.433.526.731 1.166.846 1.863h-2.46l1.614-1.863zm-3.043 6.443a3.945 3.945 0 0 1-3.94-3.941 3.946 3.946 0 0 1 3.94-3.939c.765 0 1.479.22 2.083.597l-1.042 1.205c-.498.573-.995 1.148-1.492 1.725-.229.261-.261.645 0 .904a.674.674 0 0 0 .677.15h3.663a3.946 3.946 0 0 1-3.889 3.299zm18.851 0a3.946 3.946 0 0 1-3.941-3.941 3.94 3.94 0 0 1 2.004-3.428c.44 1.199.881 2.4 1.32 3.601.119.326.429.544.786.445.315-.087.566-.459.447-.787-.453-1.232-.904-2.466-1.358-3.699a3.945 3.945 0 0 1 4.681 3.868 3.944 3.944 0 0 1-3.939 3.941z" fill="#1B1B1B"/></svg>