<svg width="34" height="19" viewBox="0 0 34 19" xmlns="http://www.w3.org/2000/svg"><path d="M8.932 16.158a2.766 2.766 0 0 1-2.685 2.065 2.767 2.767 0 0 1-2.686-2.065 2.588 2.588 0 0 1-.095-.7 2.776 2.776 0 0 1 2.78-2.771 2.778 2.778 0 0 1 2.78 2.771c.001.24-.031.476-.094.7zm20.923 0a2.767 2.767 0 0 1-2.686 2.065 2.765 2.765 0 0 1-2.685-2.065 2.588 2.588 0 0 1-.095-.7 2.776 2.776 0 0 1 2.779-2.771 2.778 2.778 0 0 1 2.781 2.771c.002.24-.03.476-.094.7zM28.068 3.123h-2.551v4.6h4.631l-2.08-4.6zm-3.773 0h-4.742v4.6h4.742v-4.6zm-5.966 0h-4.742v4.6h4.742v-4.6zm-5.974 0H7.613v4.6h4.742v-4.6zm-5.966 0H1.957v4.6h4.432v-4.6zm25.873 13.035h-1.246a3.901 3.901 0 0 0-3.845-4.591c-2.152 0-3.908 1.748-3.908 3.891 0 .24.024.47.063.7H10.093a3.901 3.901 0 0 0-3.844-4.591c-2.153 0-3.909 1.748-3.909 3.891 0 .24.023.47.064.7H1.156a1.132 1.132 0 0 1-1.127-1.129V2.09c0-.612.508-1.12 1.127-1.12h27.335c.628 0 1.318.469 1.557 1.041l3.345 8.237v4.781a1.137 1.137 0 0 1-1.131 1.129z" fill="#1B1B1B"/></svg>