<svg width="27" height="32" viewBox="0 0 27 32" xmlns="http://www.w3.org/2000/svg"><path d="M23.173 5.2h-.413V3.825A3.095 3.095 0 0 0 19.669.733h-.892a3.095 3.095 0 0 0-3.092 3.092V5.2h-5.098V3.825A3.095 3.095 0 0 0 7.495.733h-.891a3.095 3.095 0 0 0-3.092 3.092V5.2h-.411A2.887 2.887 0 0 0 .218 8.083v20.072a2.887 2.887 0 0 0 2.883 2.883h20.072a2.886 2.886 0 0 0 2.882-2.883V8.083A2.885 2.885 0 0 0 23.173 5.2zm-5.102-1.375c0-.39.317-.707.707-.707h.892c.39 0 .707.317.707.707v4.913c0 .39-.317.707-.707.707h-.892a.708.708 0 0 1-.707-.707V3.825zm-12.174 0c0-.39.317-.707.708-.707h.891c.391 0 .708.317.708.707v4.913c0 .39-.317.707-.708.707h-.891a.708.708 0 0 1-.708-.707V3.825zm17.774 24.33a.5.5 0 0 1-.498.498H3.101a.5.5 0 0 1-.498-.498V12.773a.5.5 0 0 1 .498-.498h20.072c.274 0 .498.223.498.498v15.382z" fill="#1B1B1B"/></svg>