<svg width="30" height="27" viewBox="0 0 30 27" xmlns="http://www.w3.org/2000/svg"><g fill="#1B1B1B"><circle cx="13.396" cy="24.006" r="2.526"/><circle cx="22.589" cy="24.006" r="2.526"/><path d="M10.098 20.297l.047-.011h-.049zm15.201-4.066a.615.615 0 0 0 .088-.115l.001-.001.021-.038a.804.804 0 0 0 .066-.16L29.021 6.8a1.328 1.328 0 0 0-.473-1.564 1.955 1.955 0 0 0-1.13-.358H8.106L7.075 1.076A1.16 1.16 0 0 0 5.971.255L1.266.232C.652.234.181.577.184 1.138c.002.561.476 1.127 1.09 1.124l4.146.103 4.738 17.923h15.185c.748 0 1.354-.429 1.354-.958 0-.529-.606-.957-1.354-.957H11.727l-.491-1.814H24.54c.307-.001.582-.13.759-.328z"/></g></svg>