<svg width="22" height="22" viewBox="0 0 22 22" xmlns="http://www.w3.org/2000/svg"><path d="M10.984 0C4.918 0 0 4.92 0 10.987c0 6.066 4.918 10.986 10.984 10.986 6.07 0 10.989-4.92 10.989-10.986C21.973 4.919 17.053 0 10.983 0zm4.724 13.961l-1.75 1.748s-2.768-2.97-2.975-2.97c-.203 0-2.972 2.97-2.972 2.97l-1.75-1.748s2.973-2.728 2.973-2.97c0-.247-2.973-2.976-2.973-2.976l1.75-1.751s2.792 2.971 2.973 2.971c.182 0 2.974-2.971 2.974-2.971l1.75 1.751s-2.974 2.768-2.974 2.976c0 .197 2.974 2.97 2.974 2.97z" fill="#999"/></svg>