<svg width="23" height="30" viewBox="0 0 23 30" xmlns="http://www.w3.org/2000/svg"><g fill="#1B1B1B"><path d="M5.022 8.495c.09.186.179.186.359.186.091 0 .271 0 .361-.093l3.42-3.503h.091c.179-.186.179-.554 0-.738l-.091-.093L5.833.752c-.181-.184-.54-.184-.721 0-.18.186-.18.554 0 .737l2.97 3.227-3.06 3.041a.437.437 0 0 0 0 .738"/><path d="M9.254 1.582l2.969 3.134-3.061 3.041v.094a.437.437 0 0 0 0 .737v.093c.092.09.271.09.361.09.09 0 .271-.09.361-.183l3.51-3.411c.179-.278.179-.554 0-.83L9.973.844a.416.416 0 0 0-.719 0h-.092a.812.812 0 0 0 0 .645l.092.093zm10.981 11.893h-3.782c-.088 0-.269 0-.359.089v-.552c0-1.474-1.17-2.673-2.521-2.673H2.772c-1.349 0-2.52 1.199-2.52 2.673v13.366c0 1.474 1.171 2.674 2.52 2.674h10.801c1.351 0 2.521-1.2 2.521-2.674v-2.765c.09.093.271.093.359.093h3.782c1.079 0 1.98-1.107 1.98-2.584v-5.068c0-1.475-.902-2.579-1.98-2.579zm-6.032 12.903c0 .369-.269.738-.63.738H2.772c-.36 0-.63-.369-.63-.738V13.012c0-.369.27-.739.63-.739h10.801c.361 0 .63.37.63.739v13.366zm6.121-5.256c0 .369-.089.646-.089.646h-3.782c-.088 0-.269.092-.359.092v-6.543c.09 0 .271.09.359.09h3.691c.091 0 .18.278.18.647v5.068z"/></g></svg>