<svg width="10" height="26" viewBox="0 0 10 26" xmlns="http://www.w3.org/2000/svg"><g fill="#1B1B1B"><path d="M6.724 2.279V.754c0-.175-.075-.285-.156-.329-.072-.041-.163-.058-.305-.058H4.044c-.141 0-.233.017-.304.058-.082.044-.157.154-.157.329v1.525h3.141zm-.151 23.149c-.506 0-.895-.133-1.127-.212-.211-.073-.211-.073-.293-.073-.082 0-.082 0-.263.062-.261.089-.654.223-1.158.223-.647 0-1.237-.183-1.706-.529-.788-.58-1.172-1.425-1.172-2.585v-6.562c-.001-1.108-.002-1.983.467-3.017.199-.442.548-.926.779-1.248l.145-.206c.219-.321.25-.401.25-.532 0-.211 0-.307-.258-.66-.515-.706-.985-1.409-1.087-2.231-.108-.89.133-1.693.718-2.389.332-.4.738-.706 1.16-1.011l.219-.162a.89.89 0 0 1 .206-1.054v-.105a.3.3 0 0 1 .3-.3h2.799a.3.3 0 0 1 .3.3v.105a.886.886 0 0 1 .207 1.053l.22.163c.419.304.824.609 1.16 1.011.585.697.826 1.501.716 2.389-.102.821-.571 1.524-1.086 2.231-.258.352-.258.448-.258.66 0 .132.031.212.248.529l.128.182c.276.386.605.848.799 1.276.467 1.033.466 1.908.465 3.015v6.563c0 1.16-.383 2.005-1.172 2.586-.468.345-1.059.528-1.706.528m-1.42-1.882c.353 0 .558.069.797.15.154.055.373.132.623.132.309 0 .565-.072.758-.216.257-.19.521-.494.521-1.298v-6.562c.002-1.021.003-1.638-.322-2.359-.133-.291-.427-.701-.622-.972l-.171-.244c-.285-.416-.522-.814-.522-1.428 0-.613.147-1.032.564-1.602.385-.529.735-1.04.79-1.485.055-.441-.059-.812-.356-1.168-.219-.263-.537-.5-.87-.74a6.533 6.533 0 0 1-.621-.49 1.324 1.324 0 0 1-.448-.828h-.241a1.321 1.321 0 0 1-.448.829c-.143.13-.345.292-.62.489-.333.239-.652.478-.871.739-.296.356-.41.727-.355 1.169.056.447.421.978.79 1.484.417.57.564.989.564 1.602 0 .612-.237 1.01-.524 1.431l-.168.239c-.196.273-.489.683-.622.975-.325.716-.325 1.331-.324 2.346v6.574c0 .802.263 1.107.522 1.299.192.143.447.215.756.215.249 0 .458-.073.61-.126.255-.086.459-.155.81-.155"/><path d="M6.573 25.128c-.458 0-.818-.124-1.032-.197l-.013-.004c-.203-.07-.239-.084-.375-.084s-.172.014-.375.084l-.007.002c-.221.075-.581.199-1.039.199-.581 0-1.11-.162-1.527-.47-.707-.52-1.051-1.286-1.051-2.344v-6.562c-.001-1.072-.002-1.918.44-2.892.185-.411.51-.865.749-1.197l.152-.215c.227-.334.3-.475.3-.699 0-.288-.03-.445-.316-.837-.49-.672-.938-1.338-1.031-2.091-.098-.802.12-1.529.649-2.16.315-.377.703-.669 1.107-.96.195-.142.349-.26.456-.352a.586.586 0 0 1 .093-.955v-.257h2.799v.257a.584.584 0 0 1 .297.51.584.584 0 0 1-.203.445c.107.092.26.21.456.352.404.291.791.583 1.107.96.529.631.748 1.358.648 2.16-.093.753-.541 1.419-1.03 2.091-.287.392-.316.549-.316.837 0 .224.072.365.3.699l.153.215c.237.332.563.787.749 1.197.44.974.439 1.82.438 2.892v6.562c0 1.058-.343 1.824-1.05 2.344-.418.308-.947.47-1.528.47m-1.42-1.282c.302 0 .47.057.7.135l.007.003c.181.063.423.144.713.144.373 0 .687-.09.936-.274.3-.223.642-.596.642-1.54v-6.562c.002-1.025.003-1.703-.349-2.482-.145-.319-.45-.743-.651-1.024-.064-.091-.122-.171-.165-.235-.27-.394-.473-.736-.473-1.262 0-.548.128-.907.507-1.425.409-.562.782-1.109.846-1.624.064-.526-.074-.98-.424-1.398-.24-.288-.574-.539-.924-.791a6.295 6.295 0 0 1-.594-.468 1.037 1.037 0 0 1-.311-.456 1.196 1.196 0 0 1-.052-.274h-.008v-.177h-.801v.177h-.008a1.035 1.035 0 0 1-.362.73c-.137.125-.331.28-.593.468-.351.252-.686.503-.926.791-.349.418-.487.872-.423 1.398.065.515.436 1.062.846 1.624.379.518.507.877.507 1.425 0 .526-.204.868-.473 1.262l-.165.235c-.201.281-.506.705-.65 1.024-.354.779-.352 1.457-.351 2.482v6.562c0 .944.344 1.317.643 1.54.249.184.564.274.935.274.292 0 .532-.081.709-.142l.012-.005c.231-.078.397-.135.7-.135"/></g></svg>