<svg width="20" height="21" viewBox="0 0 20 21" xmlns="http://www.w3.org/2000/svg"><g fill="#1B1B1B"><path d="M19.997 4.17c-.046-.557-.305-1.576-1.448-2.718C17.406.308 16.389.048 15.83.003a.878.878 0 0 0-.694.256L14 1.395 18.607 6l1.134-1.135a.887.887 0 0 0 .256-.696M5.72 17.744l-.104.237-.023.553-2.938.853a2.474 2.474 0 0 0-.43-.613 2.307 2.307 0 0 0-.612-.427l.853-2.94.554-.023.237-.105L15.362 3.174 14.19 2 1.888 14.303a1.416 1.416 0 0 0-.362.623l-1.51 5.542a.414.414 0 0 0 .107.408c.107.109.264.15.41.109l5.54-1.51c.236-.066.453-.19.625-.362L19 6.809l-1.173-1.172L5.72 17.744z"/><path d="M3.367 16.973l.591.027a.347.347 0 0 0 .263-.104L16 5.117 14.882 4 3.102 15.777A.357.357 0 0 0 3 16.04l.025.591a.356.356 0 0 0 .342.34"/></g></svg>