<svg width="15" height="17" viewBox="0 0 15 17" xmlns="http://www.w3.org/2000/svg"><path d="M10.863 15.973C9.529 16.764 8.347 17 6.842 17 2.745 17 0 13.762 0 9.181 0 4.363 3.087 0 8.234 0 12.73 0 15 3.336 15 7.109c0 3.692-1.887 5.745-4.117 5.745-1.183 0-1.85-.83-1.945-2.194h-.057c-.552 1.186-1.62 2.194-2.936 2.194-1.392 0-2.382-1.304-2.382-3.22 0-3.257 2.077-5.725 5.051-5.725 1.01 0 2.077.276 2.687.65l-.686 4.108c-.304 1.777-.038 2.469.649 2.488.818 0 2.116-1.067 2.116-4.047 0-3.22-1.887-5.688-5.413-5.688-2.84 0-6.272 2.922-6.272 7.641 0 4.028 2.479 6.478 5.431 6.478 1.164 0 2.27-.298 3.26-.93l.477 1.364zM8.995 5.767c-.151-.08-.514-.16-.82-.16-1.068 0-2.193 1.403-2.193 3.319 0 .81.267 1.462.974 1.462.723 0 1.372-1.186 1.62-2.429l.419-2.192z" fill="#1B1B1B"/></svg>