<svg width="23" height="16" viewBox="0 0 23 16" xmlns="http://www.w3.org/2000/svg"><g fill="#1B1B1B"><path d="M2.134 1.502l7.803 6.179c.353.279.842.405 1.317.382.469.023.957-.1 1.313-.382l7.807-6.179c.622-.494.479-.898-.314-.898H2.442c-.79 0-.933.404-.308.898"/><path d="M20.933 3.135L12.406 9.61c-.319.236-.736.353-1.152.35-.417.003-.837-.112-1.154-.35L1.571 3.135c-.635-.482-1.15-.225-1.15.569v10.622c0 .798.649 1.446 1.445 1.446h18.775a1.45 1.45 0 0 0 1.447-1.446V3.704c-.003-.792-.522-1.052-1.155-.569"/></g></svg>