<svg width="24" height="22" viewBox="0 0 24 22" xmlns="http://www.w3.org/2000/svg"><path d="M7.445 11.098a3.49 3.49 0 0 0-2.83-3.421V.095H3.307v7.582a3.49 3.49 0 0 0-2.829 3.421 3.489 3.489 0 0 0 2.829 3.421v7.18h1.308v-7.18a3.488 3.488 0 0 0 2.83-3.421zm-3.483 2.46a2.464 2.464 0 0 1-2.461-2.46 2.463 2.463 0 0 1 2.461-2.459 2.464 2.464 0 0 1 2.46 2.459 2.464 2.464 0 0 1-2.46 2.46zm11.347 1.843a3.49 3.49 0 0 0-2.83-3.42V.094h-1.308v11.887a3.49 3.49 0 0 0-2.83 3.42 3.49 3.49 0 0 0 2.83 3.422v2.875h1.308v-2.875a3.488 3.488 0 0 0 2.83-3.422zm-3.484 2.461a2.463 2.463 0 0 1-2.46-2.461 2.463 2.463 0 0 1 2.46-2.46 2.461 2.461 0 0 1 0 4.921zm11.346-11.47a3.487 3.487 0 0 0-2.829-3.421V.095h-1.308v2.876a3.488 3.488 0 0 0-2.83 3.421 3.49 3.49 0 0 0 2.83 3.421v11.886h1.308V9.813a3.49 3.49 0 0 0 2.829-3.421zm-3.483 2.46a2.464 2.464 0 0 1-2.46-2.46 2.464 2.464 0 0 1 2.46-2.461 2.464 2.464 0 0 1 2.461 2.461 2.465 2.465 0 0 1-2.461 2.46z" fill="#3F3F41"/></svg>