<svg width="12" height="24" viewBox="0 0 12 24" xmlns="http://www.w3.org/2000/svg"><path d="M10.435 1.136v11.108c.195 3.45.436 6.891.61 10.341.032.554-.06.795-.566.795H9.327c-.508 0-.597-.241-.565-.795.172-3.387.405-6.769.599-10.153h-.866c-.356 0-.647-.361-.647-.801v-4.44c0-3.302.739-6.059 2.089-6.348.235-.051.498-.026.498.293m-7.816 9.423c-.205 4.013-.413 8.013-.617 12.026-.03.554.057.795.566.795h1.151c.507 0 .598-.241.567-.795-.206-4.013-.414-8.013-.618-12.026h.779c.58 0 .91-.54.896-1.066-.072-2.398-.144-4.792-.214-7.189-.014-.481-.356-.479-.37 0l-.16 5.333c-.014.501-.495.495-.509-.006a9471.78 9471.78 0 0 1-.16-5.327c-.015-.481-.355-.479-.37 0l-.158 5.333c-.016.482-.502.482-.516 0a9493.1 9493.1 0 0 1-.16-5.333c-.016-.479-.355-.481-.37 0-.054 1.776-.105 3.551-.158 5.327-.017.501-.495.507-.51.006a4746.47 4746.47 0 0 1-.159-5.333c-.015-.479-.356-.481-.372 0-.07 2.397-.143 4.791-.212 7.189-.018.526.314 1.066.895 1.066h.779z" fill="#1B1B1B" fill-rule="evenodd"/></svg>