<svg width="41" height="21" viewBox="0 0 41 21" xmlns="http://www.w3.org/2000/svg"><g fill="#1B1B1B"><path d="M30.832 11.241a5.31 5.31 0 0 0-1.721.292c-1.033.347-1.898.958-2.44 1.721-.504.709-.662 1.463-.441 2.12.329.973 1.465 1.604 2.896 1.604.571 0 1.152-.096 1.724-.292 1.674-.566 2.893-1.844 2.974-3.113l.002-.049V5a.513.513 0 0 1 .748-.459c.881.447 2.046 1.153 2.683 1.782 1.27 1.275 1.834 2.137 2.029 4.182.019.196.02.386.011.573.492-.626.873-1.341.909-2.152.048-1.221-.679-2.31-2.436-3.65-.301-.23-.725-.508-1.211-.831-1.321-.877-2.967-1.963-4.014-3.216v9.644a.514.514 0 0 1-.642.497 4.265 4.265 0 0 0-1.071-.129M19.394.174H4.185A3.755 3.755 0 0 0 .431 3.926v12.377a3.76 3.76 0 0 0 3.754 3.756h15.209a3.762 3.762 0 0 0 3.756-3.756V3.926A3.756 3.756 0 0 0 19.394.174zm2.749 16.129a2.753 2.753 0 0 1-2.749 2.749H4.185a2.755 2.755 0 0 1-2.751-2.749V3.926a2.754 2.754 0 0 1 2.751-2.748h15.209a2.752 2.752 0 0 1 2.749 2.748v12.377z"/><path d="M14.835 9.859l-3.741-3.591a.455.455 0 0 0-.495-.09.457.457 0 0 0-.281.421v7.174c0 .182.11.351.281.424l.179.035a.45.45 0 0 0 .316-.127l3.741-3.587a.449.449 0 0 0 0-.659M4.075 18.02a.692.692 0 0 1-.693-.691v-.818c0-.383.311-.696.693-.696h1.717c.382 0 .692.313.692.696v.818c0 .382-.31.691-.692.691H4.075zm4.571 0a.693.693 0 0 1-.693-.691v-.818c0-.383.312-.696.693-.696h1.717c.383 0 .694.313.694.696v.818a.692.692 0 0 1-.694.691H8.646zm4.571 0a.692.692 0 0 1-.693-.691v-.818c0-.383.311-.696.693-.696h1.717c.382 0 .695.313.695.696v.818a.694.694 0 0 1-.695.691h-1.717zm4.57 0a.693.693 0 0 1-.695-.691v-.818c0-.383.312-.696.695-.696h1.717c.382 0 .692.313.692.696v.818c0 .382-.31.691-.692.691h-1.717zM4.075 4.494a.693.693 0 0 1-.693-.693v-.818c0-.381.311-.694.693-.694h1.717c.382 0 .692.313.692.694v.818c0 .384-.31.693-.692.693H4.075zm4.571 0a.693.693 0 0 1-.693-.693v-.818c0-.381.312-.694.693-.694h1.717c.383 0 .694.313.694.694v.818a.693.693 0 0 1-.694.693H8.646zm4.571 0a.693.693 0 0 1-.693-.693v-.818c0-.381.311-.694.693-.694h1.717c.382 0 .695.313.695.694v.818a.694.694 0 0 1-.695.693h-1.717zm4.57 0a.694.694 0 0 1-.695-.693v-.818c0-.381.312-.694.695-.694h1.717c.382 0 .692.313.692.694v.818c0 .384-.31.693-.692.693h-1.717z"/></g></svg>