<svg xmlns="http://www.w3.org/2000/svg" width="174.83" height="78.231" viewBox="0 0 174.83 78.231"><path fill="#005B94" d="M33.309 38.549c-.639-.442-1.44-.821-2.38-1.125a39.42 39.42 0 0 0-3.075-.837 57.93 57.93 0 0 1-2.192-.529c-.609-.162-.929-.299-1.095-.388-.183-.098-.225-.163-.227-.163-.023-.05-.064-.17-.064-.417 0-.324.117-.515.415-.681.431-.238 1.011-.358 1.732-.358 2.243 0 2.291.928 2.314 1.374l-.006.172h6.118l.014-.244c-.071-1.854-.873-3.301-2.382-4.301-1.441-.958-3.472-1.422-6.206-1.422-1.242 0-2.375.14-3.368.417-1.018.281-1.893.685-2.602 1.199a5.617 5.617 0 0 0-1.692 1.904 5.093 5.093 0 0 0-.595 2.425c0 .715.099 1.354.298 1.896.201.551.491 1.043.86 1.467a5.28 5.28 0 0 0 1.281 1.063 9.2 9.2 0 0 0 1.5.713 15.99 15.99 0 0 0 1.642.516c.542.14 1.105.28 1.685.419.833.205 1.537.384 2.106.533.513.134.923.274 1.221.416.272.13.375.237.413.291.052.074.081.21.081.382 0 .434-.156.734-.51.978-.423.294-1.091.441-1.987.441-1.043 0-1.816-.177-2.237-.509-.395-.313-.597-.787-.614-1.453l-.022-.2-6.154.008-.024.274c.155 2.062 1.005 3.65 2.527 4.72 1.483 1.041 3.628 1.546 6.559 1.546 1.401 0 2.647-.148 3.702-.441 1.081-.302 2.007-.732 2.748-1.284.767-.568 1.344-1.253 1.718-2.035a5.808 5.808 0 0 0 .551-2.53c0-.975-.167-1.809-.5-2.481-.341-.688-.864-1.278-1.553-1.756zM54.352 35.794a9.752 9.752 0 0 0-1.122-2.855c-.527-.883-1.298-1.659-2.293-2.304-1.025-.667-2.3-1.004-3.791-1.004-1.273 0-2.409.272-3.376.809a9.274 9.274 0 0 0-.904.572v-1h-5.981v25.202h6.103v-5.408c0-.523-.005-1.041-.01-1.552v-.033c.287.156.585.288.888.399.834.304 1.792.457 2.846.457 1.298 0 2.467-.261 3.474-.777a7.239 7.239 0 0 0 2.529-2.147c.663-.89 1.166-1.945 1.499-3.138.325-1.167.491-2.445.491-3.8-.001-1.247-.12-2.397-.353-3.421zm-6.381 5.371c-.142.505-.34.92-.593 1.236a2.24 2.24 0 0 1-.849.662c-.344.15-.716.225-1.139.225-.445 0-.827-.074-1.17-.226a2.194 2.194 0 0 1-.849-.663c-.254-.315-.458-.733-.603-1.239-.153-.534-.232-1.182-.232-1.929 0-.745.079-1.397.232-1.937.146-.51.349-.93.603-1.246.24-.3.518-.516.849-.662a2.84 2.84 0 0 1 1.17-.225c.423 0 .795.073 1.139.225.331.146.609.363.849.662.252.315.451.732.593 1.241.148.542.226 1.196.226 1.942 0 .747-.077 1.398-.226 1.934z"/><path fill="#7CC5E9" d="M121.787 35.794a9.75 9.75 0 0 0-1.121-2.855c-.527-.883-1.298-1.659-2.295-2.304-1.025-.667-2.3-1.004-3.789-1.004-1.275 0-2.411.272-3.378.809a9.258 9.258 0 0 0-.903.572v-1h-5.98v25.202h6.102v-5.408c0-.523-.002-1.041-.008-1.552 0-.012 0-.022-.002-.033.289.156.586.288.889.399.836.304 1.793.457 2.847.457 1.297 0 2.466-.261 3.473-.777a7.233 7.233 0 0 0 2.53-2.147c.661-.89 1.164-1.945 1.497-3.138.326-1.167.49-2.445.49-3.8-.002-1.247-.118-2.397-.352-3.421zm-6.381 5.371c-.143.505-.342.92-.594 1.236-.24.298-.518.515-.85.662-.344.15-.716.225-1.139.225-.443 0-.826-.074-1.17-.226a2.187 2.187 0 0 1-.849-.663c-.253-.315-.455-.733-.603-1.239-.153-.534-.232-1.182-.232-1.929 0-.745.079-1.397.233-1.937.146-.51.349-.93.602-1.246.239-.3.517-.516.849-.662a2.844 2.844 0 0 1 1.17-.225c.423 0 .795.073 1.139.225.332.146.609.363.85.662.252.315.451.732.593 1.241.149.542.226 1.196.226 1.942-.001.747-.077 1.398-.225 1.934z"/><path fill="#005B94" d="M73.275 35.244c-.438-1.214-1.074-2.252-1.89-3.087a7.934 7.934 0 0 0-2.977-1.902c-1.128-.414-2.398-.624-3.775-.624-1.388 0-2.667.21-3.8.624a7.922 7.922 0 0 0-2.988 1.902c-.814.834-1.453 1.871-1.896 3.083-.437 1.192-.658 2.576-.658 4.113 0 1.528.221 2.906.658 4.099.443 1.211 1.082 2.248 1.896 3.082a8.021 8.021 0 0 0 2.983 1.91c1.136.422 2.417.633 3.805.633 1.377 0 2.648-.211 3.779-.633a8.052 8.052 0 0 0 2.972-1.91c.815-.834 1.451-1.874 1.89-3.087.431-1.191.648-2.568.648-4.094.002-1.536-.216-2.918-.647-4.109zm-6.279 5.921c-.142.505-.341.92-.593 1.236-.24.298-.517.515-.85.662a2.78 2.78 0 0 1-1.137.225c-.445 0-.827-.074-1.17-.226a2.187 2.187 0 0 1-.849-.663c-.254-.315-.458-.733-.603-1.239-.154-.534-.232-1.182-.232-1.929 0-.745.079-1.397.232-1.937.145-.51.349-.93.603-1.246.24-.3.518-.516.849-.662a2.84 2.84 0 0 1 1.17-.225c.422 0 .795.073 1.137.225.333.146.61.363.85.662.252.315.451.732.593 1.241.148.542.226 1.196.226 1.942-.001.747-.078 1.398-.226 1.934zM102.96 35.244c-.438-1.214-1.073-2.252-1.889-3.087a7.934 7.934 0 0 0-2.977-1.902c-1.128-.414-2.399-.624-3.774-.624-1.389 0-2.668.21-3.802.624a7.922 7.922 0 0 0-2.986 1.902c-.816.834-1.453 1.871-1.896 3.083-.437 1.192-.658 2.576-.658 4.113 0 1.528.221 2.906.658 4.099.442 1.211 1.081 2.248 1.896 3.082a7.997 7.997 0 0 0 2.983 1.91c1.136.422 2.416.633 3.805.633 1.377 0 2.648-.211 3.779-.633a8.052 8.052 0 0 0 2.972-1.91c.815-.834 1.451-1.874 1.89-3.087.43-1.191.648-2.568.648-4.094.001-1.536-.218-2.918-.649-4.109zm-6.28 5.921c-.141.505-.341.92-.593 1.236a2.217 2.217 0 0 1-.849.662c-.345.15-.717.225-1.138.225a2.85 2.85 0 0 1-1.172-.226 2.187 2.187 0 0 1-.849-.663c-.252-.315-.456-.733-.601-1.239-.155-.534-.233-1.182-.233-1.929 0-.745.079-1.397.233-1.937.145-.51.349-.93.601-1.246.24-.3.517-.516.851-.662a2.834 2.834 0 0 1 1.17-.225c.421 0 .793.073 1.138.225.332.146.61.363.849.662.252.315.451.732.593 1.241.149.542.226 1.196.226 1.942 0 .747-.076 1.398-.226 1.934zM87.277 30.073l-1.15-.307a7.708 7.708 0 0 0-1.512-.135c-1.032 0-2.032.29-2.972.861a6.304 6.304 0 0 0-.926.686v-1.166h-5.98V48.68h6.102V36.753c.429-.526.893-.921 1.382-1.179a3.656 3.656 0 0 1 1.735-.431c.38 0 .726.019 1.025.055l2.296-5.125z"/><path fill="#7CC5E9" d="M140.483 49.694h4.342s1.73.394.759-2.338-5.95-16.697-5.95-16.697l7.133-.031 2.732 11.293 3.036-11.262 6.739-.031-7.255 20.279s-1.458 3.704-4.676 3.704h-6.89l.03-4.917z"/><path fill="#7CC5E9" d="M139.76 33.271c-.4-.955-1.023-1.708-1.846-2.237a7.877 7.877 0 0 0-2.746-1.109c-.959-.196-2.074-.294-3.315-.294-6.731 0-8.36 3.278-8.542 6.028l-.062.905h5.633l.072-.768c.059-.59.266-.995.648-1.273.435-.313 1.138-.472 2.094-.472.552 0 1.019.055 1.39.165.257.075.436.182.528.318l.061.085.077.069a.887.887 0 0 1 .236.317c.075.167.137.355.182.56.029.234.052.557.063.962h-.611c-7.304 0-11.007 2.269-11.007 6.744 0 .937.186 1.784.548 2.516.361.73.859 1.349 1.482 1.841a6.424 6.424 0 0 0 2.147 1.094 8.98 8.98 0 0 0 2.566.354c1.287 0 2.466-.177 3.497-.53a8.417 8.417 0 0 0 1.423-.637v.77h6.05V36.858c.001-1.502-.186-2.676-.568-3.587zm-5.47 9.166c0 1.641-2.034 1.943-2.823 1.943s-1.943.062-1.943-1.518c0-1.579.487-1.67.912-1.852.424-.182 3.885-1.215 3.885-1.215s-.031 1.004-.031 2.642z"/></svg>