<svg xmlns="http://www.w3.org/2000/svg" width="120" height="20" viewBox="0 0 120 20"><g fill="none"><path fill="#DDB412" d="M16.182 7.266l-.007-.004c-.109-.064-.268-.102-.374-.052-.69-.067-1.351-.061-2.047-.055h-.02l-.027.003c-.352.001-.711.008-1.075.001l-2.923-.06a36 36 0 0 0-2.171.015c-.546.005-1.078.02-1.616.034-.563.018-1.904.019-2.705.021-.427 0-.653.003-.683.003-.092.004-.208.139-.211.245 0 .06.035.128.136.139.074.005.56.009 1.442.005l.899-.005c.239 0 .351.005.403 0h.006c.659-.064 1.323-.064 1.968-.06h.049c.416.004.845.006 1.279-.011.09.02.185 0 .274-.02l.015-.001.124-.022a.979.979 0 0 0 .33.028c.115-.004.233-.005.337.021h.018a.511.511 0 0 1 .269 0l.018.005.123.017c.839-.021 1.761.008 2.916.095l.544.059h.006c.484-.049.984-.011 1.468.024h.014c.363.025.708.055 1.049.045l.002.007.018-.008v-.008l.183-.144h.004l.005-.008a.253.253 0 0 0-.04-.309"/><path fill="#056832" d="M11.344 13.477l.011-.008v-.039l-.01-1.139v-.004c-.021-.171-.025-.359-.03-.563-.005-.223-.009-.459-.039-.665-.005-.292-.066-.609-.122-.917l-.038-.206-.005-.019L11.1 9.9c-.048-.044-.064-.104-.08-.167l-.064-.17a2.276 2.276 0 0 0-.304-.392l-.006-.006-.087-.072-.046-.034-.024-.023-.015.004-.022-.014c-.093-.078-.185-.107-.288-.142h-.003l-.127-.052v-.03l-.053-.006-.253-.039-.036-.004-.024.03-.065-.004-.079-.023-.031-.001-.014.014-.029-.018-.104-.032-.011.049-.12.027h-.321l.018.059-.004.004c-.065-.018-.118.025-.147.048l-.016.012-.106.051-.041.016-.024.003-.016.019-.136.079-.086.035.021.019-.041.026h-.084v.065h-.009l-.045-.019-.033.039a1.709 1.709 0 0 1-.187.21c-.079.089-.162.177-.227.274l-.018.028.012.029-.061.082-.045.109-.004.028-.048.112-.013.049-.044.051.018.013-.012.085-.001.024-.026.017.006.043c.011.078 0 .154-.009.23a1.107 1.107 0 0 0-.013.239l-.018.141.001.035-.038.033.028.045-.013.152-.014.178-.017.016-.011.049-.005.055-.029.066-.004.023.053.043.004.095-.008.076-.033.063.033.038v.011l.033.114.004.019-.063.02.042.086-.005.021.008.12v.131l.006.029c-.059.063-.031.144-.013.188l-.017.12-.077.027.078.083.012.061.033.03-.024.009.001.006.03.074-.001.008.025.118-.014.036-.032.031.03.045c.027.033.016.078-.002.146-.014.063-.035.143.001.209l-.043.041.054.043-.002.009-.009.128-.003-.005v.109c-.005.065-.015.146.018.22l-.009.078.003-.01.006.074-.025.013.019.052a.654.654 0 0 1 .019.198c0 .14 0 .293.125.412l.027.023.035-.011c.09-.026.096-.119.098-.168l.001-.027v-.016l-.002-.01c-.038-.128-.022-.294-.008-.438l.01-.11v-.021l-.004-.013-.013-.16-.007-.17c.02-.268.009-.584-.004-.859l-.009-.332v-.007l-.003-.001a3.093 3.093 0 0 1-.004-.409c.004-.122.004-.25-.005-.365.029-.132.025-.251.024-.384a2.16 2.16 0 0 1 0-.18l.001-.018-.006-.008.022-.105.018-.135.01-.096.003-.014-.005-.02.007-.092.001-.14a.952.952 0 0 0 .071-.341l.004-.04-.025-.073v-.005l.062-.149c.037-.061.079-.125.09-.215l.002-.015-.002-.003.015-.013.058-.096-.004-.026.095-.127c.035-.061.061-.104.133-.124l.034-.009.008-.036.101-.096.12-.095.09-.026.13-.077.117-.035.041.016.025-.024.005-.003.069-.042.046-.012.051-.007.058.008.004.004.046-.005.064-.007c.179-.023.337-.043.481.032l.05.028.03-.047.018.023c.039.04.102.108.192.095l.063.044.028.015v.004l.013.017.14.058c.107.115.216.268.216.334v.062h.047l.001.002c.019.086.041.188.107.256l.004.114.005.024-.012.047.038.044.008.004.032.111.012.028-.01.019c-.058.109.018.171.055.199l.014.011-.034.084.006.049.019.032v.001l.005.003.015.036-.023.022-.015.057.035.045.023.01.019.065.003.01-.007.028c-.02.104-.048.237.018.345l-.004.007-.02.12.003.034-.015.064.039.012-.006.023-.012.073h.02l-.004.071-.014.082-.005.01-.002.01c-.018.068.008.134.024.185l.014.03-.02.051.002.018-.013.016.013.033.031.042-.007.001-.003.051v.02l-.039.011.019.044-.009.075-.027.051.028.04c-.026.084.036.148.074.185l.034.038h-.032l.023.081v.003l-.015.016-.053.027.017.07-.006.018.01.074.007.008-.046.09-.004.061.049.007-.009.038-.023.056-.002.009.083.045-.024.063-.011.025h-.075l.004.084.007.043.005.051v.083l.005.047-.009.004.004.046v.067l-.001.044-.055.028.068.078v.004l-.018.073h-.051l.084.104.019.048.003.006-.043.111-.008.037.001-.003.023.03-.029.037-.01.059h-.083l.069.068-.066.023.056.043v.168l.039.068.002.004.102.014v.071l.084-.024.15-.012.068.014.01-.066c.03-.256.025-.5.017-.738-.007-.23-.009-.45.017-.664l-.011-.099"/><path fill="#05468A" d="M6.491 13.477l.015-.008-.001-.039-.011-1.139v-.004c-.021-.171-.024-.359-.03-.563-.007-.223-.009-.459-.042-.665-.003-.292-.062-.609-.119-.917l-.036-.206-.008-.019-.01-.017c-.047-.044-.064-.104-.08-.167l-.065-.17a2.143 2.143 0 0 0-.305-.392l-.007-.006-.084-.072-.043-.034-.026-.023-.014.004-.022-.014c-.094-.078-.185-.107-.29-.142h-.002l-.126-.052v-.03l-.053-.006-.255-.039-.038-.004-.022.03-.066-.004-.08-.023-.027-.001-.015.014-.029-.018-.105-.032-.009.049-.121.027h-.321l.017.059-.002.004c-.068-.018-.12.025-.147.048l-.017.012-.107.051-.035.016-.027.003-.017.019-.139.079-.084.035.021.019-.043.026h-.082v.065h-.01l-.044-.019-.036.039a1.341 1.341 0 0 1-.183.21c-.081.089-.164.177-.229.274l-.017.028.013.029-.062.082-.045.109-.004.028-.047.112-.016.049-.042.051.019.013-.015.085-.001.024-.027.017.009.043a.805.805 0 0 1-.01.23c-.011.077-.02.156-.013.239l-.02.141.004.035-.041.033.03.045-.013.152-.015.178-.016.016-.012.049-.005.055-.029.066-.007.023.055.043.005.095-.007.076-.034.063.034.038v.011l.031.114.006.019-.064.02.041.086-.003.021.007.12.002.131.005.029c-.059.063-.028.144-.015.188l-.014.12-.081.027.081.083.011.061.035.03-.026.009.004.006H2.57l.029.074v.008l.023.118-.014.036-.032.031.032.045c.025.033.016.078-.002.146-.016.063-.034.143 0 .209l-.044.041.057.043-.003.009-.009.128-.004-.005.003.109c-.005.065-.016.146.018.22l-.011.078.003-.01.006.074-.022.013.016.052a.724.724 0 0 1 .019.198c0 .14 0 .293.124.412l.027.023.035-.011c.091-.026.096-.119.099-.168l.002-.027v-.016l-.002-.01c-.036-.128-.022-.294-.007-.438l.009-.11v-.021l-.007-.013-.008-.16-.011-.17a7.24 7.24 0 0 0 0-.859 8.315 8.315 0 0 1-.012-.332v-.008c-.013-.133-.009-.271-.005-.409.002-.122.005-.25-.003-.365.029-.132.023-.251.021-.384v-.198l-.004-.008.022-.105.017-.135.008-.096.006-.014-.008-.02.009-.092.002-.14a.874.874 0 0 0 .071-.341l.005-.04L3 10.346v-.005l.06-.149c.038-.061.082-.125.092-.215l.001-.015v-.003l.013-.013.058-.096-.002-.026.094-.127c.035-.061.062-.104.133-.124l.035-.009.009-.036.1-.096.12-.095.087-.026.133-.077.117-.035.039.016.026-.024.005-.003.07-.042.042-.012.054-.007.06.008.002.004.047-.005.061-.007c.181-.023.338-.043.483.032l.05.028.03-.047.02.023c.038.04.102.108.192.095l.064.044.026.015v.004l.014.017.139.058c.105.115.215.268.215.334v.062h.05v.002c.018.086.039.188.107.256l.003.114.005.024-.015.047.039.044.012.004.031.111.013.028-.013.019c-.055.109.022.171.058.199l.013.011-.031.084.003.049.017.032v.001l.005.003.014.036-.021.022-.014.057.032.045.023.01.018.065.002.01-.004.028c-.02.104-.046.237.017.345l-.004.007-.018.12.004.034-.018.064.04.012-.006.023-.014.073h.027l-.007.071-.017.082-.004.01-.004.01a.298.298 0 0 0 .027.185l.014.03-.022.051.002.018-.013.016.013.033.034.042-.01.001v.071l-.041.011.019.044-.008.075-.027.051.027.04c-.025.084.039.148.074.185l.033.038h-.03l.022.081.001.003-.017.016-.05.027.018.07-.008.018.01.074.004.008-.04.09-.007.061.047.007-.01.038-.019.056-.005.009.082.045-.021.063-.012.025h-.072l.001.084.006.043.009.051v.083l.002.047-.009.004.009.046v.067l-.002.044-.06.028.072.078v.001l-.021.076h-.051l.086.104.019.048.002.006-.044.111-.003.037v-.003l.021.03-.033.037-.005.059h-.083l.066.068-.064.023.055.043v.168l.038.068.004.004.103.014v.071l.082-.024.15-.012.067.014.009-.066c.033-.256.027-.5.018-.738-.003-.23-.009-.45.02-.664l-.02-.099"/><path fill="#EC7326" d="M16.111 13.564l.015-.011v-.036l-.012-1.137v-.007a5.76 5.76 0 0 1-.029-.562c-.008-.228-.012-.46-.042-.663a5.76 5.76 0 0 0-.123-.919l-.037-.21-.005-.019-.012-.015c-.047-.046-.062-.104-.081-.17l-.064-.169a2.283 2.283 0 0 0-.305-.393l-.005-.006-.085-.071-.045-.035-.023-.02-.019.001-.018-.012c-.095-.08-.186-.108-.289-.145h-.002l-.126-.049v-.028l-.055-.008-.254-.037-.035-.008-.023.031-.067-.004-.079-.021-.028-.002-.018.016-.028-.019-.104-.032-.01.049-.119.028h-.323l.017.058-.004.002c-.067-.016-.12.025-.147.05l-.016.012-.107.049-.037.018-.026.001-.019.021-.134.077-.085.041.019.017-.04.025H13v.067h-.009l-.045-.02-.036.039c-.047.071-.116.138-.185.212-.08.083-.162.172-.227.271l-.018.029.011.029-.061.08-.045.108-.007.028-.043.113-.019.052-.043.049.02.015-.012.082-.001.026-.027.017.007.039c.012.083 0 .155-.011.234a1.325 1.325 0 0 0-.009.239l-.02.137.002.039-.04.031.03.046-.014.153-.014.176-.016.015-.01.05-.007.061-.025.061-.009.023.053.037.005.1-.005.077-.033.062.033.039-.002.014.033.115.004.018-.064.018.043.084-.007.021.009.122.001.131.007.03-.015.185-.015.121-.08.029.08.081.01.062.034.029-.025.007.003.01.028.073-.001.008.026.118-.012.036-.034.03.032.047c.022.032.014.078-.004.148-.015.062-.035.142.001.208l-.044.044.056.04-.002.007-.011.128-.002-.005.001.109c-.007.067-.016.146.019.221l-.01.079.004-.01.006.074-.026.012.02.051c.015.057.015.125.015.197 0 .14 0 .293.126.411l.023.026.037-.009c.092-.03.097-.122.101-.17l.002-.029v-.013l-.002-.016c-.038-.123-.023-.287-.009-.436l.011-.11V14.4l-.009-.019-.011-.157a.392.392 0 0 0-.005-.176c.021-.265.009-.579-.001-.858l-.012-.331v-.006c-.018-.131-.01-.273-.009-.41a3.378 3.378 0 0 0-.001-.363c.027-.133.023-.257.023-.383V11.5l-.004-.008.021-.107.018-.137.006-.095.004-.015-.004-.014.007-.096.002-.14c.05-.101.061-.224.073-.342l.002-.04-.026-.072v-.003l.061-.148c.038-.061.08-.127.09-.22v-.016l.016-.016.058-.095-.007-.023.099-.131c.035-.055.061-.101.134-.118l.033-.013.008-.035.099-.094.119-.098.091-.025.133-.075.115-.037.04.016.023-.025.008-.003.07-.044.044-.011.051-.007.06.008.005.005.046-.006.059-.008c.182-.022.34-.044.483.033l.051.025.03-.044.02.021c.033.042.101.114.192.098l.062.043.027.019.014.016.14.059c.106.111.215.266.215.333v.064h.045l.001.004c.018.083.041.186.107.252l.004.119.006.021-.016.048.04.042.012.005.033.11.01.027-.01.024c-.058.111.018.168.055.197l.016.01-.035.084.005.048.02.03.001.003.003.005.015.037-.023.02-.014.058.033.045.026.014.015.064.003.005-.005.032c-.022.103-.048.235.016.348l-.004.001-.017.12.003.035-.018.064.04.014-.007.018-.013.078h.027l-.009.068-.015.084-.003.008-.003.009a.284.284 0 0 0 .026.186l.011.03-.021.051.004.018-.015.014.013.037.036.043-.013.004-.001.049v.016l-.038.012.018.043-.01.078-.024.049.027.041c-.024.084.037.148.075.186l.034.036h-.033l.022.083.001.001-.016.018-.052.026.019.068-.007.019.01.075.007.008-.044.088-.009.063.05.006-.012.038-.022.056-.002.008.083.049-.022.061-.008.027h-.078l.002.078.01.048.008.05v.082l.003.046-.011.004.009.047v.068l-.004.044-.058.027.071.078-.001.008-.017.07h-.051l.086.104.018.049.001.008-.043.111-.006.036.002-.001.02.023-.032.04-.007.062h-.083l.07.066-.065.021.056.045v.168l.037.071h.006l.1.015v.072l.083-.027.151-.009.065.009.012-.063c.032-.251.026-.499.017-.738a4.382 4.382 0 0 1 .019-.663l-.01-.102"/><path fill="#EC7326" d="M.557 2.334v17.468H18.03V2.334H.557zm16.545 16.548H1.479V3.255h15.623v15.627z"/><path fill="#00703E" d="M68.103 10.109c.894-.709 1.655-1.503 1.655-2.835 0-.858-.52-2.437-3.456-2.437-.552 0-1.187.048-1.979.048-.324 0-1.343-.048-2.205-.048-.244 0-.357.035-.357.147 0 .114.096.147.277.147.224 0 .5.015.629.047.537.118.669.372.7.925.03.519.03.974.03 3.443v2.852c0 1.491 0 2.775-.081 3.456-.065.474-.144.823-.466.892a2.767 2.767 0 0 1-.589.066c-.194 0-.255.047-.255.131 0 .109.111.16.324.16.649 0 1.668-.051 2.035-.051.495 0 1.971.099 2.357.099 2.984 0 4.336-1.804 4.336-3.534.001-1.898-1.624-3.05-2.955-3.508zm-2.757-4.297c0-.18.031-.245.145-.279.163-.029.311-.029.536-.029 1.396 0 2.028 1.425 2.028 2.513 0 .795-.244 1.383-.666 1.72-.277.243-.631.309-1.169.309-.371 0-.616-.017-.763-.048-.064-.018-.111-.048-.111-.182V5.812zM67.1 16.424c-.377 0-.75-.019-1.188-.199-.519-.207-.565-.481-.565-1.555v-3.846c0-.079.031-.114.096-.114.244 0 .407 0 .699.02.633.029 1.004.142 1.343.387 1.237.857 1.58 2.223 1.58 3.229-.002 1.687-1.239 2.078-1.965 2.078zm30.433-6.81c0-2.45 0-2.901.03-3.417.034-.564.16-.838.597-.918.193-.031.29-.05.452-.05.128 0 .226-.031.226-.143 0-.114-.115-.146-.338-.146-.551 0-1.566.048-1.951.048-.387 0-1.402-.048-2.258-.048-.24 0-.354.031-.354.146 0 .112.097.143.271.143.229 0 .501.019.63.05.532.112.663.371.694.918.033.516.033.967.033 3.417v2.839c0 1.482 0 2.755-.082 3.43-.066.472-.145.824-.469.889a2.677 2.677 0 0 1-.578.065c-.195 0-.259.048-.259.128 0 .113.112.161.321.161.646 0 1.662-.048 2.033-.048.4 0 1.416.048 2.322.048.176 0 .307-.048.307-.161 0-.08-.083-.128-.212-.128-.21 0-.565-.034-.79-.065-.403-.064-.547-.417-.58-.872-.047-.691-.047-1.964-.047-3.446v-1.468h.08l.176.24c.339.469 3.516 4.192 4.226 4.82.693.615 1.128.969 1.998 1.048.339.033.627.033 1.113.033h1.401c.306 0 .388-.048.388-.161 0-.097-.099-.128-.212-.128-.193 0-.515-.052-.998-.244-.873-.336-1.597-1.062-2.307-1.74-.627-.597-3.786-3.999-4.367-4.757.548-.58 2.983-2.996 3.48-3.48.693-.677 1.242-1.018 1.742-1.208.309-.113.711-.178.937-.178.159 0 .24-.031.24-.143 0-.114-.11-.146-.272-.146-.503 0-1.389.048-1.887.048-.438 0-1.323-.048-1.661-.048-.179 0-.259.031-.259.146 0 .092.065.127.213.162.158.031.224.144.224.319 0 .277-.356.679-.808 1.209-.468.551-2.82 2.951-3.367 3.549h-.08v-.713h.002zM40.411 3.376c0-.124.2-.177.379-.322.827-.594 1.831-1.617 1.993-1.833.179-.253.197-.394.288-.394.089 0 .143.035.339.125.236.108.863.339 1.205.449.143.036.234.071.234.159 0 .11-.253.308-.593.451-.306.146-3.378 1.49-3.646 1.49-.072 0-.199-.034-.199-.125m13.719 6.721c.889-.709 1.65-1.502 1.65-2.825 0-.857-.519-2.425-3.441-2.425-.551 0-1.181.049-1.972.049-.323 0-1.342-.049-2.196-.049h-.217c-.629 0-1.648.049-1.838.049-.018 0-1.036-.049-1.858-.049-.229 0-.339.033-.339.146 0 .114.096.147.273.147.177 0 .453.014.583.048.53.111.663.37.694.92.032.515.032.97.032 3.424v2.019c0 1.664-.05 3.119-.938 4.006-.644.649-1.517.875-2.229.875-.548 0-1.291-.066-2.018-.663-.793-.647-1.261-1.634-1.261-3.974V9.532c0-2.454 0-2.909.034-3.424.03-.562.163-.836.596-.92.195-.034.291-.048.467-.048.165 0 .262-.033.262-.147 0-.113-.114-.146-.357-.146-.58 0-1.598.049-1.984.049-.364 0-1.028-.025-1.697-.041l-.146-.008c-.06 0-.125 0-.19.002-.11-.002-.22-.002-.325-.002-.102 0-.853.049-1.005.049-.21 0-.888-.049-1.696-.049-.304 0-.449.033-.449.163 0 .113.128.129.273.129.209 0 .453.014.648.081.145.051.207.176.207.308 0 .142-.062.387-.145.596-.389 1.067-2.486 6.266-3.182 8.045H30.3l-2.776-7.336c-.228-.581-.371-1.031-.371-1.243 0-.142.047-.257.16-.335.128-.102.37-.115.63-.115.144 0 .24-.033.24-.147 0-.113-.176-.146-.371-.146-.81 0-1.584.049-1.985.049-.567 0-1.488-.049-2.345-.049-.237 0-.417.016-.417.146 0 .101.047.147.193.147.129 0 .388 0 .63.064.582.161.856.342 1.228 1.227l4.072 9.872c.306.756.403.984.613.984.224 0 .32-.258.742-1.197.354-.805 1.115-2.566 2.149-4.925.871-1.987 1.309-2.86 1.937-4.377.435-1.034.679-1.31.888-1.455a.976.976 0 0 1 .746-.145c.531.122.661.37.695.92.031.515.031.97.031 3.424v2.358c0 2.343.614 3.537 1.438 4.279 1.18 1.067 2.731 1.117 3.586 1.117 1.05 0 2.212-.178 3.361-1.162 1.359-1.166 1.535-3.072 1.535-4.863V9.532c0-2.454 0-2.909.033-3.424.03-.562.158-.836.594-.92a3.36 3.36 0 0 1 1.188 0c.532.107.661.37.693.92.032.515.032.97.032 3.424v2.843c0 1.485 0 2.763-.08 3.44-.064.47-.143.823-.467.89-.146.03-.341.063-.581.063-.194 0-.26.05-.26.131 0 .115.114.16.324.16.323 0 .744-.029 1.115-.029.385-.016.741-.016.92-.016.241 0 .726.016 1.21.045.468.02.938.051 1.13.051 2.973 0 4.313-1.794 4.313-3.521-.003-1.89-1.617-3.037-2.943-3.492zm-2.746-4.28c0-.176.034-.241.146-.271.163-.037.307-.037.533-.037 1.388 0 2.023 1.422 2.023 2.505 0 .79-.245 1.373-.665 1.71-.274.246-.63.308-1.162.308-.372 0-.616-.017-.762-.048-.064-.013-.113-.046-.113-.177v-3.99zm1.747 10.566c-.374 0-.747-.018-1.179-.194-.519-.21-.568-.485-.568-1.553v-3.825c0-.081.034-.116.097-.116.244 0 .407 0 .698.016.63.036.999.147 1.339.387 1.228.857 1.567 2.215 1.567 3.215 0 1.681-1.227 2.07-1.954 2.07z"/><path fill="#00703E" d="M93.863 4.958c-.791 0-1.402.046-1.58.046-.342 0-1.113-.046-1.951-.046-.242 0-.421.017-.421.147 0 .098.063.144.257.144.229 0 .613 0 .856.098.39.162.529.465.549 1.449l.161 7.239h-.08c-.279-.254-2.449-2.58-3.547-3.674a194.682 194.682 0 0 1-5.002-5.178c-.271-.289-.415-.496-.594-.496-.162 0-.21.223-.21.548l-.147 9.546c-.018 1.402-.172 1.996-.498 1.996-.617 0-.791-.394-1.353-1.727-1.031-2.451-3.609-9.03-3.999-9.918-.162-.369-.258-.512-.4-.512-.163 0-.261.175-.457.644l-4.045 10.127c-.321.803-.631 1.351-1.371 1.451-.133.016-.142.027-.291.027-.127 0-.189.035-.189.134 0 .126.098.155.308.155.831 0 1.513-.041 1.688-.041.507 0 1.194.041 1.709.041.179 0 .274-.029.274-.155 0-.099-.048-.134-.24-.134h-.241c-.503 0-.646-.205-.646-.496 0-.193.082-.582.241-.982l.871-2.307c.03-.095.064-.131.146-.131h3.594c.078 0 .133.036.164.115l1.289 3.414c.078.195-.031.343-.146.375-.161.012-.227.047-.227.146 0 .114.193.114.484.126 1.29.029 2.468.029 3.047.029.361 0 1.855-.01 2.899-.01.227 0 .374-.029.374-.162 0-.094-.098-.129-.273-.129-.26 0-.563-.01-.839-.111-.323-.108-.531-.531-.565-1.791l-.174-6.77h.044c.293.304 2.08 2.322 3.839 4.064 1.679 1.66 3.736 3.768 4.761 4.736.175.179.368.355.544.355.146 0 .209-.143.209-.494l.176-10.179c.02-.904.146-1.241.6-1.368.198-.051.324-.051.484-.051.191 0 .286-.046.286-.144-.002-.129-.16-.146-.368-.146zm-16.914 7.191h-2.967c-.066 0-.08-.052-.066-.117l1.482-3.964c.021-.065.049-.147.1-.147.045 0 .064.082.078.147l1.452 3.983c.017.047 0 .098-.079.098zm41.998 4.681a3.42 3.42 0 0 1-.676-.066c-.334-.092-.803-.318-1.412-1.759-1.03-2.431-3.598-8.986-3.985-9.87-.159-.37-.254-.515-.399-.515-.16 0-.258.175-.448.644l-4.036 10.088c-.318.805-.625 1.351-1.363 1.445a4.35 4.35 0 0 1-.497.033c-.129 0-.194.031-.194.129 0 .129.096.162.309.162.834 0 1.715-.051 1.893-.051.498 0 1.189.051 1.703.051.178 0 .271-.033.271-.162 0-.098-.047-.129-.238-.129h-.242c-.498 0-.643-.208-.643-.498 0-.193.078-.579.24-.98l.87-2.295c.03-.101.063-.131.142-.131h3.585c.079 0 .126.03.157.113l1.287 3.406c.081.192-.034.336-.145.369-.163.016-.225.047-.225.145 0 .111.193.111.482.129 1.283.033 2.458.033 3.035.033.593 0 .738-.033.738-.162 0-.111-.079-.129-.209-.129zm-5.429-4.706h-2.957c-.061 0-.078-.051-.061-.113l1.477-3.951c.016-.066.05-.147.098-.147.046 0 .063.081.077.147l1.448 3.966c.014.047 0 .098-.082.098z"/></g></svg>