<svg width="63" height="16" viewBox="0 0 63 16" xmlns="http://www.w3.org/2000/svg"><g fill="none" fill-rule="evenodd"><path d="M5.818 3.559h4.268c2.291 0 3.153 1.16 3.02 2.866-.22 2.813-1.92 4.368-4.176 4.368H7.791c-.311 0-.518.205-.603.76l-.487 3.225c-.032.21-.143.333-.308.348H3.717c-.251 0-.341-.193-.275-.61L5.076 4.172c.066-.416.292-.613.742-.613z" fill="#009DE2"/><path d="M24.341 3.367c1.439 0 2.768.781 2.586 2.728-.216 2.307-1.459 3.593-3.415 3.598h-1.706c-.246 0-.365.2-.429.611l-.329 2.101c-.05.316-.213.474-.454.474h-1.589c-.253 0-.342-.162-.285-.524l1.313-8.418c.065-.414.223-.568.504-.568h3.804v-.002zm-2.589 4.507h1.295c.81-.03 1.347-.591 1.4-1.602.034-.625-.388-1.072-1.059-1.068l-1.219.005-.417 2.665zm9.494 4.358c.146-.132.293-.2.271-.037l-.051.39c-.027.203.054.313.243.313h1.411c.238 0 .354-.097.413-.464l.869-5.461c.045-.273-.021-.408-.23-.408h-1.553c-.14 0-.207.078-.244.292l-.057.336c-.03.175-.11.206-.187.029-.263-.624-.935-.903-1.877-.884-2.177.045-3.645 1.698-3.802 3.816-.121 1.639 1.054 2.926 2.602 2.926 1.124.001 1.628-.334 2.192-.848zm-1.182-.838c-.937 0-1.59-.747-1.453-1.664.136-.916 1.011-1.664 1.948-1.664.938 0 1.592.748 1.455 1.664-.136.916-1.012 1.664-1.95 1.664zm7.104-4.847h-1.426c-.296 0-.416.216-.322.491l1.778 5.205-1.752 2.476c-.146.206-.033.396.173.396h1.609c.24 0 .357-.062.478-.235l5.467-7.841c.168-.241.089-.495-.188-.495l-1.521-.001c-.26 0-.365.103-.515.321l-2.28 3.308-1.015-3.313c-.063-.207-.212-.312-.486-.312z" fill="#113984"/><path d="M48.862 3.367c1.439 0 2.767.781 2.585 2.728-.215 2.307-1.458 3.593-3.415 3.598h-1.706c-.245 0-.364.2-.429.611l-.329 2.101c-.05.316-.212.474-.453.474h-1.589c-.253 0-.342-.162-.286-.524l1.314-8.418c.064-.414.223-.568.504-.568h3.804v-.002zm-2.589 4.507h1.294c.81-.03 1.348-.591 1.401-1.602.034-.625-.388-1.072-1.06-1.068l-1.219.005-.416 2.665zm9.495 4.358c.146-.132.293-.2.271-.037l-.051.39c-.026.203.055.313.244.313h1.411c.237 0 .354-.097.413-.464l.869-5.461c.044-.273-.022-.408-.231-.408h-1.552c-.14 0-.207.078-.244.292l-.058.336c-.03.175-.111.206-.186.029-.264-.624-.935-.903-1.877-.884-2.177.045-3.646 1.698-3.802 3.816-.122 1.639 1.053 2.926 2.601 2.926 1.123.001 1.625-.334 2.192-.848zm-1.182-.838c-.938 0-1.591-.747-1.454-1.664.136-.916 1.012-1.664 1.949-1.664s1.591.748 1.454 1.664c-.137.916-1.012 1.664-1.949 1.664zm6.512 1.513h-1.629c-.129 0-.22-.102-.2-.226l1.433-9.069a.282.282 0 0 1 .271-.226h1.63c.129 0 .22.102.2.226l-1.433 9.069a.282.282 0 0 1-.272.226z" fill="#009DE2"/><path d="M3.151-.001h4.271c1.203 0 2.63.039 3.585.881.638.562.972 1.458.895 2.419-.263 3.262-2.212 5.089-4.829 5.089H4.967c-.358 0-.596.237-.697.88l-.587 3.74c-.038.242-.144.385-.336.402H.716c-.292 0-.396-.224-.319-.707L2.292.708c.074-.48.337-.709.859-.709z" fill="#113984"/><path d="M4.33 8.891l.746-4.72c.065-.415.292-.612.742-.612h4.268c.706 0 1.276.11 1.724.313-.429 2.902-2.306 4.516-4.765 4.516H4.94c-.278 0-.486.141-.61.503z" fill="#172C70"/></g></svg>