<svg xmlns="http://www.w3.org/2000/svg" width="314" height="107" viewBox="0 0 314 107"><g fill="none" fill-rule="evenodd"><g fill-rule="nonzero"><path fill="#000" d="M.559.857h71.458v45.186H.559z"/><path fill="#FFF" d="M26.51 42.266V39.72c0-.956-.61-1.6-1.592-1.61-.519-.005-1.053.156-1.425.725-.279-.454-.719-.725-1.34-.725-.433 0-.857.13-1.186.604v-.5h-.881v4.052h.889v-2.249c0-.704.388-1.074.993-1.074.584 0 .881.38.881 1.068v2.254h.892v-2.249c0-.704.406-1.074.99-1.074.602 0 .891.38.891 1.068v2.254h.888v.002zm4.97-2.025v-2.027h-.88v.49c-.282-.365-.704-.594-1.282-.594-1.136 0-2.025.892-2.025 2.132 0 1.235.889 2.126 2.025 2.126.579 0 1-.229 1.282-.594v.493h.881v-2.026h-.001zm-3.281 0c0-.714.466-1.298 1.228-1.298.729 0 1.222.558 1.222 1.298 0 .735-.493 1.298-1.222 1.298-.761 0-1.228-.589-1.228-1.298zm22.147-2.137c.315 0 .604.058.871.167.268.109.498.255.69.448.198.188.349.417.458.672.11.261.167.542.167.85 0 .302-.057.584-.167.844-.109.261-.26.485-.458.678a2.126 2.126 0 0 1-.69.448 2.308 2.308 0 0 1-.871.162 2.2 2.2 0 0 1-1.561-.61 2.147 2.147 0 0 1-.454-.678 2.163 2.163 0 0 1-.164-.844 2.088 2.088 0 0 1 .618-1.522 2.1 2.1 0 0 1 .693-.448c.266-.109.555-.167.868-.167zm0 .834c-.18 0-.347.031-.503.099-.157.063-.29.151-.401.266-.115.115-.204.25-.266.412a1.326 1.326 0 0 0-.099.526 1.325 1.325 0 0 0 .365.933c.112.115.245.206.401.271.156.063.323.094.503.094s.349-.031.503-.094a1.25 1.25 0 0 0 .407-.271c.114-.112.203-.25.266-.407.068-.162.099-.333.099-.526s-.031-.37-.099-.526a1.171 1.171 0 0 0-.673-.678 1.234 1.234 0 0 0-.503-.099zm-14.068 1.303c-.008-1.267-.79-2.132-1.926-2.132-1.186 0-2.018.865-2.018 2.132 0 1.288.865 2.126 2.077 2.126.612 0 1.17-.151 1.66-.568l-.433-.651a1.929 1.929 0 0 1-1.178.422c-.565 0-1.084-.266-1.209-.99h3.007a2.86 2.86 0 0 0 .02-.339zm-3.02-.359c.094-.584.451-.98 1.079-.98.568 0 .933.354 1.026.98h-2.105zm6.734-.636a2.64 2.64 0 0 0-1.264-.344c-.482 0-.771.178-.771.475 0 .271.305.344.686.396l.417.06c.881.128 1.415.5 1.415 1.212 0 .771-.678 1.324-1.848 1.324-.662 0-1.272-.172-1.757-.526l.417-.688c.297.229.738.428 1.35.428.6 0 .923-.18.923-.496 0-.229-.229-.354-.714-.422l-.415-.058c-.907-.13-1.399-.537-1.399-1.199 0-.803.662-1.298 1.689-1.298.644 0 1.228.146 1.652.427l-.381.709zm4.235-.229h-1.441v1.834c0 .407.146.678.586.678.229 0 .516-.079.779-.229l.255.756c-.281.193-.719.313-1.103.313-1.042 0-1.41-.558-1.41-1.501v-1.85h-.821v-.803h.821v-1.23h.891v1.23h1.441v.802h.002zm3.052-.908a1.9 1.9 0 0 1 .625.112l-.269.831a1.404 1.404 0 0 0-.553-.102c-.576 0-.862.373-.862 1.042v2.272h-.881v-4.052h.87v.49c.23-.353.562-.593 1.07-.593zm6.103 3.566a.38.38 0 0 1 .162.034.399.399 0 0 1 .249.372c0 .052-.01.104-.031.156a.462.462 0 0 1-.088.125.418.418 0 0 1-.13.089.425.425 0 0 1-.324 0 .376.376 0 0 1-.13-.089.389.389 0 0 1-.088-.125.413.413 0 0 1 0-.315.407.407 0 0 1 .218-.213.38.38 0 0 1 .162-.034zm0 .719a.25.25 0 0 0 .123-.026.27.27 0 0 0 .099-.068.309.309 0 0 0 .09-.219.335.335 0 0 0-.023-.125.332.332 0 0 0-.166-.167.312.312 0 0 0-.123-.021.3.3 0 0 0-.225.089.394.394 0 0 0-.068.099.316.316 0 0 0-.023.125.32.32 0 0 0 .023.12.347.347 0 0 0 .068.099.281.281 0 0 0 .102.068c.04.021.082.026.123.026zm.026-.5c.047 0 .083.01.109.028a.11.11 0 0 1 .039.086.098.098 0 0 1-.031.078.148.148 0 0 1-.086.037l.12.143h-.094l-.115-.143h-.037v.143h-.081v-.373h.176v.001zm-.094.067v.099h.094a.116.116 0 0 0 .05-.011.054.054 0 0 0 .018-.042c0-.016-.008-.026-.018-.037a.134.134 0 0 0-.05-.01h-.094v.001z"/><path fill="#7B7AB4" d="M29.602 7.284h13.372v24.028H29.602z"/><path fill="#DC001E" d="M30.451 19.298c0-4.874 2.28-9.218 5.835-12.014a15.19 15.19 0 0 0-9.442-3.268c-8.441 0-15.285 6.841-15.285 15.282 0 8.438 6.844 15.282 15.285 15.282 3.563 0 6.846-1.22 9.442-3.268a15.251 15.251 0 0 1-5.835-12.014z"/><path fill="#16A5DA" d="M59.556 28.769v-.493h.198v-.102h-.506v.102h.201v.493h.107zm.983 0v-.594h-.156l-.177.409-.18-.409h-.154v.594h.109v-.448l.167.386h.112l.169-.386v.448h.11zm.474-9.471c0 8.438-6.841 15.282-15.28 15.282-3.568 0-6.847-1.22-9.447-3.268a15.257 15.257 0 0 0 5.838-12.014c0-4.873-2.283-9.218-5.838-12.014a15.205 15.205 0 0 1 9.447-3.268c8.439 0 15.28 6.841 15.28 15.282z"/></g><g fill-rule="nonzero"><path fill="#000" d="M87.593.857h71.458v45.186H87.593z"/><path fill="#FFF" d="M108.455 42.276V39.73c0-.962-.61-1.605-1.595-1.616-.519-.008-1.053.154-1.428.722-.279-.451-.719-.722-1.34-.722-.433 0-.857.13-1.191.604v-.5h-.881v4.058h.892v-2.249c0-.704.391-1.079.993-1.079.584 0 .883.38.883 1.068v2.259h.892v-2.249c0-.704.406-1.079.993-1.079.602 0 .892.38.892 1.068v2.259h.89v.002zm13.192-4.057h-1.444v-1.23h-.891v1.23h-.824v.803h.824v1.855c0 .938.365 1.501 1.41 1.501.383 0 .824-.12 1.103-.313l-.255-.761c-.261.156-.55.234-.777.234-.443 0-.589-.273-.589-.683V39.02h1.444v-.801h-.001zm7.532-.104c-.511 0-.842.24-1.071.594v-.49h-.873v4.058h.881v-2.275c0-.672.29-1.048.865-1.048.177 0 .368.026.553.104l.271-.834a1.956 1.956 0 0 0-.626-.109zm-11.386.427c-.425-.281-1.009-.427-1.655-.427-1.027 0-1.689.495-1.689 1.298 0 .662.49 1.071 1.399 1.199l.415.057c.485.068.714.198.714.428 0 .313-.32.495-.925.495-.609 0-1.053-.198-1.347-.427l-.417.688c.485.354 1.095.527 1.756.527 1.173 0 1.851-.553 1.851-1.324 0-.714-.534-1.089-1.418-1.214l-.417-.063c-.38-.047-.685-.125-.685-.396 0-.297.289-.475.771-.475.519 0 1.019.193 1.264.347l.383-.713zm23.653-.427c-.511 0-.842.24-1.071.594v-.49h-.875v4.058h.886v-2.275c0-.672.287-1.048.863-1.048.18 0 .368.026.555.104l.269-.834a1.962 1.962 0 0 0-.627-.109zm-11.376 2.132c0 1.23.855 2.132 2.163 2.132.61 0 1.019-.136 1.459-.485l-.422-.714c-.333.239-.677.365-1.063.365-.704-.005-1.222-.516-1.222-1.298s.519-1.293 1.222-1.298c.386 0 .729.125 1.063.365l.422-.714c-.44-.35-.85-.485-1.459-.485-1.308 0-2.163.902-2.163 2.132zm8.267 0v-2.028h-.881v.49c-.281-.365-.706-.594-1.282-.594-1.142 0-2.03.891-2.03 2.132 0 1.24.889 2.132 2.03 2.132.576 0 1.001-.229 1.282-.594v.492h.881v-2.03zm-3.284 0c0-.714.464-1.298 1.23-1.298.73 0 1.223.558 1.223 1.298s-.493 1.298-1.223 1.298c-.766-.001-1.23-.585-1.23-1.298zm-10.654-2.132c-1.188 0-2.022.865-2.022 2.132 0 1.292.865 2.132 2.08 2.132.612 0 1.172-.151 1.663-.568l-.43-.657a1.932 1.932 0 0 1-1.181.425c-.571 0-1.087-.258-1.214-.993h3.013c.01-.109.018-.219.018-.338-.009-1.268-.79-2.133-1.927-2.133zm-.018.792c.568 0 .933.354 1.027.985h-2.104c.092-.589.449-.985 1.077-.985zm22.15 1.34v-3.659h-.883v2.122c-.279-.365-.707-.594-1.282-.594-1.137 0-2.03.891-2.03 2.132 0 1.24.894 2.132 2.03 2.132.576 0 1.003-.229 1.282-.594v.492h.883v-2.031zm-3.289 0c0-.714.469-1.298 1.235-1.298.73 0 1.22.558 1.22 1.298s-.49 1.298-1.22 1.298c-.766-.001-1.235-.585-1.235-1.298zm-29.814 0v-2.028h-.881v.49c-.282-.365-.704-.594-1.282-.594-1.136 0-2.03.891-2.03 2.132 0 1.24.894 2.132 2.03 2.132.579 0 1-.229 1.282-.594v.492h.881v-2.03zm-3.284 0c0-.714.469-1.298 1.23-1.298.732 0 1.225.558 1.225 1.298s-.492 1.298-1.225 1.298c-.761-.001-1.23-.585-1.23-1.298zM148 41.688a.35.35 0 0 1 .162.034c.05.018.094.047.13.083a.37.37 0 0 1 .088.13.38.38 0 0 1 .031.157.385.385 0 0 1-.119.283.41.41 0 0 1-.292.117.415.415 0 0 1-.38-.244.385.385 0 0 1-.031-.156c0-.058.01-.11.031-.157a.348.348 0 0 1 .088-.13.37.37 0 0 1 .13-.083.34.34 0 0 1 .162-.034zm0 .716a.244.244 0 0 0 .123-.026.27.27 0 0 0 .099-.068.326.326 0 0 0 .091-.219.333.333 0 0 0-.091-.224.258.258 0 0 0-.099-.063.241.241 0 0 0-.123-.026.268.268 0 0 0-.125.026.25.25 0 0 0-.099.063.423.423 0 0 0-.065.099.283.283 0 0 0-.026.125c0 .042.008.083.026.122a.306.306 0 0 0 .164.165.27.27 0 0 0 .125.026zm.027-.5c.047 0 .083.01.109.031a.11.11 0 0 1 .039.089c0 .031-.01.057-.031.073a.128.128 0 0 1-.089.039l.123.141h-.094l-.115-.141h-.037v.141h-.078v-.373h.173zm-.094.068v.099h.091c.021 0 .039-.002.05-.01.016-.011.021-.021.021-.037 0-.021-.005-.031-.021-.037a.075.075 0 0 0-.05-.016h-.091v.001z"/><path fill="#E95F13" d="M116.831 7.294h14.712v24.029h-14.712z"/><path fill="#DC001E" d="M118.348 19.309c0-4.878 2.283-9.215 5.837-12.014a15.211 15.211 0 0 0-9.444-3.271c-8.439 0-15.282 6.841-15.282 15.285 0 8.439 6.843 15.282 15.282 15.282a15.2 15.2 0 0 0 9.444-3.268 15.26 15.26 0 0 1-5.837-12.014z"/><path fill="#FFF" d="M147.453 28.779v-.495h.198v-.099h-.503v.099h.198v.495h.107zm.983 0v-.594h-.153l-.18.407-.177-.407h-.156v.594h.112v-.448l.164.386h.117l.164-.386v.448h.109z"/><path fill="#F5A107" d="M148.913 19.309c0 8.439-6.844 15.282-15.282 15.282a15.205 15.205 0 0 1-9.445-3.268 15.258 15.258 0 0 0 5.838-12.015c0-4.878-2.283-9.215-5.838-12.014a15.214 15.214 0 0 1 9.445-3.271c8.438.001 15.282 6.842 15.282 15.286z"/></g><path fill="#005197" d="M159.134 96.018l.023 10.32H87.58l-.094-44.695 3.132-.008v30.898c0 1.916 1.553 3.484 3.456 3.484h65.06v.001z"/><path fill="#005197" d="M114.632 88.187l3.171-19.617h5.072l-3.172 19.617zm23.46-19.137c-1.003-.396-2.59-.834-4.55-.834-5.012 0-8.538 2.668-8.559 6.489-.042 2.819 2.525 4.383 4.446 5.321 1.96.959 2.629 1.585 2.629 2.442-.021 1.315-1.587 1.92-3.046 1.92-2.025 0-3.112-.313-4.759-1.042l-.667-.315-.711 4.407c1.191.542 3.38 1.021 5.655 1.042 5.324 0 8.791-2.632 8.832-6.703.019-2.23-1.339-3.94-4.258-5.342-1.775-.896-2.862-1.502-2.862-2.419.021-.834.917-1.694 2.924-1.694 1.647-.039 2.856.36 3.776.756l.461.209.689-4.237zm6.74 12.185c.419-1.126 2.028-5.488 2.028-5.488-.021.042.417-1.146.667-1.876l.354 1.688s.959 4.696 1.167 5.676h-4.216zm6.265-12.665h-3.925c-1.212 0-2.132.354-2.653 1.626l-7.534 17.99h5.324s.876-2.421 1.063-2.942h6.51c.148.688.607 2.942.607 2.942h4.696l-4.088-19.616zm-40.703 0l-4.967 13.374-.545-2.71c-.92-3.133-3.799-6.531-7.013-8.225l4.55 17.155h5.363l7.975-19.595h-5.363v.001z"/><path fill="#F6A800" d="M100.814 68.57h-8.163l-.083.396c6.364 1.626 10.581 5.552 12.313 10.269l-1.774-9.018c-.292-1.251-1.188-1.606-2.293-1.647z"/><path fill="#FFF" d="M116.92 103.933h.842l.002-.005 2.218-.014.112-.834-2.218.016.242-1.787 1.689-.014.114-.836-1.688.016.219-1.605 2.147-.014.112-.834-2.987.019-.804 5.892zm8.11 0h.842v-.005l2.22-.014.112-.834-2.218.016.243-1.787 1.689-.014.112-.836-1.686.016.219-1.605 2.147-.014.112-.834-2.987.019-.805 5.892zm-4.008 0h.839v-.005l2.22-.014.109-.834-2.215.016.777-5.074-.928.019-.802 5.892zm14.686 0h.842v-.005l.063-.014.641-5.045 1.843-.014.112-.834-4.342.019-.115.829h1.658l-.702 5.064zm3.588 0l.842-.019h.06l.31-2.491h.451l1.36 2.491h.907l-1.329-2.491c1.67-.412 2.153-3.419.068-3.401l-1.793.019-.876 5.892zm1.329-3.235h.967c.774 0 1.248-1.929.315-1.944l-1.032-.01-.25 1.954zm6.677-2.877c1.413 0 2.392 1.402 2.194 3.122-.198 1.726-1.506 3.122-2.919 3.122s-2.395-1.396-2.197-3.122c.202-1.719 1.51-3.122 2.922-3.122zm-.101.706c1.021 0 1.733 1.17 1.587 2.416-.143 1.248-1.103 2.418-2.122 2.418-1.024 0-1.72-1.17-1.577-2.418.144-1.246 1.09-2.416 2.112-2.416zm3.077 5.406l.839-.019h.063l.646-4.556 2.21 4.556h.704l.818-5.874h-.795l-.67 4.237-2.049-4.237h-.818l-.948 5.893zm-17.922-6.112c.639 0 1.191.266 1.598.703l-.454.782a1.548 1.548 0 0 0-1.248-.62c-1.061 0-2.043 1.011-2.194 2.257-.149 1.248.589 2.257 1.649 2.257.526 0 1.035-.245 1.431-.649v.993c-.461.329-.988.521-1.535.521-1.467 0-2.489-1.396-2.283-3.122.208-1.719 1.569-3.122 3.036-3.122z"/><path stroke="#1B171B" stroke-width=".09" d="M87.486 61.635h71.671v44.703H87.486z"/><path fill="#005197" d="M23.458 94.198l3.295-20.361h5.264l-3.291 20.361zm24.355-19.863c-1.04-.412-2.687-.865-4.722-.865-5.199 0-8.864 2.772-8.884 6.736-.042 2.927 2.622 4.548 4.615 5.522 2.036 1.001 2.729 1.647 2.729 2.539-.021 1.362-1.647 1.99-3.161 1.99-2.103 0-3.229-.323-4.938-1.084l-.696-.323-.738 4.571c1.235.563 3.513 1.059 5.875 1.084 5.525 0 9.121-2.73 9.163-6.955.021-2.317-1.387-4.095-4.42-5.549-1.84-.928-2.969-1.559-2.969-2.513.023-.865.954-1.754 3.034-1.754 1.712-.044 2.968.368 3.922.779l.477.219.713-4.397zm6.998 12.649c.435-1.167 2.103-5.696 2.103-5.696-.023.041.433-1.188.693-1.95l.367 1.757s.996 4.874 1.215 5.89l-4.378-.001zm6.499-13.147h-4.071c-1.259 0-2.21.367-2.752 1.691l-7.824 18.67h5.525s.912-2.512 1.105-3.054h6.76c.151.717.63 3.054.63 3.054h4.874L61.31 73.837zm-42.248 0l-5.157 13.888-.563-2.819c-.954-3.247-3.943-6.781-7.279-8.532l4.723 17.805h5.569l8.277-20.341h-5.57v-.001z"/><path fill="#F6A800" d="M9.117 73.837H.644l-.086.412c6.609 1.691 10.985 5.762 12.783 10.656l-1.84-9.356c-.304-1.3-1.234-1.668-2.384-1.712z"/><g fill-rule="nonzero"><path fill="#0978BA" d="M252.313 61.405c12.51.061 23.927-10.202 23.927-22.686 0-13.651-11.417-23.088-23.927-23.083h-10.766c-12.658-.005-23.077 9.432-23.077 23.083 0 12.486 10.419 22.747 23.077 22.686h10.766z"/><path fill="#FFF" d="M241.6 17.529c-11.568.002-20.94 9.379-20.942 20.953.002 11.569 9.374 20.946 20.942 20.946 11.569 0 20.943-9.377 20.945-20.946-.002-11.574-9.376-20.951-20.945-20.953zm-13.279 20.953c.011-5.658 3.545-10.479 8.527-12.395v24.784c-4.982-1.915-8.516-6.736-8.527-12.389zm18.03 12.392V26.087c4.98 1.91 8.52 6.737 8.527 12.395-.008 5.658-3.547 10.479-8.527 12.392z"/><path fill="#0978BA" d="M252.313 61.405c12.51.061 23.927-10.202 23.927-22.686 0-13.651-11.417-23.088-23.927-23.083h-10.766c-12.658-.005-23.077 9.432-23.077 23.083 0 12.486 10.419 22.747 23.077 22.686h10.766z"/><path fill="#FFF" d="M241.6 17.529c-11.568.002-20.94 9.379-20.942 20.953.002 11.569 9.374 20.946 20.942 20.946 11.569 0 20.943-9.377 20.945-20.946-.002-11.574-9.376-20.951-20.945-20.953zm-13.279 20.953c.011-5.658 3.545-10.479 8.527-12.395v24.784c-4.982-1.915-8.516-6.736-8.527-12.389zm18.03 12.392V26.087c4.98 1.91 8.52 6.737 8.527 12.395-.008 5.658-3.547 10.479-8.527 12.392z"/><g fill="#211E1F"><path d="M192.742 65.667c0-2.166-1.128-2.022-2.209-2.049v-.623c.936.045 1.896.045 2.838.045 1.011 0 2.385-.045 4.162-.045 6.233 0 9.627 4.162 9.627 8.426 0 2.382-1.395 8.376-9.914 8.376-1.23 0-2.361-.047-3.492-.047-1.079 0-2.14.021-3.221.047v-.625c1.44-.146 2.142-.193 2.209-1.83V65.667zm2.362 11.289c0 1.856 1.324 2.069 2.502 2.069 5.197 0 6.904-3.925 6.904-7.511 0-4.498-2.886-7.751-7.529-7.751-.988 0-1.444.073-1.877.1v13.093zm12.9 2.216h.456c.675 0 1.155 0 1.155-.798v-6.521c0-1.058-.36-1.207-1.249-1.684v-.386c1.129-.341 2.479-.798 2.572-.865a.833.833 0 0 1 .433-.122c.123 0 .175.143.175.336v9.241c0 .798.523.798 1.201.798h.404v.625c-.815 0-1.657-.047-2.525-.047-.865 0-1.733.023-2.622.047v-.624zm2.575-14.084c-.626 0-1.178-.576-1.178-1.198 0-.604.578-1.16 1.178-1.16.625 0 1.178.509 1.178 1.16 0 .645-.528 1.198-1.178 1.198zm4.863 6.906c0-.891-.269-1.128-1.397-1.584v-.459c1.037-.336 2.018-.648 3.175-1.154.073 0 .141.049.141.239v1.563c1.381-.984 2.56-1.803 4.172-1.803 2.041 0 2.766 1.493 2.766 3.367v6.21c0 .798.531.798 1.204.798h.433v.625c-.845 0-1.688-.047-2.552-.047-.867 0-1.732.023-2.601.047v-.625h.433c.678 0 1.154 0 1.154-.798V72.14c0-1.371-.837-2.044-2.21-2.044-.771 0-1.999.626-2.799 1.157v7.12c0 .798.537.798 1.212.798h.43v.625c-.842 0-1.684-.047-2.549-.047-.87 0-1.735.023-2.601.047v-.625h.433c.675 0 1.157 0 1.157-.798v-6.379h-.001zm12.322 1.16c-.049.216-.049.576 0 1.395.141 2.288 1.616 4.164 3.534 4.164 1.329 0 2.364-.722 3.253-1.613l.338.342c-1.107 1.467-2.48 2.715-4.451 2.715-3.831 0-4.597-3.705-4.597-5.246 0-4.719 3.174-6.113 4.857-6.113 1.952 0 4.045 1.228 4.065 3.776 0 .151 0 .289-.021.435l-.219.146h-6.759v-.001zm4.261-.771c.602 0 .669-.315.669-.603 0-1.225-.745-2.215-2.093-2.215-1.467 0-2.476 1.081-2.77 2.817h4.194v.001zm3.296 6.789h.652c.667 0 1.149 0 1.149-.798v-6.76c0-.748-.889-.892-1.252-1.085v-.359c1.76-.745 2.719-1.373 2.94-1.373.144 0 .216.07.216.313v2.166h.047c.603-.938 1.616-2.479 3.081-2.479.604 0 1.376.409 1.376 1.274 0 .651-.459 1.229-1.131 1.229-.756 0-.756-.578-1.593-.578-.412 0-1.757.553-1.757 2.002v5.649c0 .798.479.798 1.155.798h1.345v.625c-1.321-.025-2.33-.047-3.365-.047-.987 0-1.999.023-2.864.047v-.624h.001zm9.268-2.721c.311 1.587 1.272 2.935 3.034 2.935 1.412 0 1.943-.865 1.943-1.707 0-2.841-5.243-1.927-5.243-5.799 0-1.351 1.084-3.083 3.732-3.083.766 0 1.801.216 2.738.698l.17 2.452h-.553c-.242-1.512-1.084-2.382-2.627-2.382-.962 0-1.874.555-1.874 1.59 0 2.819 5.583 1.949 5.583 5.729 0 1.589-1.277 3.272-4.137 3.272-.967 0-2.095-.333-2.939-.815l-.266-2.768.439-.122zm28.637-9.1h-.6c-.459-2.815-2.46-3.946-5.155-3.946-2.768 0-6.783 1.851-6.783 7.631 0 4.863 3.466 8.351 7.169 8.351 2.385 0 4.357-1.635 4.843-4.165l.552.146-.552 3.513c-1.014.628-3.732 1.276-5.324 1.276-5.633 0-9.192-3.633-9.192-9.053 0-4.932 4.404-8.471 9.122-8.471 1.949 0 3.825.626 5.681 1.277l.239 3.441zm.87 11.821h.453c.676 0 1.157 0 1.157-.798V64.969c0-1.564-.362-1.613-1.274-1.877v-.386c.962-.313 1.973-.745 2.479-1.037.261-.141.454-.264.526-.264.146 0 .198.144.198.339v16.63c0 .798.526.798 1.199.798h.406v.625c-.813 0-1.657-.047-2.525-.047-.862 0-1.728.023-2.624.047v-.625h.005zm15.449-.699c0 .436.264.459.673.459.289 0 .648-.023.964-.023v.506c-1.037.094-3.01.602-3.466.742l-.123-.072v-1.947c-1.441 1.181-2.549 2.02-4.261 2.02-1.301 0-2.648-.839-2.648-2.861v-6.163c0-.628-.094-1.23-1.44-1.348v-.458c.867-.023 2.788-.167 3.104-.167.271 0 .271.167.271.692v6.211c0 .725 0 2.797 2.087 2.797.821 0 1.902-.626 2.911-1.465v-6.479c0-.481-1.151-.747-2.017-.987v-.436c2.163-.141 3.513-.333 3.753-.333.192 0 .192.167.192.433v8.879zm4.79-7.944c.959-.818 2.262-1.732 3.586-1.732 2.794 0 4.475 2.432 4.475 5.056 0 3.15-2.306 6.304-5.757 6.304-1.777 0-2.71-.578-3.341-.839l-.72.55-.505-.263c.213-1.418.336-2.817.336-4.284V64.969c0-1.564-.362-1.613-1.277-1.877v-.386c.967-.313 1.973-.745 2.481-1.037.266-.141.456-.264.529-.264.146 0 .192.144.192.339v8.785h.001zm0 6.547c0 .915.865 2.455 2.481 2.455 2.574 0 3.653-2.528 3.653-4.67 0-2.599-1.97-4.765-3.847-4.765-.894 0-1.637.579-2.288 1.132v5.848h.001zM190.507 93.792h.183c.469 0 .969-.063.969-.745v-6.862c0-.683-.5-.748-.969-.748h-.183v-.391c.505 0 1.292.05 1.938.05.651 0 1.438-.05 2.054-.05v.391h-.183c-.469 0-.969.065-.969.748v6.862c0 .683.5.745.969.745h.183v.394c-.631 0-1.415-.05-2.069-.05-.641 0-1.418.05-1.923.05v-.394z"/><path d="M194.499 94.245c-.636 0-1.418-.057-2.069-.057-.641 0-1.41.057-1.923.057h-.058v-.512h.241c.474-.01.906-.047.909-.688v-6.862c-.003-.639-.436-.683-.909-.693h-.24v-.505h.058c.513 0 1.298.055 1.938.055.651 0 1.434-.055 2.054-.055h.061v.505h-.244c-.477.011-.909.055-.912.693v6.862c.003.641.436.678.912.688h.243v.511h-.061v.001zm-.058-.114v-.279h-.125c-.469 0-1.026-.083-1.026-.805v-6.862c0-.722.558-.806 1.026-.806h.125v-.275c-.604 0-1.36.047-1.996.047-.625 0-1.376-.045-1.881-.047v.275h.125c.464 0 1.021.084 1.021.806v6.862c0 .722-.558.805-1.021.805h-.125v.279c.505-.005 1.245-.055 1.865-.055.636 0 1.398.05 2.012.055zm9.055-2.528l.025-.021v-4.915c0-1.074-.75-1.23-1.136-1.23h-.292v-.391c.615 0 1.22.05 1.834.05.537 0 1.074-.05 1.611-.05v.391h-.193c-.558 0-1.173.104-1.173 1.663v5.96c0 .459.016.92.081 1.327h-.5l-6.742-7.521v5.396c0 1.14.224 1.53 1.232 1.53h.222v.394c-.565 0-1.126-.05-1.688-.05-.587 0-1.191.05-1.783.05v-.394h.188c.902 0 1.176-.615 1.176-1.66v-5.517c0-.73-.607-1.179-1.191-1.179h-.172v-.391c.501 0 1.012.05 1.507.05.391 0 .771-.05 1.165-.05l5.829 6.558z"/><path d="M204.254 94.438l-.545-.016-6.646-7.412v5.251c.021 1.14.193 1.46 1.181 1.473h.279v.511h-.058c-.565 0-1.131-.057-1.688-.057-.587 0-1.188.057-1.783.057h-.057v-.511h.245c.86-.005 1.11-.558 1.118-1.603v-5.515c-.002-.698-.573-1.123-1.134-1.126h-.229v-.503h.057c.501 0 1.012.053 1.507.053.386 0 .769-.053 1.209-.037l5.757 6.484v-4.821c-.008-1.04-.703-1.165-1.087-1.176h-.347v-.503h.061c.617 0 1.22.053 1.829.053.534 0 1.074-.053 1.613-.053h.06v.503h-.255c-.537.019-1.095.065-1.11 1.608v5.96c0 .456.016.92.078 1.313l.011.065h-.066v.002zm-.498-.114h.433a9.034 9.034 0 0 1-.067-1.265v-5.96c0-1.569.656-1.721 1.225-1.721h.136v-.275c-.516.002-1.037.047-1.559.047-.597 0-1.178-.045-1.772-.047v.275h.229c.404 0 1.196.178 1.196 1.288l-.013 4.951-.031.029-.042.039-5.824-6.583c-.389 0-.77.047-1.165.047-.485 0-.973-.045-1.449-.047v.275h.114c.613 0 1.246.47 1.246 1.236v5.514c0 1.048-.292 1.721-1.23 1.723l-.13-.002v.281c.568-.005 1.151-.055 1.726-.055.547 0 1.089.05 1.631.055v-.279h-.164c-1.034-.002-1.29-.45-1.29-1.59v-5.543l6.8 7.607zm-.26-2.721l.036-.036-.036.036zm-.029-.021v-.005l-.013-.011.013.016zm4.032-5.885c-.985 0-1.022.24-1.215 1.191h-.396c.055-.365.12-.732.157-1.113.052-.364.078-.729.078-1.11h.317c.104.392.433.381.787.381h6.755c.353 0 .683-.013.709-.406l.311.052c-.05.354-.102.709-.144 1.063-.023.349-.023.703-.023 1.056l-.394.148c-.026-.485-.091-1.262-.97-1.262h-2.147v6.969c0 1.012.459 1.126 1.087 1.126h.248v.394c-.511 0-1.431-.05-2.132-.05-.787 0-1.705.05-2.216.05v-.394h.25c.723 0 1.087-.065 1.087-1.1v-6.995h-2.149z"/><path d="M212.661 94.245c-.516 0-1.433-.057-2.134-.057-.787 0-1.699.057-2.216.057h-.058v-.511h.308c.723-.016 1.012-.025 1.03-1.042v-6.938h-2.093v-.116h2.202v7.053c0 1.053-.425 1.159-1.14 1.159h-.192v.276c.516-.002 1.396-.052 2.158-.052.68 0 1.559.05 2.074.052v-.276h-.19c-.633 0-1.144-.156-1.144-1.186v-7.026h2.204c.881.003.996.751 1.024 1.235l.279-.104c0-.339 0-.684.028-1.029.039-.337.086-.67.133-1.004l-.198-.034c-.063.384-.428.401-.761.399h-6.817c-.308 0-.646-.016-.764-.384h-.217c0 .362-.025.715-.075 1.062-.039.359-.097.708-.148 1.053h.281c.172-.912.284-1.207 1.262-1.194v.116c-.965.019-.946.183-1.16 1.151l-.013.042h-.503l.008-.067c.052-.368.117-.73.156-1.115.058-.362.083-.725.083-1.101v-.057h.414l.008.039c.089.333.334.333.668.339h6.817c.365-.006.631-.014.656-.353l.003-.063.061.014.369.06-.01.055c-.053.352-.104.704-.141 1.056-.026.349-.026.703-.026 1.056v.041l-.036.019-.464.164-.003-.075c-.034-.49-.089-1.204-.915-1.204h-2.09v6.911c.011.988.401 1.056 1.029 1.068h.308v.511h-.055zm2.76-.453h.186c.469 0 .97-.063.97-.745v-6.862c0-.683-.501-.748-.97-.748h-.186v-.391c.798 0 2.163.05 3.258.05 1.105 0 2.463-.05 3.352-.05-.021.563-.011 1.428.028 2.001l-.393.104c-.063-.85-.22-1.532-1.596-1.532h-1.818v3.435h1.558c.782 0 .954-.448 1.032-1.157h.396a27.225 27.225 0 0 0 0 3.029l-.396.078c-.078-.787-.114-1.293-1.021-1.293h-1.568v3.047c0 .852.756.852 1.598.852 1.571 0 2.262-.106 2.658-1.6l.367.094a26.972 26.972 0 0 0-.448 2.082c-.837 0-2.346-.05-3.523-.05-1.179 0-2.731.05-3.482.05v-.394h-.002z"/><path d="M222.427 94.245c-.839 0-2.346-.057-3.523-.057-1.179 0-2.731.057-3.482.057h-.052v-.512h.238c.472-.005.904-.047.909-.688v-6.862c-.005-.639-.438-.68-.909-.693h-.237v-.503h.052c.798 0 2.161.053 3.258.053 1.105 0 2.463-.053 3.352-.053h.061l-.003.058c-.005.195-.011.43-.011.675 0 .453.011.951.037 1.326l.005.045-.047.013-.461.12-.003-.067c-.076-.85-.188-1.468-1.538-1.478h-1.764l-.003 3.317h1.504c.756-.014.889-.396.982-1.105v-.047h.5v.055a34.039 34.039 0 0 0-.039 1.53c0 .5.016.995.039 1.493v.047l-.044.011-.456.091v-.063c-.094-.798-.1-1.235-.97-1.246l-1.514-.002v2.997c0 .795.686.789 1.543.795 1.576-.011 2.207-.086 2.601-1.557l.016-.052.055.011.417.106-.011.058a26.506 26.506 0 0 0-.442 2.077l-.014.049h-.046v.001zm-.047-.117c.114-.661.261-1.321.422-1.983l-.258-.064c-.389 1.465-1.152 1.598-2.697 1.587-.823 0-1.652 0-1.655-.909V89.65h1.629c.912-.008 1.006.545 1.071 1.29l.284-.06a28.124 28.124 0 0 1 0-2.925h-.284c-.073.683-.287 1.163-1.084 1.152h-1.616v-3.545h1.879c1.36-.008 1.59.696 1.645 1.522L222 87a23.552 23.552 0 0 1-.036-1.279c0-.222.005-.433.01-.617-.889.002-2.215.047-3.294.047-1.076 0-2.397-.045-3.2-.047v.275h.128c.461 0 1.019.084 1.024.806v6.862c-.006.722-.563.803-1.024.805h-.128v.276c.761-.002 2.277-.052 3.425-.052 1.156 0 2.627.05 3.475.052zm2.259-7.695c0-.954-.521-.996-.93-.996h-.234v-.391c.422 0 1.229.05 2.027.05.787 0 1.418-.05 2.108-.05 1.649 0 3.114.443 3.114 2.304 0 1.176-.782 1.897-1.814 2.307l2.236 3.349c.37.553.628.714 1.271.787v.394c-.432 0-.854-.05-1.281-.05-.412 0-.829.05-1.233.05-1.006-1.321-1.874-2.733-2.726-4.245h-.863v2.807c0 1.009.475 1.045 1.074 1.045h.234v.394c-.745 0-1.501-.05-2.252-.05-.63 0-1.245.05-1.896.05v-.394h.234c.487 0 .93-.222.93-.704v-6.657h.001zm1.675 3.038h.645c1.308 0 2.014-.497 2.014-2.043 0-1.165-.745-1.913-1.912-1.913-.396 0-.558.042-.746.053v3.903h-.001z"/><path d="M232.418 94.245c-.438 0-.857-.057-1.287-.057-.398 0-.815.057-1.271.031-1.006-1.316-1.866-2.724-2.716-4.22h-.771v2.744c.013.985.409.978 1.012.99h.297v.511h-.058c-.745 0-1.509-.057-2.252-.057-.625 0-1.24.057-1.896.057h-.058v-.511h.292c.469-.002.87-.205.87-.646v-6.655c-.008-.931-.464-.928-.87-.938h-.292v-.508h.058c.422 0 1.229.055 2.027.055.781 0 1.412-.055 2.111-.055 1.646.002 3.171.461 3.174 2.363 0 1.184-.782 1.918-1.793 2.33l2.202 3.297c.362.542.594.678 1.232.758l.045.011v.5h-.056zm-6.104-4.357h.895l.018.026c.85 1.504 1.713 2.919 2.677 4.217.404 0 .821-.055 1.228-.055.422 0 .824.044 1.23.052v-.284c-.615-.078-.902-.26-1.262-.808l-2.277-3.409.063-.025c1.026-.401 1.782-1.103 1.787-2.257-.005-1.814-1.415-2.236-3.059-2.241-.691 0-1.319.052-2.111.052-.769 0-1.543-.05-1.973-.052v.275h.18c.406 0 .987.068.987 1.054v6.655c0 .527-.492.764-.987.767h-.18v.273c.631-.002 1.228-.052 1.842-.052.73 0 1.471.05 2.194.052v-.273h-.182c-.595-.003-1.124-.078-1.124-1.11v-2.856h.054v-.001zm0-.363h-.055v-4.011l.045-.002c.183-.014.359-.053.756-.053 1.19 0 1.968.774 1.97 1.968-.005 1.569-.75 2.096-2.071 2.098h-.645zm.645-.111c1.292-.011 1.946-.464 1.959-1.986-.008-1.142-.719-1.851-1.857-1.855-.354 0-.521.031-.688.047v3.795h.586v-.001zm14.349 2.189l.029-.021v-4.915c0-1.074-.748-1.23-1.142-1.23h-.287v-.391c.612 0 1.215.05 1.832.05.537 0 1.071-.05 1.613-.05v.391h-.197c-.551 0-1.165.104-1.165 1.663v5.96c0 .459.013.92.075 1.327h-.495l-6.742-7.521v5.396c0 1.14.222 1.53 1.228 1.53h.225v.394c-.563 0-1.129-.05-1.689-.05-.592 0-1.193.05-1.779.05v-.394h.18c.904 0 1.178-.615 1.178-1.66v-5.517c0-.73-.6-1.179-1.188-1.179h-.169v-.391c.492 0 1.006.05 1.503.05.392 0 .771-.05 1.168-.05l5.822 6.558z"/><path d="M242.066 94.438l-.539-.016-6.646-7.412v5.249c.016 1.142.186 1.462 1.176 1.475h.279v.511h-.058c-.568 0-1.129-.057-1.688-.057-.587 0-1.191.057-1.777.057h-.061v-.511h.241c.862-.002 1.109-.558 1.12-1.61v-5.509c-.003-.699-.576-1.121-1.131-1.124h-.229v-.505h.061c.497 0 1.008.055 1.503.055.384 0 .764-.055 1.204-.037l5.755 6.484v-4.821c-.003-1.04-.701-1.168-1.079-1.176h-.35v-.505h.063c.615 0 1.22.055 1.832.055.535 0 1.071-.055 1.608-.055h.06v.505h-.252c-.543.014-1.095.065-1.11 1.608v5.96c0 .456.01.909.078 1.316l.005.063h-.065zm-.495-.114h.428a8.88 8.88 0 0 1-.068-1.265v-5.96c0-1.569.662-1.718 1.226-1.721h.135v-.275c-.511.002-1.029.047-1.551.047-.602 0-1.186-.045-1.777-.047v.275h.232c.401.003 1.198.178 1.198 1.288l-.021 4.951-.026.029-.039.039-5.829-6.583c-.386 0-.767.047-1.163.047-.484 0-.977-.045-1.454-.047v.275h.12c.615.003 1.246.467 1.246 1.236v5.509c0 1.059-.298 1.726-1.235 1.728h-.131v.276c.568-.002 1.152-.052 1.729-.052.55 0 1.092.05 1.634.052v-.276h-.167c-1.029 0-1.287-.45-1.293-1.592v-5.541l6.806 7.607zm-.263-2.721l.039-.036-.039.036zm-.034-.021v-.005l-.006-.011.006.016zm4.186.73c-.136.446-.292.79-.292 1.024 0 .394.553.456.979.456h.146v.394c-.521-.023-1.059-.05-1.585-.05-.472 0-.938.026-1.412.05v-.394h.078c.511 0 .943-.297 1.136-.853l2.099-6.007c.169-.487.408-1.144.487-1.626a6.856 6.856 0 0 0 1.188-.563c.042-.01.065-.028.11-.028.036 0 .063 0 .088.042.037.102.078.224.12.325l2.408 6.854c.159.453.313.938.484 1.334.156.368.431.521.865.521h.078v.394c-.594-.023-1.181-.05-1.806-.05-.644 0-1.298.026-1.968.05v-.394h.146c.303 0 .809-.052.809-.378 0-.172-.115-.523-.261-.94l-.508-1.524h-2.974l-.415 1.363zm1.907-5.801h-.023l-1.217 3.706h2.449l-1.209-3.706z"/><path d="M252.434 94.245a33.758 33.758 0 0 0-1.801-.057c-.644 0-1.293.025-1.968.057h-.058v-.513h.204c.303 0 .751-.065.751-.318.008-.148-.114-.508-.258-.925l-.498-1.485h-2.888l-.406 1.329c-.136.448-.289.786-.289 1.003.005.32.492.396.925.396h.203v.513h-.057a27.185 27.185 0 0 0-1.58-.057c-.469 0-.943.025-1.412.057h-.063v-.513h.136c.487 0 .891-.279 1.084-.811l2.095-6.01c.173-.487.407-1.139.524-1.66a6.632 6.632 0 0 0 1.186-.565c.036-.011.073-.029.131-.029.028 0 .099.008.141.078.041.107.078.222.114.331l2.416 6.85c.153.456.31.94.482 1.329.15.349.394.487.813.489h.136v.511h-.063zm-3.711-.119c.651-.023 1.282-.05 1.91-.05.607 0 1.176.026 1.743.05v-.274h-.016c-.448.003-.758-.174-.92-.56a18.14 18.14 0 0 1-.484-1.343l-2.411-6.846c-.041-.104-.078-.225-.109-.318-.013-.011-.01-.011-.021-.011h-.021c-.029 0-.045.006-.078.016a4.737 4.737 0 0 1-1.165.521c-.081.498-.315 1.152-.487 1.637l-2.096 6.01c-.203.571-.662.896-1.193.894h-.021v.274c.451-.023.904-.05 1.36-.05.501 0 1.022.026 1.52.05v-.274h-.086c-.422-.008-1.021-.055-1.037-.516 0-.264.161-.597.292-1.037l.058.016-.058-.019.428-1.401h3.057l.526 1.558c.144.423.266.767.266.962-.023.401-.573.43-.868.438h-.088v.273h-.001zm-2.68-3.853l1.257-3.82h.072v.058l-.016.002.016-.002v-.058h.037l1.24 3.82h-2.606zm.162-.114h2.291l-1.14-3.508-1.151 3.508zm1.108-3.633l.031-.008-.031.008zm5.699-.829c-.982 0-1.021.24-1.219 1.191h-.392c.053-.365.12-.732.156-1.113.053-.364.081-.729.081-1.11h.311c.109.392.438.381.787.381h6.76c.352 0 .678-.013.709-.406l.313.052c-.052.354-.104.709-.141 1.063-.031.349-.031.703-.031 1.056l-.391.148c-.026-.485-.092-1.262-.97-1.262h-2.147v6.969c0 1.012.459 1.126 1.087 1.126h.247v.394c-.511 0-1.423-.05-2.134-.05-.784 0-1.702.05-2.213.05v-.394h.245c.725 0 1.095-.065 1.095-1.1v-6.995h-2.153z"/><path d="M258.172 94.245c-.516 0-1.431-.057-2.134-.057-.779 0-1.696.057-2.213.057h-.058v-.511h.303c.725-.016 1.014-.025 1.032-1.042v-6.938h-2.091v-.116h2.205v7.053c0 1.053-.422 1.157-1.146 1.159h-.19v.279c.519-.005 1.399-.055 2.158-.055.686 0 1.556.05 2.077.055v-.279h-.193c-.628-.002-1.142-.156-1.142-1.186v-7.026h2.205c.878.003.995.751 1.019 1.235l.287-.104c0-.339 0-.684.023-1.027.036-.339.089-.672.136-1.006l-.198-.034c-.058.384-.433.401-.756.399h-6.823c-.308.002-.646-.016-.764-.386h-.212a8.379 8.379 0 0 1-.083 1.063c-.034.364-.099.708-.146 1.053h.275c.173-.912.29-1.207 1.267-1.194v.116c-.969.016-.948.183-1.162 1.151l-.01.042h-.506l.01-.065c.053-.37.118-.732.154-1.112.06-.367.083-.729.083-1.105v-.057h.412l.013.039c.089.333.329.333.668.339l.063.002h6.76c.359-.008.626-.016.646-.354l.005-.063.061.014.375.06-.013.055c-.053.352-.104.704-.141 1.056-.026.349-.026.703-.026 1.058v.039l-.037.019-.466.167-.003-.078c-.034-.49-.086-1.204-.912-1.204h-2.09v6.911c.01.988.403 1.056 1.026 1.068h.305v.511h-.053v-.001zm2.831-.453h.177c.477 0 .97-.063.97-.745v-6.862c0-.683-.493-.748-.97-.748h-.177v-.391c.505 0 1.292.05 1.934.05.656 0 1.438-.05 2.059-.05v.391h-.183c-.469 0-.975.065-.975.748v6.862c0 .683.506.745.975.745h.183v.394c-.631 0-1.418-.05-2.069-.05-.641 0-1.418.05-1.923.05v-.394h-.001z"/><path d="M264.995 94.245c-.636 0-1.418-.057-2.069-.057-.641 0-1.418.057-1.923.057h-.061v-.512h.238c.477-.005.909-.047.912-.688v-6.862c-.003-.639-.436-.683-.912-.693h-.237v-.503h.061c.505 0 1.292.053 1.934.053.651 0 1.438-.053 2.059-.053h.052v.503h-.235c-.479.011-.909.055-.917.693v6.862c.008.641.438.683.917.688h.234v.511h-.053v.001zm-.057-.117v-.276h-.125c-.469 0-1.026-.083-1.026-.805v-6.862c0-.722.558-.806 1.026-.806h.125v-.275c-.609.002-1.365.047-2.001.047-.62 0-1.371-.045-1.882-.047v.275h.13c.464 0 1.022.084 1.022.806v6.862c0 .722-.559.805-1.022.805h-.13v.276c.506-.008 1.248-.052 1.871-.052.631 0 1.391.05 2.012.052zm5.28-9.28c2.791 0 5.017 1.733 5.017 4.52 0 3.018-2.16 5.02-4.951 5.02-2.775 0-4.897-1.89-4.897-4.707-.001-2.722 2.105-4.833 4.831-4.833zm.198 8.96c2.538 0 2.981-2.241 2.981-4.151 0-1.916-1.032-4.232-3.206-4.232-2.293 0-2.971 2.043-2.971 3.797.001 2.344 1.075 4.586 3.196 4.586z"/><path d="M265.326 89.68c.008-2.755 2.14-4.884 4.892-4.89v.116c-2.694 0-4.774 2.079-4.779 4.774.008 2.788 2.095 4.645 4.845 4.645 2.763 0 4.892-1.976 4.896-4.96-.005-2.755-2.194-4.454-4.962-4.459v-.116c2.813.003 5.066 1.752 5.071 4.574-.005 3.047-2.191 5.069-5.006 5.074-2.802-.004-4.949-1.91-4.957-4.758zm1.837-.459c0-1.762.691-3.857 3.028-3.857 2.224.006 3.264 2.367 3.266 4.293-.002 1.91-.456 4.203-3.041 4.203v-.11c2.488-.002 2.919-2.184 2.93-4.094 0-1.9-1.027-4.173-3.154-4.178-2.246.005-2.913 1.999-2.919 3.742.006 2.333 1.069 4.524 3.144 4.529v.11c-2.175 0-3.254-2.277-3.254-4.638zm16.894 2.382l.025-.021v-4.915c0-1.074-.745-1.23-1.141-1.23h-.284v-.391c.617 0 1.217.05 1.832.05.536 0 1.076-.05 1.613-.05v.391h-.198c-.55 0-1.165.104-1.165 1.663v5.96c0 .459.011.92.075 1.327h-.497l-6.742-7.521v5.396c0 1.14.222 1.53 1.228 1.53h.227v.394c-.565 0-1.123-.05-1.688-.05-.587 0-1.196.05-1.783.05v-.394h.186c.906 0 1.178-.615 1.178-1.66v-5.517c0-.73-.603-1.179-1.193-1.179h-.17v-.391c.498 0 1.009.05 1.504.05.396 0 .771-.05 1.168-.05l5.825 6.558z"/><path d="M284.817 94.438l-.542-.016-6.641-7.412v5.251c.011 1.14.183 1.46 1.168 1.471h.286v.513h-.06c-.565 0-1.129-.057-1.688-.057-.587 0-1.188.057-1.783.057h-.055v-.513h.241c.862 0 1.11-.556 1.12-1.601v-5.517c0-.699-.573-1.121-1.136-1.124h-.225v-.503h.055c.503 0 1.012.053 1.504.053.391 0 .767-.053 1.209-.037l5.755 6.484v-4.821c-.003-1.04-.701-1.165-1.084-1.173h-.341v-.506h.058c.617 0 1.22.053 1.829.053.537 0 1.071-.053 1.616-.053h.057v.506h-.255c-.537.016-1.098.063-1.107 1.605v5.96c0 .456.01.915.072 1.316l.011.063h-.064v.001zm-.5-.114h.433a8.88 8.88 0 0 1-.068-1.265v-5.96c0-1.574.662-1.718 1.223-1.721h.144v-.275c-.519.002-1.032.047-1.559.047-.597 0-1.184-.045-1.772-.047v.275h.225c.406.003 1.198.183 1.198 1.288l-.016 4.951-.026.029-.041.039-5.827-6.583c-.386 0-.767.047-1.168.047-.479 0-.97-.045-1.446-.047v.275h.112c.614.003 1.251.467 1.251 1.236v5.517c0 1.045-.292 1.718-1.235 1.72h-.128v.276c.565-.002 1.149-.052 1.726-.052.544 0 1.086.05 1.631.052v-.276h-.169c-1.027 0-1.282-.45-1.282-1.59v-5.543l6.794 7.607zm-.26-2.721l.041-.036-.041.036zm-.032-.021v-.005l-.011-.011.011.016zm4.18.73c-.125.446-.286.79-.286 1.024 0 .394.552.456.979.456h.148v.394c-.523-.023-1.065-.05-1.587-.05-.472 0-.943.026-1.41.05v-.394h.073c.514 0 .946-.297 1.139-.853l2.101-6.007c.17-.487.404-1.144.485-1.626a7.039 7.039 0 0 0 1.188-.563c.037-.01.065-.028.104-.028.037 0 .065 0 .094.042.037.102.078.224.117.325l2.408 6.854c.159.453.311.938.485 1.334.158.368.435.521.867.521h.073v.394c-.586-.023-1.176-.05-1.806-.05-.639 0-1.293.026-1.963.05v-.394h.146c.297 0 .811-.052.811-.378 0-.172-.118-.523-.264-.94l-.511-1.524h-2.971l-.42 1.363zm1.913-5.801h-.023l-1.217 3.706h2.444l-1.204-3.706z"/><path d="M295.185 94.245c-.594-.028-1.181-.057-1.806-.057-.639 0-1.293.028-1.96.057h-.061v-.511h.199c.308 0 .759-.067.759-.32.003-.148-.117-.503-.264-.925l-.495-1.485h-2.893l-.404 1.329c-.133.448-.286.786-.284 1.003 0 .32.49.398.923.398h.198v.511h-.058c-.521-.028-1.058-.057-1.579-.057-.469 0-.94.028-1.41.057h-.06v-.511h.133c.487-.002.896-.281 1.087-.813l2.095-6.01c.173-.487.407-1.139.52-1.66.414-.144.94-.404 1.19-.565.036-.011.073-.026.125-.026a.151.151 0 0 1 .146.075c.036.104.072.222.119.331l2.408 6.85c.156.456.313.94.482 1.331.153.347.394.485.811.487h.138v.511h-.059zm-3.716-.119c.646-.023 1.287-.05 1.91-.05.612 0 1.181.026 1.754.05l-.006-.274h-.021c-.443.003-.751-.174-.912-.56-.177-.396-.334-.881-.484-1.34l-2.414-6.849c-.039-.104-.078-.225-.111-.315-.008-.014-.008-.014-.019-.014h-.026c-.025 0-.039.006-.073.016-.255.162-.778.423-1.167.521-.083.498-.318 1.152-.487 1.637l-2.101 6.01c-.195.571-.654.896-1.188.894h-.021v.274c.45-.023.901-.05 1.357-.05.506 0 1.026.026 1.527.05v-.274h-.089c-.425-.008-1.021-.049-1.037-.516.003-.264.164-.594.292-1.037l.052.016-.052-.019.43-1.401h3.055l.523 1.558c.146.423.267.767.267.962-.021.401-.568.43-.871.438h-.088v.273zm-2.672-3.853l1.256-3.82h.065v.058l-.016.002.016-.002v-.058h.044l1.238 3.82h-2.603zm.154-.114h2.293l-1.142-3.508-1.151 3.508zm1.115-3.633l.025-.008-.025.008zm8.423 6.377c0 .524.359.681.782.735a9.433 9.433 0 0 0 1.73-.029c.547-.067 1.021-.38 1.253-.706.211-.289.331-.654.409-.946h.381c-.146.748-.328 1.483-.487 2.229-1.149 0-2.307-.05-3.453-.05-1.157 0-2.304.05-3.461.05v-.394h.183c.474 0 .984-.063.984-.876v-6.731c0-.683-.511-.748-.984-.748h-.183v-.391c.693 0 1.376.05 2.069.05.672 0 1.323-.05 1.996-.05v.391h-.334c-.497 0-.886.016-.886.709v6.757h.001z"/><path d="M302.558 94.245c-1.152 0-2.307-.057-3.453-.057-1.157 0-2.31.057-3.464.057h-.052v-.511h.238c.474-.01.922-.041.928-.818v-6.734c-.006-.636-.451-.68-.928-.69h-.237v-.503h.052c.698 0 1.381.053 2.072.053.667 0 1.321-.053 1.996-.053h.05v.503h-.384c-.505.014-.823-.008-.834.654v6.758c.006.487.323.618.732.675a9.474 9.474 0 0 0 1.721-.026c.534-.058.99-.37 1.219-.684.201-.275.315-.636.394-.922l.011-.045h.495l-.011.068c-.15.75-.33 1.482-.489 2.228l-.011.047h-.045zm-.045-.117c.151-.711.323-1.404.464-2.113h-.273c-.078.284-.195.636-.401.923-.245.339-.729.656-1.3.729a10.115 10.115 0 0 1-1.736.027c-.428-.05-.842-.229-.839-.79v-6.758c0-.729.459-.767.948-.767h.271v-.275c-.644.002-1.282.052-1.934.052-.678 0-1.34-.05-2.013-.052v.275h.126c.466 0 1.037.084 1.037.803v6.734c0 .848-.571.936-1.037.936h-.126v.276c1.132-.002 2.263-.052 3.404-.052 1.136 0 2.273.05 3.409.052zm.37-9.457c.79 0 1.382.609 1.382 1.386 0 .771-.592 1.374-1.382 1.374a1.35 1.35 0 0 1-1.376-1.374c0-.777.587-1.386 1.376-1.386zm0 2.507c.615 0 1.092-.531 1.092-1.121 0-.594-.469-1.128-1.092-1.128-.62 0-1.094.534-1.094 1.128 0 .589.474 1.121 1.094 1.121zm-.686-.397v-.067c.17-.021.201-.019.201-.12v-1.021c0-.146-.016-.195-.193-.188v-.068h.704c.242 0 .464.115.464.363 0 .205-.133.359-.323.419l.225.313c.106.146.224.282.305.329v.041h-.269c-.128 0-.24-.271-.495-.636h-.151v.459c0 .091.031.089.201.109v.067h-.669zm.467-.724h.162c.177 0 .26-.135.26-.354 0-.22-.13-.298-.271-.298h-.151v.652zm-109.922-20.39c0-2.166-1.128-2.022-2.209-2.049v-.623c.936.045 1.896.045 2.838.045 1.011 0 2.385-.045 4.162-.045 6.233 0 9.627 4.162 9.627 8.426 0 2.382-1.395 8.376-9.914 8.376-1.23 0-2.361-.047-3.492-.047-1.079 0-2.14.021-3.221.047v-.625c1.44-.146 2.142-.193 2.209-1.83V65.667zm2.362 11.289c0 1.856 1.324 2.069 2.502 2.069 5.197 0 6.904-3.925 6.904-7.511 0-4.498-2.886-7.751-7.529-7.751-.988 0-1.444.073-1.877.1v13.093zm12.9 2.216h.456c.675 0 1.155 0 1.155-.798v-6.521c0-1.058-.36-1.207-1.249-1.684v-.386c1.129-.341 2.479-.798 2.572-.865a.833.833 0 0 1 .433-.122c.123 0 .175.143.175.336v9.241c0 .798.523.798 1.201.798h.404v.625c-.815 0-1.657-.047-2.525-.047-.865 0-1.733.023-2.622.047v-.624zm2.575-14.084c-.626 0-1.178-.576-1.178-1.198 0-.604.578-1.16 1.178-1.16.625 0 1.178.509 1.178 1.16 0 .645-.528 1.198-1.178 1.198zm4.863 6.906c0-.891-.269-1.128-1.397-1.584v-.459c1.037-.336 2.018-.648 3.175-1.154.073 0 .141.049.141.239v1.563c1.381-.984 2.56-1.803 4.172-1.803 2.041 0 2.766 1.493 2.766 3.367v6.21c0 .798.531.798 1.204.798h.433v.625c-.845 0-1.688-.047-2.552-.047-.867 0-1.732.023-2.601.047v-.625h.433c.678 0 1.154 0 1.154-.798V72.14c0-1.371-.837-2.044-2.21-2.044-.771 0-1.999.626-2.799 1.157v7.12c0 .798.537.798 1.212.798h.43v.625c-.842 0-1.684-.047-2.549-.047-.87 0-1.735.023-2.601.047v-.625h.433c.675 0 1.157 0 1.157-.798v-6.379h-.001zm12.322 1.16c-.049.216-.049.576 0 1.395.141 2.288 1.616 4.164 3.534 4.164 1.329 0 2.364-.722 3.253-1.613l.338.342c-1.107 1.467-2.48 2.715-4.451 2.715-3.831 0-4.597-3.705-4.597-5.246 0-4.719 3.174-6.113 4.857-6.113 1.952 0 4.045 1.228 4.065 3.776 0 .151 0 .289-.021.435l-.219.146h-6.759v-.001zm4.261-.771c.602 0 .669-.315.669-.603 0-1.225-.745-2.215-2.093-2.215-1.467 0-2.476 1.081-2.77 2.817h4.194v.001zm3.296 6.789h.652c.667 0 1.149 0 1.149-.798v-6.76c0-.748-.889-.892-1.252-1.085v-.359c1.76-.745 2.719-1.373 2.94-1.373.144 0 .216.07.216.313v2.166h.047c.603-.938 1.616-2.479 3.081-2.479.604 0 1.376.409 1.376 1.274 0 .651-.459 1.229-1.131 1.229-.756 0-.756-.578-1.593-.578-.412 0-1.757.553-1.757 2.002v5.649c0 .798.479.798 1.155.798h1.345v.625c-1.321-.025-2.33-.047-3.365-.047-.987 0-1.999.023-2.864.047v-.624h.001zm9.268-2.721c.311 1.587 1.272 2.935 3.034 2.935 1.412 0 1.943-.865 1.943-1.707 0-2.841-5.243-1.927-5.243-5.799 0-1.351 1.084-3.083 3.732-3.083.766 0 1.801.216 2.738.698l.17 2.452h-.553c-.242-1.512-1.084-2.382-2.627-2.382-.962 0-1.874.555-1.874 1.59 0 2.819 5.583 1.949 5.583 5.729 0 1.589-1.277 3.272-4.137 3.272-.967 0-2.095-.333-2.939-.815l-.266-2.768.439-.122zm28.637-9.1h-.6c-.459-2.815-2.46-3.946-5.155-3.946-2.768 0-6.783 1.851-6.783 7.631 0 4.863 3.466 8.351 7.169 8.351 2.385 0 4.357-1.635 4.843-4.165l.552.146-.552 3.513c-1.014.628-3.732 1.276-5.324 1.276-5.633 0-9.192-3.633-9.192-9.053 0-4.932 4.404-8.471 9.122-8.471 1.949 0 3.825.626 5.681 1.277l.239 3.441zm.87 11.821h.453c.676 0 1.157 0 1.157-.798V64.969c0-1.564-.362-1.613-1.274-1.877v-.386c.962-.313 1.973-.745 2.479-1.037.261-.141.454-.264.526-.264.146 0 .198.144.198.339v16.63c0 .798.526.798 1.199.798h.406v.625c-.813 0-1.657-.047-2.525-.047-.862 0-1.728.023-2.624.047v-.625h.005zm15.449-.699c0 .436.264.459.673.459.289 0 .648-.023.964-.023v.506c-1.037.094-3.01.602-3.466.742l-.123-.072v-1.947c-1.441 1.181-2.549 2.02-4.261 2.02-1.301 0-2.648-.839-2.648-2.861v-6.163c0-.628-.094-1.23-1.44-1.348v-.458c.867-.023 2.788-.167 3.104-.167.271 0 .271.167.271.692v6.211c0 .725 0 2.797 2.087 2.797.821 0 1.902-.626 2.911-1.465v-6.479c0-.481-1.151-.747-2.017-.987v-.436c2.163-.141 3.513-.333 3.753-.333.192 0 .192.167.192.433v8.879zm4.79-7.944c.959-.818 2.262-1.732 3.586-1.732 2.794 0 4.475 2.432 4.475 5.056 0 3.15-2.306 6.304-5.757 6.304-1.777 0-2.71-.578-3.341-.839l-.72.55-.505-.263c.213-1.418.336-2.817.336-4.284V64.969c0-1.564-.362-1.613-1.277-1.877v-.386c.967-.313 1.973-.745 2.481-1.037.266-.141.456-.264.529-.264.146 0 .192.144.192.339v8.785h.001zm0 6.547c0 .915.865 2.455 2.481 2.455 2.574 0 3.653-2.528 3.653-4.67 0-2.599-1.97-4.765-3.847-4.765-.894 0-1.637.579-2.288 1.132v5.848h.001zM190.507 93.792h.183c.469 0 .969-.063.969-.745v-6.862c0-.683-.5-.748-.969-.748h-.183v-.391c.505 0 1.292.05 1.938.05.651 0 1.438-.05 2.054-.05v.391h-.183c-.469 0-.969.065-.969.748v6.862c0 .683.5.745.969.745h.183v.394c-.631 0-1.415-.05-2.069-.05-.641 0-1.418.05-1.923.05v-.394z"/><path d="M194.499 94.245c-.636 0-1.418-.057-2.069-.057-.641 0-1.41.057-1.923.057h-.058v-.512h.241c.474-.01.906-.047.909-.688v-6.862c-.003-.639-.436-.683-.909-.693h-.24v-.505h.058c.513 0 1.298.055 1.938.055.651 0 1.434-.055 2.054-.055h.061v.505h-.244c-.477.011-.909.055-.912.693v6.862c.003.641.436.678.912.688h.243v.511h-.061v.001zm-.058-.114v-.279h-.125c-.469 0-1.026-.083-1.026-.805v-6.862c0-.722.558-.806 1.026-.806h.125v-.275c-.604 0-1.36.047-1.996.047-.625 0-1.376-.045-1.881-.047v.275h.125c.464 0 1.021.084 1.021.806v6.862c0 .722-.558.805-1.021.805h-.125v.279c.505-.005 1.245-.055 1.865-.055.636 0 1.398.05 2.012.055zm9.055-2.528l.025-.021v-4.915c0-1.074-.75-1.23-1.136-1.23h-.292v-.391c.615 0 1.22.05 1.834.05.537 0 1.074-.05 1.611-.05v.391h-.193c-.558 0-1.173.104-1.173 1.663v5.96c0 .459.016.92.081 1.327h-.5l-6.742-7.521v5.396c0 1.14.224 1.53 1.232 1.53h.222v.394c-.565 0-1.126-.05-1.688-.05-.587 0-1.191.05-1.783.05v-.394h.188c.902 0 1.176-.615 1.176-1.66v-5.517c0-.73-.607-1.179-1.191-1.179h-.172v-.391c.501 0 1.012.05 1.507.05.391 0 .771-.05 1.165-.05l5.829 6.558z"/><path d="M204.254 94.438l-.545-.016-6.646-7.412v5.251c.021 1.14.193 1.46 1.181 1.473h.279v.511h-.058c-.565 0-1.131-.057-1.688-.057-.587 0-1.188.057-1.783.057h-.057v-.511h.245c.86-.005 1.11-.558 1.118-1.603v-5.515c-.002-.698-.573-1.123-1.134-1.126h-.229v-.503h.057c.501 0 1.012.053 1.507.053.386 0 .769-.053 1.209-.037l5.757 6.484v-4.821c-.008-1.04-.703-1.165-1.087-1.176h-.347v-.503h.061c.617 0 1.22.053 1.829.053.534 0 1.074-.053 1.613-.053h.06v.503h-.255c-.537.019-1.095.065-1.11 1.608v5.96c0 .456.016.92.078 1.313l.011.065h-.066v.002zm-.498-.114h.433a9.034 9.034 0 0 1-.067-1.265v-5.96c0-1.569.656-1.721 1.225-1.721h.136v-.275c-.516.002-1.037.047-1.559.047-.597 0-1.178-.045-1.772-.047v.275h.229c.404 0 1.196.178 1.196 1.288l-.013 4.951-.031.029-.042.039-5.824-6.583c-.389 0-.77.047-1.165.047-.485 0-.973-.045-1.449-.047v.275h.114c.613 0 1.246.47 1.246 1.236v5.514c0 1.048-.292 1.721-1.23 1.723l-.13-.002v.281c.568-.005 1.151-.055 1.726-.055.547 0 1.089.05 1.631.055v-.279h-.164c-1.034-.002-1.29-.45-1.29-1.59v-5.543l6.8 7.607zm-.26-2.721l.036-.036-.036.036zm-.029-.021v-.005l-.013-.011.013.016zm4.032-5.885c-.985 0-1.022.24-1.215 1.191h-.396c.055-.365.12-.732.157-1.113.052-.364.078-.729.078-1.11h.317c.104.392.433.381.787.381h6.755c.353 0 .683-.013.709-.406l.311.052c-.05.354-.102.709-.144 1.063-.023.349-.023.703-.023 1.056l-.394.148c-.026-.485-.091-1.262-.97-1.262h-2.147v6.969c0 1.012.459 1.126 1.087 1.126h.248v.394c-.511 0-1.431-.05-2.132-.05-.787 0-1.705.05-2.216.05v-.394h.25c.723 0 1.087-.065 1.087-1.1v-6.995h-2.149z"/><path d="M212.661 94.245c-.516 0-1.433-.057-2.134-.057-.787 0-1.699.057-2.216.057h-.058v-.511h.308c.723-.016 1.012-.025 1.03-1.042v-6.938h-2.093v-.116h2.202v7.053c0 1.053-.425 1.159-1.14 1.159h-.192v.276c.516-.002 1.396-.052 2.158-.052.68 0 1.559.05 2.074.052v-.276h-.19c-.633 0-1.144-.156-1.144-1.186v-7.026h2.204c.881.003.996.751 1.024 1.235l.279-.104c0-.339 0-.684.028-1.029.039-.337.086-.67.133-1.004l-.198-.034c-.063.384-.428.401-.761.399h-6.817c-.308 0-.646-.016-.764-.384h-.217c0 .362-.025.715-.075 1.062-.039.359-.097.708-.148 1.053h.281c.172-.912.284-1.207 1.262-1.194v.116c-.965.019-.946.183-1.16 1.151l-.013.042h-.503l.008-.067c.052-.368.117-.73.156-1.115.058-.362.083-.725.083-1.101v-.057h.414l.008.039c.089.333.334.333.668.339h6.817c.365-.006.631-.014.656-.353l.003-.063.061.014.369.06-.01.055c-.053.352-.104.704-.141 1.056-.026.349-.026.703-.026 1.056v.041l-.036.019-.464.164-.003-.075c-.034-.49-.089-1.204-.915-1.204h-2.09v6.911c.011.988.401 1.056 1.029 1.068h.308v.511h-.055zm2.76-.453h.186c.469 0 .97-.063.97-.745v-6.862c0-.683-.501-.748-.97-.748h-.186v-.391c.798 0 2.163.05 3.258.05 1.105 0 2.463-.05 3.352-.05-.021.563-.011 1.428.028 2.001l-.393.104c-.063-.85-.22-1.532-1.596-1.532h-1.818v3.435h1.558c.782 0 .954-.448 1.032-1.157h.396a27.225 27.225 0 0 0 0 3.029l-.396.078c-.078-.787-.114-1.293-1.021-1.293h-1.568v3.047c0 .852.756.852 1.598.852 1.571 0 2.262-.106 2.658-1.6l.367.094a26.972 26.972 0 0 0-.448 2.082c-.837 0-2.346-.05-3.523-.05-1.179 0-2.731.05-3.482.05v-.394h-.002z"/><path d="M222.427 94.245c-.839 0-2.346-.057-3.523-.057-1.179 0-2.731.057-3.482.057h-.052v-.512h.238c.472-.005.904-.047.909-.688v-6.862c-.005-.639-.438-.68-.909-.693h-.237v-.503h.052c.798 0 2.161.053 3.258.053 1.105 0 2.463-.053 3.352-.053h.061l-.003.058c-.005.195-.011.43-.011.675 0 .453.011.951.037 1.326l.005.045-.047.013-.461.12-.003-.067c-.076-.85-.188-1.468-1.538-1.478h-1.764l-.003 3.317h1.504c.756-.014.889-.396.982-1.105v-.047h.5v.055a34.039 34.039 0 0 0-.039 1.53c0 .5.016.995.039 1.493v.047l-.044.011-.456.091v-.063c-.094-.798-.1-1.235-.97-1.246l-1.514-.002v2.997c0 .795.686.789 1.543.795 1.576-.011 2.207-.086 2.601-1.557l.016-.052.055.011.417.106-.011.058a26.506 26.506 0 0 0-.442 2.077l-.014.049h-.046v.001zm-.047-.117c.114-.661.261-1.321.422-1.983l-.258-.064c-.389 1.465-1.152 1.598-2.697 1.587-.823 0-1.652 0-1.655-.909V89.65h1.629c.912-.008 1.006.545 1.071 1.29l.284-.06a28.124 28.124 0 0 1 0-2.925h-.284c-.073.683-.287 1.163-1.084 1.152h-1.616v-3.545h1.879c1.36-.008 1.59.696 1.645 1.522L222 87a23.552 23.552 0 0 1-.036-1.279c0-.222.005-.433.01-.617-.889.002-2.215.047-3.294.047-1.076 0-2.397-.045-3.2-.047v.275h.128c.461 0 1.019.084 1.024.806v6.862c-.006.722-.563.803-1.024.805h-.128v.276c.761-.002 2.277-.052 3.425-.052 1.156 0 2.627.05 3.475.052zm2.259-7.695c0-.954-.521-.996-.93-.996h-.234v-.391c.422 0 1.229.05 2.027.05.787 0 1.418-.05 2.108-.05 1.649 0 3.114.443 3.114 2.304 0 1.176-.782 1.897-1.814 2.307l2.236 3.349c.37.553.628.714 1.271.787v.394c-.432 0-.854-.05-1.281-.05-.412 0-.829.05-1.233.05-1.006-1.321-1.874-2.733-2.726-4.245h-.863v2.807c0 1.009.475 1.045 1.074 1.045h.234v.394c-.745 0-1.501-.05-2.252-.05-.63 0-1.245.05-1.896.05v-.394h.234c.487 0 .93-.222.93-.704v-6.657h.001zm1.675 3.038h.645c1.308 0 2.014-.497 2.014-2.043 0-1.165-.745-1.913-1.912-1.913-.396 0-.558.042-.746.053v3.903h-.001z"/><path d="M232.418 94.245c-.438 0-.857-.057-1.287-.057-.398 0-.815.057-1.271.031-1.006-1.316-1.866-2.724-2.716-4.22h-.771v2.744c.013.985.409.978 1.012.99h.297v.511h-.058c-.745 0-1.509-.057-2.252-.057-.625 0-1.24.057-1.896.057h-.058v-.511h.292c.469-.002.87-.205.87-.646v-6.655c-.008-.931-.464-.928-.87-.938h-.292v-.508h.058c.422 0 1.229.055 2.027.055.781 0 1.412-.055 2.111-.055 1.646.002 3.171.461 3.174 2.363 0 1.184-.782 1.918-1.793 2.33l2.202 3.297c.362.542.594.678 1.232.758l.045.011v.5h-.056zm-6.104-4.357h.895l.018.026c.85 1.504 1.713 2.919 2.677 4.217.404 0 .821-.055 1.228-.055.422 0 .824.044 1.23.052v-.284c-.615-.078-.902-.26-1.262-.808l-2.277-3.409.063-.025c1.026-.401 1.782-1.103 1.787-2.257-.005-1.814-1.415-2.236-3.059-2.241-.691 0-1.319.052-2.111.052-.769 0-1.543-.05-1.973-.052v.275h.18c.406 0 .987.068.987 1.054v6.655c0 .527-.492.764-.987.767h-.18v.273c.631-.002 1.228-.052 1.842-.052.73 0 1.471.05 2.194.052v-.273h-.182c-.595-.003-1.124-.078-1.124-1.11v-2.856h.054v-.001zm0-.363h-.055v-4.011l.045-.002c.183-.014.359-.053.756-.053 1.19 0 1.968.774 1.97 1.968-.005 1.569-.75 2.096-2.071 2.098h-.645zm.645-.111c1.292-.011 1.946-.464 1.959-1.986-.008-1.142-.719-1.851-1.857-1.855-.354 0-.521.031-.688.047v3.795h.586v-.001zm14.349 2.189l.029-.021v-4.915c0-1.074-.748-1.23-1.142-1.23h-.287v-.391c.612 0 1.215.05 1.832.05.537 0 1.071-.05 1.613-.05v.391h-.197c-.551 0-1.165.104-1.165 1.663v5.96c0 .459.013.92.075 1.327h-.495l-6.742-7.521v5.396c0 1.14.222 1.53 1.228 1.53h.225v.394c-.563 0-1.129-.05-1.689-.05-.592 0-1.193.05-1.779.05v-.394h.18c.904 0 1.178-.615 1.178-1.66v-5.517c0-.73-.6-1.179-1.188-1.179h-.169v-.391c.492 0 1.006.05 1.503.05.392 0 .771-.05 1.168-.05l5.822 6.558z"/><path d="M242.066 94.438l-.539-.016-6.646-7.412v5.249c.016 1.142.186 1.462 1.176 1.475h.279v.511h-.058c-.568 0-1.129-.057-1.688-.057-.587 0-1.191.057-1.777.057h-.061v-.511h.241c.862-.002 1.109-.558 1.12-1.61v-5.509c-.003-.699-.576-1.121-1.131-1.124h-.229v-.505h.061c.497 0 1.008.055 1.503.055.384 0 .764-.055 1.204-.037l5.755 6.484v-4.821c-.003-1.04-.701-1.168-1.079-1.176h-.35v-.505h.063c.615 0 1.22.055 1.832.055.535 0 1.071-.055 1.608-.055h.06v.505h-.252c-.543.014-1.095.065-1.11 1.608v5.96c0 .456.01.909.078 1.316l.005.063h-.065zm-.495-.114h.428a8.88 8.88 0 0 1-.068-1.265v-5.96c0-1.569.662-1.718 1.226-1.721h.135v-.275c-.511.002-1.029.047-1.551.047-.602 0-1.186-.045-1.777-.047v.275h.232c.401.003 1.198.178 1.198 1.288l-.021 4.951-.026.029-.039.039-5.829-6.583c-.386 0-.767.047-1.163.047-.484 0-.977-.045-1.454-.047v.275h.12c.615.003 1.246.467 1.246 1.236v5.509c0 1.059-.298 1.726-1.235 1.728h-.131v.276c.568-.002 1.152-.052 1.729-.052.55 0 1.092.05 1.634.052v-.276h-.167c-1.029 0-1.287-.45-1.293-1.592v-5.541l6.806 7.607zm-.263-2.721l.039-.036-.039.036zm-.034-.021v-.005l-.006-.011.006.016zm4.186.73c-.136.446-.292.79-.292 1.024 0 .394.553.456.979.456h.146v.394c-.521-.023-1.059-.05-1.585-.05-.472 0-.938.026-1.412.05v-.394h.078c.511 0 .943-.297 1.136-.853l2.099-6.007c.169-.487.408-1.144.487-1.626a6.856 6.856 0 0 0 1.188-.563c.042-.01.065-.028.11-.028.036 0 .063 0 .088.042.037.102.078.224.12.325l2.408 6.854c.159.453.313.938.484 1.334.156.368.431.521.865.521h.078v.394c-.594-.023-1.181-.05-1.806-.05-.644 0-1.298.026-1.968.05v-.394h.146c.303 0 .809-.052.809-.378 0-.172-.115-.523-.261-.94l-.508-1.524h-2.974l-.415 1.363zm1.907-5.801h-.023l-1.217 3.706h2.449l-1.209-3.706z"/><path d="M252.434 94.245a33.758 33.758 0 0 0-1.801-.057c-.644 0-1.293.025-1.968.057h-.058v-.513h.204c.303 0 .751-.065.751-.318.008-.148-.114-.508-.258-.925l-.498-1.485h-2.888l-.406 1.329c-.136.448-.289.786-.289 1.003.005.32.492.396.925.396h.203v.513h-.057a27.185 27.185 0 0 0-1.58-.057c-.469 0-.943.025-1.412.057h-.063v-.513h.136c.487 0 .891-.279 1.084-.811l2.095-6.01c.173-.487.407-1.139.524-1.66a6.632 6.632 0 0 0 1.186-.565c.036-.011.073-.029.131-.029.028 0 .099.008.141.078.041.107.078.222.114.331l2.416 6.85c.153.456.31.94.482 1.329.15.349.394.487.813.489h.136v.511h-.063zm-3.711-.119c.651-.023 1.282-.05 1.91-.05.607 0 1.176.026 1.743.05v-.274h-.016c-.448.003-.758-.174-.92-.56a18.14 18.14 0 0 1-.484-1.343l-2.411-6.846c-.041-.104-.078-.225-.109-.318-.013-.011-.01-.011-.021-.011h-.021c-.029 0-.045.006-.078.016a4.737 4.737 0 0 1-1.165.521c-.081.498-.315 1.152-.487 1.637l-2.096 6.01c-.203.571-.662.896-1.193.894h-.021v.274c.451-.023.904-.05 1.36-.05.501 0 1.022.026 1.52.05v-.274h-.086c-.422-.008-1.021-.055-1.037-.516 0-.264.161-.597.292-1.037l.058.016-.058-.019.428-1.401h3.057l.526 1.558c.144.423.266.767.266.962-.023.401-.573.43-.868.438h-.088v.273h-.001zm-2.68-3.853l1.257-3.82h.072v.058l-.016.002.016-.002v-.058h.037l1.24 3.82h-2.606zm.162-.114h2.291l-1.14-3.508-1.151 3.508zm1.108-3.633l.031-.008-.031.008zm5.699-.829c-.982 0-1.021.24-1.219 1.191h-.392c.053-.365.12-.732.156-1.113.053-.364.081-.729.081-1.11h.311c.109.392.438.381.787.381h6.76c.352 0 .678-.013.709-.406l.313.052c-.052.354-.104.709-.141 1.063-.031.349-.031.703-.031 1.056l-.391.148c-.026-.485-.092-1.262-.97-1.262h-2.147v6.969c0 1.012.459 1.126 1.087 1.126h.247v.394c-.511 0-1.423-.05-2.134-.05-.784 0-1.702.05-2.213.05v-.394h.245c.725 0 1.095-.065 1.095-1.1v-6.995h-2.153z"/><path d="M258.172 94.245c-.516 0-1.431-.057-2.134-.057-.779 0-1.696.057-2.213.057h-.058v-.511h.303c.725-.016 1.014-.025 1.032-1.042v-6.938h-2.091v-.116h2.205v7.053c0 1.053-.422 1.157-1.146 1.159h-.19v.279c.519-.005 1.399-.055 2.158-.055.686 0 1.556.05 2.077.055v-.279h-.193c-.628-.002-1.142-.156-1.142-1.186v-7.026h2.205c.878.003.995.751 1.019 1.235l.287-.104c0-.339 0-.684.023-1.027.036-.339.089-.672.136-1.006l-.198-.034c-.058.384-.433.401-.756.399h-6.823c-.308.002-.646-.016-.764-.386h-.212a8.379 8.379 0 0 1-.083 1.063c-.034.364-.099.708-.146 1.053h.275c.173-.912.29-1.207 1.267-1.194v.116c-.969.016-.948.183-1.162 1.151l-.01.042h-.506l.01-.065c.053-.37.118-.732.154-1.112.06-.367.083-.729.083-1.105v-.057h.412l.013.039c.089.333.329.333.668.339l.063.002h6.76c.359-.008.626-.016.646-.354l.005-.063.061.014.375.06-.013.055c-.053.352-.104.704-.141 1.056-.026.349-.026.703-.026 1.058v.039l-.037.019-.466.167-.003-.078c-.034-.49-.086-1.204-.912-1.204h-2.09v6.911c.01.988.403 1.056 1.026 1.068h.305v.511h-.053v-.001zm2.831-.453h.177c.477 0 .97-.063.97-.745v-6.862c0-.683-.493-.748-.97-.748h-.177v-.391c.505 0 1.292.05 1.934.05.656 0 1.438-.05 2.059-.05v.391h-.183c-.469 0-.975.065-.975.748v6.862c0 .683.506.745.975.745h.183v.394c-.631 0-1.418-.05-2.069-.05-.641 0-1.418.05-1.923.05v-.394h-.001z"/><path d="M264.995 94.245c-.636 0-1.418-.057-2.069-.057-.641 0-1.418.057-1.923.057h-.061v-.512h.238c.477-.005.909-.047.912-.688v-6.862c-.003-.639-.436-.683-.912-.693h-.237v-.503h.061c.505 0 1.292.053 1.934.053.651 0 1.438-.053 2.059-.053h.052v.503h-.235c-.479.011-.909.055-.917.693v6.862c.008.641.438.683.917.688h.234v.511h-.053v.001zm-.057-.117v-.276h-.125c-.469 0-1.026-.083-1.026-.805v-6.862c0-.722.558-.806 1.026-.806h.125v-.275c-.609.002-1.365.047-2.001.047-.62 0-1.371-.045-1.882-.047v.275h.13c.464 0 1.022.084 1.022.806v6.862c0 .722-.559.805-1.022.805h-.13v.276c.506-.008 1.248-.052 1.871-.052.631 0 1.391.05 2.012.052zm5.28-9.28c2.791 0 5.017 1.733 5.017 4.52 0 3.018-2.16 5.02-4.951 5.02-2.775 0-4.897-1.89-4.897-4.707-.001-2.722 2.105-4.833 4.831-4.833zm.198 8.96c2.538 0 2.981-2.241 2.981-4.151 0-1.916-1.032-4.232-3.206-4.232-2.293 0-2.971 2.043-2.971 3.797.001 2.344 1.075 4.586 3.196 4.586z"/><path d="M265.326 89.68c.008-2.755 2.14-4.884 4.892-4.89v.116c-2.694 0-4.774 2.079-4.779 4.774.008 2.788 2.095 4.645 4.845 4.645 2.763 0 4.892-1.976 4.896-4.96-.005-2.755-2.194-4.454-4.962-4.459v-.116c2.813.003 5.066 1.752 5.071 4.574-.005 3.047-2.191 5.069-5.006 5.074-2.802-.004-4.949-1.91-4.957-4.758zm1.837-.459c0-1.762.691-3.857 3.028-3.857 2.224.006 3.264 2.367 3.266 4.293-.002 1.91-.456 4.203-3.041 4.203v-.11c2.488-.002 2.919-2.184 2.93-4.094 0-1.9-1.027-4.173-3.154-4.178-2.246.005-2.913 1.999-2.919 3.742.006 2.333 1.069 4.524 3.144 4.529v.11c-2.175 0-3.254-2.277-3.254-4.638zm16.894 2.382l.025-.021v-4.915c0-1.074-.745-1.23-1.141-1.23h-.284v-.391c.617 0 1.217.05 1.832.05.536 0 1.076-.05 1.613-.05v.391h-.198c-.55 0-1.165.104-1.165 1.663v5.96c0 .459.011.92.075 1.327h-.497l-6.742-7.521v5.396c0 1.14.222 1.53 1.228 1.53h.227v.394c-.565 0-1.123-.05-1.688-.05-.587 0-1.196.05-1.783.05v-.394h.186c.906 0 1.178-.615 1.178-1.66v-5.517c0-.73-.603-1.179-1.193-1.179h-.17v-.391c.498 0 1.009.05 1.504.05.396 0 .771-.05 1.168-.05l5.825 6.558z"/><path d="M284.817 94.438l-.542-.016-6.641-7.412v5.251c.011 1.14.183 1.46 1.168 1.471h.286v.513h-.06c-.565 0-1.129-.057-1.688-.057-.587 0-1.188.057-1.783.057h-.055v-.513h.241c.862 0 1.11-.556 1.12-1.601v-5.517c0-.699-.573-1.121-1.136-1.124h-.225v-.503h.055c.503 0 1.012.053 1.504.053.391 0 .767-.053 1.209-.037l5.755 6.484v-4.821c-.003-1.04-.701-1.165-1.084-1.173h-.341v-.506h.058c.617 0 1.22.053 1.829.053.537 0 1.071-.053 1.616-.053h.057v.506h-.255c-.537.016-1.098.063-1.107 1.605v5.96c0 .456.01.915.072 1.316l.011.063h-.064v.001zm-.5-.114h.433a8.88 8.88 0 0 1-.068-1.265v-5.96c0-1.574.662-1.718 1.223-1.721h.144v-.275c-.519.002-1.032.047-1.559.047-.597 0-1.184-.045-1.772-.047v.275h.225c.406.003 1.198.183 1.198 1.288l-.016 4.951-.026.029-.041.039-5.827-6.583c-.386 0-.767.047-1.168.047-.479 0-.97-.045-1.446-.047v.275h.112c.614.003 1.251.467 1.251 1.236v5.517c0 1.045-.292 1.718-1.235 1.72h-.128v.276c.565-.002 1.149-.052 1.726-.052.544 0 1.086.05 1.631.052v-.276h-.169c-1.027 0-1.282-.45-1.282-1.59v-5.543l6.794 7.607zm-.26-2.721l.041-.036-.041.036zm-.032-.021v-.005l-.011-.011.011.016zm4.18.73c-.125.446-.286.79-.286 1.024 0 .394.552.456.979.456h.148v.394c-.523-.023-1.065-.05-1.587-.05-.472 0-.943.026-1.41.05v-.394h.073c.514 0 .946-.297 1.139-.853l2.101-6.007c.17-.487.404-1.144.485-1.626a7.039 7.039 0 0 0 1.188-.563c.037-.01.065-.028.104-.028.037 0 .065 0 .094.042.037.102.078.224.117.325l2.408 6.854c.159.453.311.938.485 1.334.158.368.435.521.867.521h.073v.394c-.586-.023-1.176-.05-1.806-.05-.639 0-1.293.026-1.963.05v-.394h.146c.297 0 .811-.052.811-.378 0-.172-.118-.523-.264-.94l-.511-1.524h-2.971l-.42 1.363zm1.913-5.801h-.023l-1.217 3.706h2.444l-1.204-3.706z"/><path d="M295.185 94.245c-.594-.028-1.181-.057-1.806-.057-.639 0-1.293.028-1.96.057h-.061v-.511h.199c.308 0 .759-.067.759-.32.003-.148-.117-.503-.264-.925l-.495-1.485h-2.893l-.404 1.329c-.133.448-.286.786-.284 1.003 0 .32.49.398.923.398h.198v.511h-.058c-.521-.028-1.058-.057-1.579-.057-.469 0-.94.028-1.41.057h-.06v-.511h.133c.487-.002.896-.281 1.087-.813l2.095-6.01c.173-.487.407-1.139.52-1.66.414-.144.94-.404 1.19-.565.036-.011.073-.026.125-.026a.151.151 0 0 1 .146.075c.036.104.072.222.119.331l2.408 6.85c.156.456.313.94.482 1.331.153.347.394.485.811.487h.138v.511h-.059zm-3.716-.119c.646-.023 1.287-.05 1.91-.05.612 0 1.181.026 1.754.05l-.006-.274h-.021c-.443.003-.751-.174-.912-.56-.177-.396-.334-.881-.484-1.34l-2.414-6.849c-.039-.104-.078-.225-.111-.315-.008-.014-.008-.014-.019-.014h-.026c-.025 0-.039.006-.073.016-.255.162-.778.423-1.167.521-.083.498-.318 1.152-.487 1.637l-2.101 6.01c-.195.571-.654.896-1.188.894h-.021v.274c.45-.023.901-.05 1.357-.05.506 0 1.026.026 1.527.05v-.274h-.089c-.425-.008-1.021-.049-1.037-.516.003-.264.164-.594.292-1.037l.052.016-.052-.019.43-1.401h3.055l.523 1.558c.146.423.267.767.267.962-.021.401-.568.43-.871.438h-.088v.273zm-2.672-3.853l1.256-3.82h.065v.058l-.016.002.016-.002v-.058h.044l1.238 3.82h-2.603zm.154-.114h2.293l-1.142-3.508-1.151 3.508zm1.115-3.633l.025-.008-.025.008zm8.423 6.377c0 .524.359.681.782.735a9.433 9.433 0 0 0 1.73-.029c.547-.067 1.021-.38 1.253-.706.211-.289.331-.654.409-.946h.381c-.146.748-.328 1.483-.487 2.229-1.149 0-2.307-.05-3.453-.05-1.157 0-2.304.05-3.461.05v-.394h.183c.474 0 .984-.063.984-.876v-6.731c0-.683-.511-.748-.984-.748h-.183v-.391c.693 0 1.376.05 2.069.05.672 0 1.323-.05 1.996-.05v.391h-.334c-.497 0-.886.016-.886.709v6.757h.001z"/><path d="M302.558 94.245c-1.152 0-2.307-.057-3.453-.057-1.157 0-2.31.057-3.464.057h-.052v-.511h.238c.474-.01.922-.041.928-.818v-6.734c-.006-.636-.451-.68-.928-.69h-.237v-.503h.052c.698 0 1.381.053 2.072.053.667 0 1.321-.053 1.996-.053h.05v.503h-.384c-.505.014-.823-.008-.834.654v6.758c.006.487.323.618.732.675a9.474 9.474 0 0 0 1.721-.026c.534-.058.99-.37 1.219-.684.201-.275.315-.636.394-.922l.011-.045h.495l-.011.068c-.15.75-.33 1.482-.489 2.228l-.011.047h-.045zm-.045-.117c.151-.711.323-1.404.464-2.113h-.273c-.078.284-.195.636-.401.923-.245.339-.729.656-1.3.729a10.115 10.115 0 0 1-1.736.027c-.428-.05-.842-.229-.839-.79v-6.758c0-.729.459-.767.948-.767h.271v-.275c-.644.002-1.282.052-1.934.052-.678 0-1.34-.05-2.013-.052v.275h.126c.466 0 1.037.084 1.037.803v6.734c0 .848-.571.936-1.037.936h-.126v.276c1.132-.002 2.263-.052 3.404-.052 1.136 0 2.273.05 3.409.052zm.37-9.457c.79 0 1.382.609 1.382 1.386 0 .771-.592 1.374-1.382 1.374a1.35 1.35 0 0 1-1.376-1.374c0-.777.587-1.386 1.376-1.386zm0 2.507c.615 0 1.092-.531 1.092-1.121 0-.594-.469-1.128-1.092-1.128-.62 0-1.094.534-1.094 1.128 0 .589.474 1.121 1.094 1.121zm-.686-.397v-.067c.17-.021.201-.019.201-.12v-1.021c0-.146-.016-.195-.193-.188v-.068h.704c.242 0 .464.115.464.363 0 .205-.133.359-.323.419l.225.313c.106.146.224.282.305.329v.041h-.269c-.128 0-.24-.271-.495-.636h-.151v.459c0 .091.031.089.201.109v.067h-.669zm.467-.724h.162c.177 0 .26-.135.26-.354 0-.22-.13-.298-.271-.298h-.151v.652z"/></g><path fill="#0978BA" d="M313.639 106.552H181.07V3.526h132.569v103.026zm-131.055-1.517h129.543V5.04H182.584v99.995z"/></g></g></svg>