<svg width="22" height="27" viewBox="0 0 22 27" xmlns="http://www.w3.org/2000/svg"><path d="M14.938 26.027c-.751-1.771-3.083-3.002-6.242-3.233-1.202-.077-2.104-.538-2.707-1.232-.676-.77-.827-1.771-.902-2.387a3.609 3.609 0 0 0 2.933-3.543V11.86c0-1.772-1.204-3.233-2.857-3.542 0-.076.076-.154.076-.23 0-3.464 2.707-6.314 6.089-6.314 3.384 0 6.166 2.851 6.166 6.314 0 .076 0 .154.076.23-1.654.309-2.782 1.77-2.782 3.542v3.772c0 1.925 1.58 3.543 3.46 3.543 1.953 0 3.533-1.618 3.533-3.543V11.86c0-1.772-1.204-3.233-2.782-3.542.076-.076.076-.154.076-.23 0-1.233-.301-2.387-.827-3.464C17.043 2.006 14.412.158 11.329.158c-3.007 0-5.564 1.771-6.841 4.389a7.89 7.89 0 0 0-.827 3.541v.23A3.63 3.63 0 0 0 .953 11.86v3.772c0 1.618 1.127 3.004 2.631 3.466 0 .772.151 1.925.903 3.081.074.077.15.229.301.386.826 1.076 2.104 1.692 3.76 1.847 3.005.231 4.585 1.389 4.961 2.311 0 0 .255.336.938 0 .681-.338.491-.696.491-.696z" fill="#1B1B1B"/></svg>