<svg width="31" height="20" viewBox="0 0 31 20" xmlns="http://www.w3.org/2000/svg"><path d="M28.133.064H2.563C1.476.064.594.944.594 2.03v15.739c0 1.087.882 1.966 1.969 1.966h25.57a1.967 1.967 0 0 0 1.969-1.966V2.03A1.968 1.968 0 0 0 28.133.064zM8.002 4.328a2.584 2.584 0 0 1 2.585 2.585 2.584 2.584 0 0 1-2.585 2.585 2.584 2.584 0 0 1-2.585-2.585 2.584 2.584 0 0 1 2.585-2.585zm4.423 10.338c0 .614-1.983 1.108-4.429 1.108-2.444 0-4.428-.495-4.428-1.107l.005-1.477c.068-1.743 1.064-3.229 2.479-3.959a3.015 3.015 0 0 0 1.949.711c.742 0 1.423-.267 1.949-.711 1.415.729 2.412 2.215 2.481 3.958l-.006 1.477zm15.166-.697H16.396a.559.559 0 1 1 0-1.118h11.195a.56.56 0 0 1 .561.559.562.562 0 0 1-.561.559zm0-3.359H16.396a.558.558 0 1 1 0-1.119h11.195a.56.56 0 1 1 0 1.119zm0-3.358H16.396a.559.559 0 1 1 0-1.12h11.195a.561.561 0 0 1 0 1.12z" fill="#1B1B1B"/></svg>