<svg width="23" height="23" viewBox="0 0 23 23" xmlns="http://www.w3.org/2000/svg"><g fill="#1B1B1B"><path d="M8.783 18.456v-.002l-.012-.055.012.057zm-2.035-.054c-.005.016-.008.035-.012.054v.003l.012-.057zM3.741 5.439c.418-.93-1.118-2.296-.075-2.918a.25.25 0 0 0 .17.243.256.256 0 0 0 .326-.158l.352-1.032a.254.254 0 0 0-.161-.325.258.258 0 0 0-.325.161l-.004.011c-.588-.347-2.013-1-2.536.391C.859 3.487 3.39 5.256.683 5.76c-.124.022-.157.188-.048.25.69.395 2.35 1.109 3.106-.571m7.838-.148c.756 1.68 2.416.964 3.104.569.111-.062.079-.227-.044-.249-2.711-.504-.177-2.273-.806-3.948-.511-1.357-1.878-.769-2.49-.417a.254.254 0 0 0-.314-.149.257.257 0 0 0-.166.322l.336 1.036a.254.254 0 0 0 .32.165.257.257 0 0 0 .18-.22c.955.634-.532 1.976-.12 2.891"/><path d="M22.594 9.549l.003.004-1.121-1.369c-.354-.412-.703-.825-1.068-1.226-.006-.006-.013-.009-.018-.016a.905.905 0 0 0-.701-.275.946.946 0 0 0-.324.076 1.187 1.187 0 0 0-.395-.18v-.307a3.171 3.171 0 0 0 2.377-3.064A3.18 3.18 0 0 0 18.164.018a3.179 3.179 0 0 0-3.184 3.174 3.177 3.177 0 0 0 2.512 3.1v.248c-.21.023-.411.109-.588.243a.916.916 0 0 0-.854.233c-.4.39-.786.793-1.171 1.196-.361.389-.724.771-1.078 1.165-.271.028-.544.054-.814.085-.341.038-.681.081-1.019.127-.273-.386-.551-.765-.828-1.148-.347-.462-.69-.926-1.051-1.377l-.05-.057-.015-.012a.89.89 0 0 0-.563-.265.902.902 0 0 0-.401.048 1.268 1.268 0 0 0-.431-.173v-.461a3.132 3.132 0 0 0 2.203-2.99A3.143 3.143 0 0 0 7.687.017a3.142 3.142 0 0 0-3.145 3.137 3.134 3.134 0 0 0 2.626 3.088v.346a1.292 1.292 0 0 0-.414.111.9.9 0 0 0-.432-.078.898.898 0 0 0-.665.349c-.006.007-.012.011-.017.018-.32.438-.623.886-.928 1.334-.297.455-.602.904-.891 1.364l-.074.118.001-.005c-.198.521-.404 1.042-.596 1.568a58.29 58.29 0 0 0-.566 1.582.276.276 0 0 0 .49.245 77.192 77.192 0 0 0 1.566-2.425l.184-.295c.085-.083.168-.17.251-.255.134-.137.268-.272.4-.409l-1.236 6.543a.423.423 0 0 0 .213.467c.195.102.39.194.583.279.056.025.112.039.169.063-.04-.016-.08-.023-.121-.04l.005.066c.029.345.051.692.087 1.041.036.348.093.695.119 1.044l.005-.062c-.012.382-.02.765-.034 1.147-.017.386-.031.767-.059 1.148a.55.55 0 0 0 1.092.13c.063-.379.136-.755.211-1.13.072-.359.149-.716.225-1.072l.016-.116c.048-.345.127-.69.187-1.034.033-.203.062-.407.092-.613.028.004.058.014.086.019.24.03.479.048.72.048.188 0 .378-.015.568-.032.029-.002.06-.011.087-.015.029.197.057.396.09.594.059.344.138.689.186 1.034l.017.116c.075.356.153.713.225 1.072.075.375.146.751.211 1.13a.548.548 0 0 0 .582.455.546.546 0 0 0 .509-.585 39.55 39.55 0 0 1-.057-1.148c-.016-.383-.022-.766-.035-1.149l.003.063c.026-.346.084-.696.122-1.044.035-.348.056-.696.086-1.041v-.005c.015-.007.032-.01.048-.016.242-.104.487-.215.734-.345a.429.429 0 0 0 .216-.47l-1.265-6.651c.133.126.263.253.395.379.128.125.259.249.39.374.081.074.16.151.242.228l.336.311.3-.108c.449-.165.902-.322 1.352-.496-.117.211-.236.419-.351.631-.269.491-.533.986-.789 1.482a.28.28 0 0 0 .062.333c.113.104.29.098.395-.017.38-.414.751-.832 1.119-1.255.341-.385.669-.776 1.001-1.166.455-.323.897-.659 1.344-.989l.179-.137-.47 5.127a.447.447 0 0 0 .162.344l.019 6.987a.65.65 0 0 0 1.299.067l.55-6.493c.157.018.313.023.47.023.126 0 .252-.004.379-.016l.563 6.477a.654.654 0 0 0 .646.579.65.65 0 0 0 .653-.646l.018-6.922c.151-.09.247-.245.24-.4l-.467-5.056c.652.5 1.572 1.208 1.618 1.267.246.314-1.573 1.658-1.211 2.086.099.116.291.131.417.045.103-.068.154-.109.249-.188 2.401-1.997 1.576-2.506 1.32-3.003z"/></g></svg>