<svg xmlns="http://www.w3.org/2000/svg" width="284" height="50" viewBox="0 0 284 50"><g fill="none"><path fill="#00519E" d="M209.284 34.625c-.376 2.142-1.123 3.767-2.231 4.871-1.109 1.104-2.556 1.655-4.336 1.655h-.492l-1.34 8.319h.792c4.552 0 8.577-1.52 11.228-3.794 2.649-2.273 4.146-6.455 4.958-11.052l5.875-33.323h-8.578l-5.876 33.324zm48.385-33.322L256.4 8.5h8.834l-5.238 29.709h8.577L273.811 8.5h8.811l1.268-7.197h-26.221zm-32.524 36.906h23.607l1.268-7.192h-15.031l1.49-8.455h13.668l1.269-7.193h-13.67l1.213-6.869h14.534l1.267-7.197h-23.111l-6.504 36.906z"/><path fill="#E1023B" d="M69.224 12.868c-.245 1.705-1.136 2.947-2.099 3.623-.984.691-2.598 1.178-4.381 1.178h-3.212l1.671-9.466h3.608c1.782 0 3.043.338 3.721 1.041.717.742.966 1.72.692 3.624zM66.919 1.303H53.842L47.335 38.21h8.577l2.462-13.963h2.423c1.385 0 2.438.334 3.157 1.012.726.675 1.336 1.938 1.832 3.781l2.411 9.17h9.122l-2.8-10.479c-.562-2.129-1.222-3.715-1.967-4.761-.743-1.048-1.679-1.719-2.795-2.014 2.272-.744 3.629-1.68 5.158-3.279 1.42-1.484 2.341-3.347 2.643-5.805.426-3.477-.385-6.252-2.13-7.883-1.749-1.631-4.125-2.686-8.509-2.686zm15.495 36.906h23.605l1.268-7.191H92.259l1.492-8.456h13.669l1.268-7.191H95.019l1.212-6.872h14.534l1.269-7.196H88.92l-6.506 36.906zm45.34-27.501c2.214-2.115 5.033-3.175 8.442-3.175 1.847 0 3.633.287 5.359.865 1.73.578 3.419 1.45 5.075 2.619l1.348-7.637c-1.637-.906-3.427-1.591-5.374-2.053-1.945-.46-4.023-.691-6.228-.691-5.739 0-10.551 1.704-14.437 5.115-3.891 3.413-6.358 8.093-7.407 14.044-1.039 5.882-.246 10.54 2.377 13.978 2.624 3.435 6.706 5.153 12.241 5.153 2.44 0 4.858-.288 7.262-.864 2.462-.6 4.85-1.47 7.119-2.597l3.13-17.75h-13.35l-1.125 6.379h5.216l-1.263 7.168a9.3 9.3 0 0 1-2.144.581c-.787.123-1.623.188-2.514.188-3.281 0-5.625-1.065-7.026-3.189-1.407-2.128-1.767-5.141-1.077-9.046.695-3.941 2.154-6.968 4.376-9.088zm23.05 27.501h8.578l6.505-36.907h-8.576l-6.507 36.907zm43.522-18.413c-.684 3.87-1.932 6.876-3.756 9.021-1.82 2.142-4.037 3.215-6.654 3.215-2.605 0-4.44-1.073-5.505-3.215-1.063-2.145-1.255-5.15-.571-9.021.685-3.889 1.939-6.907 3.759-9.051 1.82-2.142 4.029-3.212 6.636-3.212 2.617 0 4.458 1.07 5.522 3.212 1.068 2.144 1.253 5.163.569 9.051zm6.773-14.068c-2.431-3.394-6.311-5.091-11.647-5.091-5.324 0-9.8 1.697-13.432 5.091-3.629 3.398-5.978 8.085-7.03 14.069-1.054 5.964-.357 10.643 2.075 14.038 2.432 3.395 6.31 5.093 11.635 5.093 5.336 0 9.813-1.697 13.441-5.093 3.622-3.396 5.959-8.074 7.013-14.038 1.053-5.984.369-10.672-2.055-14.069zM18.761 1.189H9.559L.426 48.345h9.198l9.137-47.156zm16.498 0h-9.202l-9.134 47.156h9.201l9.135-47.156z"/></g></svg>