<svg width="21" height="21" viewBox="0 0 21 21" xmlns="http://www.w3.org/2000/svg"><g fill="#1B1B1B"><path d="M13.559 4.959s-2.059.234-3.05.799c-.991.564-.53 1.091-.22 1.401.313.312 1.239.629 1.183 1.12-.058.505-1.008 1.104-1.008 1.104s1.075-.298 1.543-.706c.469-.411.613-.804-.102-1.322-.838-.605-.924-.962-.173-1.533.669-.509 1.827-.863 1.827-.863m-6.524 6.636l-.085-.341-.076-.353.03-.149.101-.061 7.114.004.147.064.027.158-.051.243-.111.435H7.035zm6.899 1.942s.08-.115.214-.351c.135-.237.301-.608.416-.907a7.68 7.68 0 0 0 .23-.792s.464-.017.611.385c.145.4.012.953-.471 1.41-.484.456-1.001.27-1.001.27v-.015h.001zm.986-2.924l.011-.27s-.002-.114-.104-.192l-.247-.064H6.462s-.123.029-.173.131c-.05.107-.05.258-.05.258s.125 1.338.437 1.999c.45.959.858 1.563 1.204 1.858.346.292.623.507.623.507l.006.529.033.085.106.041h3.889l.087-.047.041-.085v-.531s.305-.192.441-.336a2.72 2.72 0 0 1 .264-.245s.562.324 1.086.191c.525-.131.802-.251 1.229-.677.425-.426.574-.942.607-1.144.032-.202.097-.73-.078-1.066-.172-.337-.269-.562-.708-.786a1.6 1.6 0 0 0-.586-.156z"/><path d="M17.04 5.342A8.22 8.22 0 1 0 4.485 15.946L17.04 5.342zM5.611 17.096A8.221 8.221 0 0 0 17.984 6.643L5.611 17.096zm15.371-6.301c0 5.574-4.518 10.09-10.092 10.09C5.318 20.885.8 16.369.8 10.795.8 5.222 5.318.705 10.89.705c5.575 0 10.092 4.517 10.092 10.09z"/></g></svg>