<svg width="28" height="18" viewBox="0 0 28 18" xmlns="http://www.w3.org/2000/svg"><g fill="none"><path fill="#000" d="M.851.318h26.776V17.25H.851z"/><path d="M10.575 15.835v-.954c0-.359-.229-.6-.597-.604a.59.59 0 0 0-.534.271.556.556 0 0 0-.502-.271.5.5 0 0 0-.444.226v-.188h-.331v1.519H8.5v-.842c0-.264.146-.403.372-.403.22 0 .33.143.33.4v.845h.334v-.842c0-.264.153-.403.372-.403.226 0 .334.143.334.4v.845h.333v.001zm1.863-.759v-.76h-.33v.185a.576.576 0 0 0-.48-.223c-.426 0-.759.334-.759.798 0 .463.333.797.759.797a.576.576 0 0 0 .48-.222v.185h.33v-.76zm-1.23 0c0-.267.175-.486.46-.486.273 0 .458.21.458.486s-.185.486-.458.486c-.285 0-.46-.219-.46-.486zm8.299-.8a.845.845 0 0 1 .585.23.79.79 0 0 1 .234.57.794.794 0 0 1-.234.57.804.804 0 0 1-.259.168.848.848 0 0 1-.326.061.852.852 0 0 1-.326-.061.777.777 0 0 1-.429-.421.81.81 0 0 1-.062-.317.807.807 0 0 1 .232-.57.804.804 0 0 1 .259-.168.853.853 0 0 1 .326-.062zm0 .313a.493.493 0 0 0-.189.036.43.43 0 0 0-.15.1.466.466 0 0 0-.1.154.523.523 0 0 0-.037.197.501.501 0 0 0 .137.35.446.446 0 0 0 .339.136.465.465 0 0 0 .478-.486.501.501 0 0 0-.137-.351.49.49 0 0 0-.341-.136zm-5.272.487c-.003-.474-.295-.798-.721-.798-.445 0-.756.324-.756.798 0 .482.324.797.778.797a.927.927 0 0 0 .623-.212l-.162-.245a.72.72 0 0 1-.441.159c-.212 0-.406-.099-.454-.372h1.128c.002-.041.005-.082.005-.127zm-1.131-.134c.035-.219.168-.368.404-.368.212 0 .35.133.384.368h-.788zm2.522-.238a.978.978 0 0 0-.473-.13c-.181 0-.289.066-.289.178 0 .102.114.13.257.149l.156.022c.33.047.53.188.53.455 0 .289-.254.495-.693.495a1.09 1.09 0 0 1-.657-.197l.155-.257a.81.81 0 0 0 .506.159c.225 0 .346-.067.346-.185 0-.086-.085-.133-.267-.159l-.156-.022c-.34-.047-.524-.2-.524-.448 0-.302.248-.486.633-.486.241 0 .46.054.619.159l-.143.267zm1.588-.086h-.54v.687c0 .152.054.254.219.254a.601.601 0 0 0 .292-.086l.095.283a.777.777 0 0 1-.413.117c-.391 0-.528-.209-.528-.562v-.693h-.308v-.302h.308v-.46h.334v.46h.54v.302h.001zm1.144-.34a.69.69 0 0 1 .234.042l-.101.311a.551.551 0 0 0-.207-.038c-.216 0-.324.14-.324.391v.852h-.33v-1.519h.327v.185a.449.449 0 0 1 .401-.224zm2.287 1.336a.153.153 0 0 1 .109.044.152.152 0 0 1 0 .214.149.149 0 0 1-.049.032.154.154 0 0 1-.215-.139.148.148 0 0 1 .094-.139.154.154 0 0 1 .061-.012zm0 .269a.098.098 0 0 0 .045-.009.16.16 0 0 0 .037-.025.105.105 0 0 0 .025-.037.122.122 0 0 0-.025-.13.115.115 0 0 0-.128-.025.11.11 0 0 0-.063.063.122.122 0 0 0 0 .092.134.134 0 0 0 .025.037.118.118 0 0 0 .084.034zm.009-.188c.018 0 .032.004.042.012a.04.04 0 0 1 .015.033.035.035 0 0 1-.012.029.056.056 0 0 1-.033.014l.046.053h-.036l-.042-.053h-.014v.053h-.03v-.141h.064zm-.035.026v.037h.035a.036.036 0 0 0 .019-.004.018.018 0 0 0 .007-.015.017.017 0 0 0-.007-.014.036.036 0 0 0-.019-.004h-.035z" fill="#FFF"/><path fill="#7B79B4" d="M11.733 2.727h5.011v9.005h-5.011z"/><path d="M12.052 7.229c0-1.827.855-3.454 2.187-4.502a5.727 5.727 0 1 0 0 9.005 5.718 5.718 0 0 1-2.187-4.503z" fill="#DD001C"/><path d="M22.958 10.777v-.184h.074v-.038h-.189v.038h.075v.184h.04zm.368 0v-.222h-.058l-.066.153-.067-.153h-.058v.222h.041v-.167l.063.145h.042l.063-.145v.168h.04v-.001zm.178-3.548a5.727 5.727 0 0 1-9.266 4.503 5.717 5.717 0 0 0 2.187-4.502 5.716 5.716 0 0 0-2.187-4.502 5.725 5.725 0 0 1 9.266 4.501z" fill="#00A6DF"/></g></svg>