<svg width="28" height="17" viewBox="0 0 28 17" xmlns="http://www.w3.org/2000/svg"><g fill="none"><path fill="#000" d="M.731.028h26.776V16.96H.731z"/><path d="M8.549 15.549v-.955c0-.36-.229-.601-.598-.604a.59.59 0 0 0-.535.27.557.557 0 0 0-.502-.27.506.506 0 0 0-.446.226v-.188h-.33v1.521h.334v-.844c0-.264.146-.404.372-.404.219 0 .331.144.331.4v.847h.334v-.844c0-.264.152-.404.372-.404.226 0 .334.144.334.4v.847h.334v.002zm4.943-1.521h-.541v-.461h-.334v.461h-.309v.302h.309v.694c0 .353.137.563.528.563a.771.771 0 0 0 .413-.117l-.096-.284a.598.598 0 0 1-.291.086c-.166 0-.221-.102-.221-.255v-.688h.541v-.301h.001zm2.822-.038a.45.45 0 0 0-.401.222v-.184h-.327v1.521h.33v-.853c0-.251.108-.392.324-.392.066 0 .138.01.207.039l.102-.313a.739.739 0 0 0-.235-.04zm-4.266.159c-.159-.105-.378-.159-.62-.159-.385 0-.633.185-.633.487 0 .248.184.4.524.448l.155.022c.182.025.268.073.268.159 0 .118-.12.185-.347.185a.804.804 0 0 1-.505-.16l-.156.258c.182.133.41.197.658.197.439 0 .693-.207.693-.496 0-.267-.2-.407-.531-.455l-.156-.022c-.143-.019-.257-.047-.257-.149 0-.111.108-.178.289-.178.194 0 .382.073.474.13l.144-.267zm8.863-.159a.45.45 0 0 0-.401.222v-.184h-.328v1.521h.332v-.853c0-.251.107-.392.323-.392.067 0 .138.01.208.039l.101-.313a.744.744 0 0 0-.235-.04zm-4.263.799c0 .461.32.798.811.798.229 0 .382-.05.547-.181l-.158-.267a.67.67 0 0 1-.398.137c-.264-.003-.458-.194-.458-.487s.194-.484.458-.487c.145 0 .273.048.398.137l.158-.267a.797.797 0 0 0-.547-.181c-.49-.001-.811.336-.811.798zm3.098 0v-.76h-.33v.184a.58.58 0 0 0-.48-.222c-.428 0-.761.333-.761.798 0 .464.333.798.761.798a.574.574 0 0 0 .48-.223v.185h.33v-.76zm-1.23 0c0-.268.174-.487.461-.487.273 0 .458.21.458.487s-.185.487-.458.487c-.288-.001-.461-.22-.461-.487zm-3.993-.799c-.445 0-.758.324-.758.798 0 .484.324.798.779.798a.921.921 0 0 0 .623-.213l-.161-.245a.726.726 0 0 1-.442.159c-.214 0-.407-.098-.455-.372h1.129c.004-.042.007-.083.007-.127-.003-.474-.296-.798-.722-.798zm-.006.296c.213 0 .35.133.385.369h-.788c.033-.219.167-.369.403-.369zm8.299.503v-1.371h-.331v.794a.578.578 0 0 0-.48-.222c-.426 0-.761.333-.761.798 0 .464.335.798.761.798a.572.572 0 0 0 .48-.223v.185h.331v-.759zm-1.232 0c0-.268.176-.487.463-.487.273 0 .457.21.457.487s-.184.487-.457.487c-.287-.001-.463-.22-.463-.487zm-11.172 0v-.76h-.33v.184a.578.578 0 0 0-.48-.222c-.426 0-.761.333-.761.798 0 .464.335.798.761.798a.572.572 0 0 0 .48-.223v.185h.33v-.76zm-1.23 0c0-.268.176-.487.461-.487.274 0 .459.21.459.487s-.185.487-.459.487c-.286-.001-.461-.22-.461-.487zm14.185.54c.021 0 .041.003.061.012a.166.166 0 0 1 .049.032.145.145 0 0 1 .045.107.145.145 0 0 1-.045.107.149.149 0 0 1-.049.032.159.159 0 0 1-.061.013.142.142 0 0 1-.061-.013.149.149 0 0 1-.094-.139.148.148 0 0 1 .094-.139.144.144 0 0 1 .061-.012zm0 .269a.1.1 0 0 0 .046-.01.105.105 0 0 0 .037-.025.085.085 0 0 0 .024-.037.123.123 0 0 0 .01-.046.123.123 0 0 0-.034-.083.114.114 0 0 0-.083-.034.13.13 0 0 0-.047.009.105.105 0 0 0-.037.025.103.103 0 0 0-.024.037.103.103 0 0 0-.01.046.1.1 0 0 0 .01.046.157.157 0 0 0 .024.037c.01.011.023.02.037.025.016.007.032.01.047.01zm.01-.189c.018 0 .031.004.041.012a.04.04 0 0 1 .015.033.035.035 0 0 1-.012.028.054.054 0 0 1-.033.015l.046.053h-.035l-.043-.053h-.014v.053h-.029v-.141h.064zm-.035.027v.037h.034c.008 0 .015-.001.019-.004a.017.017 0 0 0 .008-.015c0-.007-.002-.012-.008-.014-.004-.003-.011-.004-.019-.004h-.034z" fill="#FFF"/><path fill="#E95D0F" d="M11.688 2.44h5.513v9.005h-5.513z"/><path d="M12.256 6.942c0-1.827.855-3.454 2.188-4.502a5.728 5.728 0 1 0 0 9.005 5.714 5.714 0 0 1-2.188-4.503z" fill="#DD001C"/><path d="M23.162 10.491v-.185h.074v-.037h-.188v.037h.074v.185h.04zm.368 0v-.223h-.058l-.067.153-.066-.153h-.059v.223h.042v-.168l.062.145h.044l.062-.145v.168h.04z" fill="#FFF"/><path d="M23.709 6.942a5.727 5.727 0 0 1-9.266 4.503 5.717 5.717 0 0 0 2.188-4.502 5.712 5.712 0 0 0-2.188-4.502 5.725 5.725 0 0 1 9.266 4.501z" fill="#F5A000"/></g></svg>