<svg width="27" height="23" viewBox="0 0 27 23" xmlns="http://www.w3.org/2000/svg"><g fill="#1B1B1B"><path d="M5.024 4.71c-.091 0-.181.093-.271.185 0 .092.09.277.18.277l2.346.554 2.975.739c.182 0 .272-.093.272-.185 0-.184-.09-.277-.18-.277l-3.067-.737-2.255-.556zm2.255 2.68l2.255.461c.181 0 .271 0 .271-.185 0-.093-.09-.184-.181-.276l-2.345-.556-2.255-.553c-.091 0-.181.091-.271.184 0 .185.09.277.18.369l2.346.556zm3.068 3.418l-3.067-.74-2.255-.554c-.092 0-.181.092-.271.186 0 .184.09.275.179.275l2.347.556 2.975.738c.181 0 .272-.092.272-.184s-.091-.277-.18-.277m-3.068 1.755l1.172.276h.091c.09 0 .181 0 .181-.184.089-.092 0-.185-.181-.278l-1.263-.276-2.255-.555c-.091 0-.181.093-.271.185 0 .185.09.277.18.277l2.346.555zm.001.554l-2.255-.554h-.181c0 .092-.09.185-.09.185v3.602c0 .092.09.185.179.185l2.347.553 2.975.739h.181c.091-.091.091-.185.091-.276V14.04c0-.091-.091-.183-.181-.276l-3.066-.647zm2.795 4.155l-2.795-.646-2.075-.462v-3.048l2.075.461 2.795.648v3.047zm9.471-.738h-.089l-2.617.647c-.18.091-.27.185-.18.278 0 .182.09.182.18.182h.09l2.616-.553c.181-.091.181-.185.181-.369.001-.093-.09-.185-.181-.185M16.751 9.79l.09.093h.089l2.617-.647 2.616-.646c.18 0 .18-.094.18-.278v-3.51c0-.092 0-.185-.09-.185 0-.092-.09-.092-.181-.092l-2.525.647-2.706.646c-.181 0-.181.092-.181.277v3.51c0 .093 0 .185.091.185zm.36-3.51l2.436-.646 2.345-.555v3.049l-2.345.645-2.436.555V6.28zm4.961 4.897l-2.526.554-2.705.646c-.181.093-.271.186-.181.278 0 .184.09.277.181.277 0 0 .089 0 .089-.093l2.616-.554 2.617-.646c.18 0 .269-.185.18-.277 0-.185-.09-.277-.271-.185m0 1.57l-2.526.646-2.705.646c-.181 0-.271.094-.181.278 0 .091.09.186.181.186h.089l2.616-.647 2.617-.648c.18 0 .269-.185.18-.276 0-.093-.09-.185-.271-.185m0 1.57l-2.526.646-2.705.647c-.181 0-.271.185-.181.277 0 .092.09.184.181.184h.089l2.616-.646 2.617-.646c.18 0 .269-.092.18-.276 0-.095-.09-.186-.271-.186"/><path d="M23.064.554l-3.518.923-5.954 1.386-6.313-1.571L4.122.554C2.408.185.876 1.292.876 2.863v13.948c0 1.479 1.261 2.864 2.795 3.233l3.608.925 6.134 1.385c.09 0 .09.093.179.093.091 0 .181-.093.272-.093l5.682-1.294 3.969-1.016c1.625-.369 2.797-1.754 2.797-3.233V2.863c0-1.571-1.533-2.678-3.248-2.309zm-9.651 19.861l-6.134-1.478-3.157-.739c-.811-.185-1.352-.925-1.352-1.387V2.863c0-.37.45-.462.631-.462.089 0 .181 0 .27.092l3.608.831 6.134 1.386v15.705zm11.005-3.604c0 .462-.542 1.202-1.354 1.387l-3.518.831-5.682 1.386V4.71l5.682-1.294 3.969-.923c.091-.092.272-.092.361-.092.181 0 .542.092.542.462v13.948z"/></g></svg>