<svg width="56" height="21" viewBox="0 0 56 21" xmlns="http://www.w3.org/2000/svg"><g fill="none"><path fill="#E00047" d="M.546.816h19.731v9.834H.546z"/><path fill="#1F1A17" d="M.546 20.484h19.731V10.65H16.08v.913l-11.357.01.004-.923H.546zM33.672 9.797l6.402-3.573c.279-.161.67-.243 1.123-.281l.004-.225-4.441-.001v.225c.401.01.508.317.085.559L30.871 9.94l.001-3.17c.002-.554.245-.792.652-.815h.381v-.237l-4.845-.001-.001.238h.415c.367.044.594.285.617.813l.001 7.81c-.021.55-.271.826-.751.83h-.28v.236l4.845.003v-.241l-.33-.001c-.457-.008-.678-.299-.703-.826l-.002-3.862 5.509 4.355c.207.193.444.351.622.579l4.444.004v-.257a1.306 1.306 0 0 1-.743-.258l-7.031-5.343zm18.783.567c1.747-.384 2.735-1.031 2.712-2.406-.019-1.443-1.317-2.171-3.338-2.242l-8.962-.004v.241c.621-.022.935.334.955.811l-.003 7.81c-.013.588-.332.864-.955.829l.008.244 8.066.008c3.467-.015 4.74-1.139 4.825-2.861.02-1.736-1.386-2.296-3.308-2.43zm-1.967-3.39c1.491-.002 2.116.901 1.951 1.589-.175.731-1.239 1.25-2.958 1.25l-2.867.001-.012-2.837 3.886-.003zm-.217 7.432l-3.098.006c-.366-.078-.571-.342-.572-.666l-.002-2.615c1.275-.021 2.551-.035 3.826-.012 2.309-.209 3.28 3.173-.154 3.287z"/></g></svg>