<svg width="38" height="17" viewBox="0 0 38 17" xmlns="http://www.w3.org/2000/svg"><g fill="none"><path d="M.461 3.438A2.851 2.851 0 0 1 3.318.593h31.145a2.85 2.85 0 0 1 2.857 2.845v10.163a2.85 2.85 0 0 1-2.857 2.844H3.318a2.85 2.85 0 0 1-2.857-2.844V3.438z" fill="#000268"/><path d="M1.633 3.535v9.97c0 .981.8 1.777 1.787 1.777h16.317V1.758H3.42c-.987 0-1.787.796-1.787 1.777zm22.32 4.936c0 .635-.314 1.07-.834 1.07-.459 0-.841-.436-.841-1.017 0-.597.337-1.041.841-1.041.537 0 .834.459.834.988zm-3.053 3.64h1.378V9.946h.015c.261.475.781.65 1.263.65 1.186 0 1.82-.979 1.82-2.157 0-.964-.604-2.012-1.706-2.012-.626 0-1.208.252-1.484.812h-.015V6.52H20.9v5.591zm6.356-2.868c0-.382.367-.527.834-.527.206 0 .404.015.58.022 0 .467-.328.94-.849.94-.321.001-.565-.159-.565-.435zm2.776 1.262a4.81 4.81 0 0 1-.077-.94V8.081c0-1.216-.879-1.652-1.896-1.652-.588 0-1.102.084-1.591.283l.024.934c.381-.215.824-.299 1.269-.299.497 0 .902.146.909.689a3.978 3.978 0 0 0-.642-.054c-.733 0-2.058.146-2.058 1.361 0 .865.703 1.255 1.491 1.255.566 0 .948-.221 1.263-.719h.015c0 .207.022.413.031.627h1.262v-.001zm.62 1.606c.281.062.564.093.855.093 1.262 0 1.56-.973 1.949-1.975l1.462-3.709h-1.377l-.818 2.6h-.016l-.856-2.6h-1.482l1.613 4.076c-.1.352-.359.551-.697.551-.191 0-.359-.023-.543-.084l-.09 1.048z" fill="#FFF"/><path d="M4.995 8.479c0-.544.269-.995.781-.995.619 0 .879.497.879.941 0 .612-.391 1.025-.879 1.025-.413-.001-.781-.352-.781-.971zm2.99-1.958H6.739v.719h-.015c-.292-.49-.767-.812-1.355-.812-1.238 0-1.796.888-1.796 2.073 0 1.178.681 2.004 1.773 2.004.551 0 1.011-.215 1.339-.681h.016v.214c0 .78-.428 1.155-1.223 1.155-.574 0-.927-.122-1.348-.328l-.068 1.085c.32.116.863.254 1.522.254 1.606 0 2.4-.529 2.4-2.166V6.521h.001zm2.328-1.661H8.937v1.01h1.376V4.86zm-1.376 5.645h1.376V6.521H8.937v3.984zm5.209-4.031a3.066 3.066 0 0 0-.467-.046c-.597 0-.941.321-1.178.827h-.016v-.734h-1.254v3.984h1.376V8.822c0-.78.36-1.247 1.003-1.247.16 0 .313 0 .466.045l.07-1.146zm2.37 3.159c-.634 0-.894-.528-.894-1.117 0-.597.26-1.125.894-1.125.637 0 .896.528.896 1.125 0 .589-.26 1.117-.896 1.117zm0 .964c1.316 0 2.318-.765 2.318-2.08 0-1.324-1.002-2.089-2.318-2.089-1.314 0-2.316.765-2.316 2.089-.001 1.315 1.001 2.08 2.316 2.08z" fill="#FF0007"/></g></svg>