<svg width="36" height="29" viewBox="0 0 36 29" xmlns="http://www.w3.org/2000/svg"><g fill="none" fill-rule="evenodd"><path d="M18.484 12.578a5.926 5.926 0 0 0 5.924-5.928A5.927 5.927 0 0 0 18.484.721 5.927 5.927 0 0 0 12.56 6.65a5.926 5.926 0 0 0 5.924 5.928z" fill="#0096C8"/><path d="M22.854 11.446a7.78 7.78 0 0 1-5.673 2.449c-1.981 0-3.688-.771-4.772-1.627-6.468.679-11.278 1.642-11.278 1.642v2.621l34.278-.004.004-5.403s-5.85-.037-12.559.322z" fill="#0096C8"/><path d="M8.285 27.732c-.61.176-1.514.353-2.344.353-2.832 0-5.103-1.537-5.103-4.672 0-2.948 2.368-4.421 5.103-4.421.904 0 1.441.113 2.32.277v2.317c-.538-.177-1.087-.328-1.636-.328-1.392 0-2.442.769-2.442 2.205 0 1.511.977 2.279 2.332 2.279.598 0 1.172-.125 1.77-.34v2.33zm7.74-6.184a7.493 7.493 0 0 0-2.527-.44c-.513 0-1.404.013-1.404.579 0 1.146 4.48.063 4.48 3.451 0 2.355-2.259 2.947-4.151 2.947-1.257 0-2.295-.126-3.516-.416V25.39c.879.378 1.954.579 2.93.579.77 0 1.465-.163 1.465-.604 0-1.185-4.48-.114-4.48-3.528 0-2.418 2.441-2.846 4.383-2.846.916 0 1.929.113 2.82.303v2.254zm5.774 6.537c-2.979 0-4.725-1.549-4.725-4.547 0-2.947 1.746-4.547 4.725-4.547 2.979 0 4.761 1.6 4.761 4.547 0 2.998-1.783 4.547-4.761 4.547zm0-2.116c1.293 0 1.331-1.486 1.342-2.431-.012-.818-.097-2.431-1.342-2.431-1.208 0-1.307 1.612-1.307 2.431 0 .944.134 2.431 1.307 2.431zm5.567-6.826h5.359c1.478 0 2.93.491 2.93 2.166 0 1.209-.623 1.852-1.758 2.154v.025c1.185.164 1.917 1.122 1.917 2.003 0 2.217-1.733 2.443-3.504 2.443h-4.944v-8.791zm3.077 6.977h.854c.598 0 1.246-.227 1.246-.907 0-.756-.61-.894-1.221-.894h-.879v1.801zm0-3.615h.818c.574 0 1.196-.176 1.196-.844 0-.654-.537-.855-1.124-.855h-.891v1.699h.001z" fill="#003867"/><path d="M2.534 18.352s1.028.884 2.582.89a4.295 4.295 0 0 0 3.128-1.338l-.249-.19s-.745.822-2.16.808c-1.501-.015-2.354-1.038-2.354-1.038l-.947.868z" fill="#003867"/></g></svg>