<svg xmlns="http://www.w3.org/2000/svg" width="174.83" height="78.231" viewBox="0 0 174.83 78.231"><path fill-rule="evenodd" clip-rule="evenodd" fill="#75AD26" d="M123.646 25.224c-.371 1.892-.736 3.688-1.088 5.49-.653 3.383-1.305 6.765-1.945 10.151-.06.326-.244.326-.476.326-1.751.002-3.502-.003-5.253.005-.354.002-.446-.054-.358-.472 1.389-6.494 2.747-12.99 4.107-19.488.271-1.3.526-2.604.77-3.913.058-.34.203-.463.536-.462 1.903.007 3.802.007 5.701 0 .34-.001.434.162.543.469 1.482 4.173 2.986 8.339 4.488 12.507.347.968.697 1.935 1.199 2.891.2-1.005.399-2.009.591-3.014.643-3.311 1.277-6.621 1.913-9.931.166-.845.342-1.69.471-2.541.044-.277.109-.383.4-.382 1.9.009 3.797.006 5.747.006-.774 3.703-1.534 7.355-2.296 11.007-.774 3.709-1.553 7.418-2.326 11.126-.116.553-.199 1.113-.316 1.667-.072.33-.211.545-.641.538-1.827-.03-3.652-.034-5.477.002-.511.011-.629-.274-.758-.636-1.659-4.711-3.313-9.421-4.98-14.129-.134-.381-.194-.809-.552-1.217zM42.193 32.741c.82-4.205 1.636-8.383 2.444-12.563.178-.919.323-1.846.471-2.77.06-.365.199-.559.626-.555 1.675.023 3.352.022 5.026.002.446-.006.564.125.472.564-1.4 6.669-2.784 13.34-4.179 20.01-.231 1.108-.52 2.206-.716 3.317-.065.356-.162.454-.501.451-1.874-.012-3.749-.02-5.627.006-.422.006-.536-.202-.654-.535-1.744-4.943-3.495-9.886-5.244-14.828-.067-.181-.141-.36-.305-.762-.226 1.139-.418 2.063-.601 2.988-.776 3.986-1.55 7.973-2.324 11.96a6.554 6.554 0 0 0-.081.512c-.051.447-.213.683-.749.667a105.812 105.812 0 0 0-4.879 0c-.529.013-.596-.222-.508-.622.878-4.14 1.774-8.273 2.645-12.414a625.437 625.437 0 0 0 2.118-10.345c.141-.718.344-1.019 1.141-.984 1.677.075 3.354.042 5.029.012.457-.008.621.157.769.573 1.742 4.941 3.502 9.876 5.276 14.806.058.161.06.406.351.51zM53.873 33.071c.85 0 1.7.003 2.548-.003.314-.003.508-.016.575.438.339 2.407 1.651 2.892 3.768 3.01 1.035.056 2.077.09 3.063-.407.827-.412 1.337-1.016 1.375-1.936.042-.975-.527-1.613-1.326-2.075-1.296-.75-2.772-.984-4.179-1.414-1.795-.549-3.507-1.243-4.83-2.635-.869-.914-1.296-2.008-1.363-3.281-.092-1.816.213-3.486 1.345-4.974 1.233-1.625 2.917-2.518 4.823-3.006 3.363-.862 6.683-.757 9.825.861 2.352 1.214 3.329 3.713 3.239 6.007-.014.34-.132.418-.443.416-1.828-.01-3.65-.005-5.478-.005-.208 0-.342-.007-.399-.295-.303-1.551-1.148-2.239-2.712-2.255-1.017-.011-2.026-.069-2.962.499-.697.425-.991 1.04-.991 1.792 0 .756.478 1.198 1.153 1.484 1.256.53 2.592.784 3.885 1.173 1.622.489 3.186 1.106 4.475 2.229 1.76 1.531 2.47 3.506 2.186 5.798-.435 3.47-2.685 5.401-5.805 6.427-3.301 1.083-6.669 1.201-9.957-.06-2.908-1.118-4.564-3.293-4.87-6.422-.134-1.365-.106-1.368 1.254-1.368.6.002 1.2.002 1.801.002zM163.914 16.863c-.338 1.742-.668 3.412-.98 5.083-.08.431-.388.314-.635.315-2.003.008-4.001.015-6.002-.002-.437-.002-.653.021-.769.578-.896 4.41-1.857 8.808-2.791 13.211-.325 1.519-.624 3.04-.938 4.558-.081.382-.222.617-.724.603-1.728-.044-3.451-.021-5.177-.016-.381.002-.554.017-.438-.523 1.289-5.915 2.529-11.839 3.786-17.757.097-.462.016-.67-.534-.658-1.949.032-3.901-.005-5.854.021-.577.008-.723-.125-.582-.722.323-1.365.582-2.746.829-4.127.067-.389.179-.569.599-.569 6.702.009 13.401.005 20.21.005zM74.079 22.231c.347-1.667.703-3.3 1.012-4.94.064-.352.182-.434.517-.434 6.575.01 13.149.01 19.726.003.423-.001.528.038.411.538-.33 1.385-.548 2.799-.813 4.2-.083.437-.224.704-.802.689-1.978-.053-3.95-.007-5.923-.03-.49-.007-.677.138-.783.633-1.014 4.891-2.065 9.772-3.102 14.655-.215 1.011-.471 2.017-.615 3.039-.071.499-.254.619-.709.613a182.313 182.313 0 0 0-5.177.009c-.485.007-.52-.188-.441-.554.575-2.693 1.153-5.387 1.721-8.082.684-3.249 1.331-6.506 2.056-9.745.148-.642-.131-.563-.524-.562-1.998.006-3.999.005-6.001 0-.172.001-.34-.019-.553-.032z"/><path fill-rule="evenodd" clip-rule="evenodd" fill="#999798" d="M73.477 55.491c0-3.076.018-6.131-.014-9.178-.004-.609.132-.838.776-.797.871.061 1.749.03 2.622.01.383-.01.526.102.526.508a3281.5 3281.5 0 0 0 0 15.371c0 .418-.173.499-.536.494a119.579 119.579 0 0 0-3.225-.004c-.31.004-.487-.102-.645-.384-.804-1.446-1.643-2.874-2.456-4.315-.933-1.654-1.848-3.321-2.786-4.976-.093-.166-.1-.518-.428-.397-.235.088-.131.352-.136.536-.004 2.901-.03 5.801.014 8.699.011.717-.213.888-.876.846-.822-.056-1.651-.027-2.474-.005-.397.01-.578-.078-.578-.531.011-5.101.011-10.198 0-15.297 0-.435.148-.555.561-.548 1.1.023 2.202.023 3.301-.002.328-.007.48.125.631.388 1.266 2.264 2.541 4.523 3.818 6.778.471.841.954 1.677 1.416 2.522.095.171.206.264.489.282zM110.098 53.712c0-2.477.019-4.953-.01-7.429-.005-.555.098-.772.726-.768 3.876.03 7.755.03 11.629 0 .628-.005.767.208.726.768-.044.572-.051 1.154.002 1.726.058.635-.113.856-.806.843-2.449-.046-4.902 0-7.352-.03-.542-.007-.78.108-.721.695a8.61 8.61 0 0 1 0 1.573c-.048.575.12.77.735.76 2.171-.036 4.35.005 6.525-.027.638-.009.924.157.866.839-.053.594-.037 1.198-.004 1.799.027.536-.206.688-.71.685-2.227-.019-4.451.014-6.676-.023-.612-.01-.781.18-.737.758.047.646.042 1.303 0 1.949-.032.514.169.624.645.619 2.525-.019 5.048.019 7.575-.027.69-.014.859.203.809.841-.056.697-.028 1.402-.007 2.103.012.364-.079.535-.494.535-4.075-.014-8.152-.014-12.228 0-.499.005-.497-.254-.497-.609.011-2.53.004-5.052.004-7.58z"/><path fill-rule="evenodd" clip-rule="evenodd" fill="#75AD26" d="M14.253 41.191c.651-3.165 1.284-6.272 1.931-9.379.827-3.975 1.667-7.947 2.504-11.919.183-.865.388-1.727.55-2.598.06-.325.167-.445.52-.441 1.804.022 3.601.013 5.401.009.335-.002.459.021.37.457a4413.448 4413.448 0 0 0-4.119 19.561c-.27 1.277-.524 2.555-.758 3.838-.06.336-.191.478-.531.476-1.945-.007-3.892-.004-5.868-.004z"/><path fill-rule="evenodd" clip-rule="evenodd" fill="#999798" d="M91.197 50.333c-.352.003-.705-.012-1.051.003-.575.027-1.134.115-1.165-.761-.011-.335-.354-.575-.67-.75-1.016-.578-2.083-.573-3.165-.262-.578.169-.95.617-.975 1.19-.025.531.271.961.802 1.227.919.459 1.934.561 2.897.853 1.155.351 2.314.66 3.423 1.173 3.165 1.474 2.974 5.415 1.16 7.279-1.213 1.245-2.726 1.721-4.322 1.871-1.825.169-3.657.104-5.401-.695-1.661-.758-3.107-2.707-3.109-4.38 0-.439.106-.619.582-.604.95.035 1.901.044 2.853-.002.478-.027.651.189.76.582.416 1.511 1.037 1.991 2.596 1.978.716-.005 1.451.118 2.142-.18.661-.291 1.118-.783 1.116-1.521-.002-.633-.367-1.054-.97-1.354-1.501-.751-3.19-.851-4.729-1.455-1.345-.527-2.678-1.077-3.398-2.453-1.069-2.052-.362-4.5 1.649-5.646 2.756-1.575 5.59-1.64 8.434-.259 1.581.768 2.301 2.167 2.611 3.826.051.286-.111.342-.347.342-.578-.004-1.15-.002-1.723-.002zM95.99 53.708c0-2.474.017-4.948-.009-7.424-.007-.56.102-.772.728-.768 3.523.032 7.048.028 10.573.005.529-.005.778.088.728.688a11.916 11.916 0 0 0 0 1.945c.051.596-.193.697-.726.688-2.15-.022-4.301.023-6.449-.027-.697-.019-.854.217-.802.846a10.28 10.28 0 0 1-.002 1.873c-.067.7.122.95.88.922 1.774-.063 3.551 0 5.325-.032.535-.009.778.102.725.693-.055.57-.046 1.15-.002 1.723.041.568-.111.781-.728.763-1.8-.042-3.602.009-5.401-.027-.607-.015-.822.124-.802.771.049 1.621-.002 3.248.028 4.874.007.504-.108.712-.658.684a23.643 23.643 0 0 0-2.622 0c-.612.037-.809-.129-.802-.771.041-2.473.016-4.95.016-7.426zM21.28 45.53c2.075 0 4.149.037 6.226-.019.69-.014.857.208.806.846-.056.67-.058 1.352.002 2.023.058.651-.203.79-.804.768-1.074-.047-2.151-.019-3.225-.014-1.072.009-.933-.12-.936.977-.007 3.65-.025 7.303.017 10.952.007.716-.224.883-.883.841a18.013 18.013 0 0 0-2.545.005c-.703.056-.813-.217-.806-.844.025-3.698-.009-7.398.032-11.1.004-.716-.222-.873-.88-.846-1.15.051-2.303-.004-3.449.023-.464.01-.684-.083-.656-.609.044-.795.044-1.599 0-2.398-.027-.52.188-.619.649-.614 2.151.023 4.304.009 6.452.009z"/><path fill-rule="evenodd" clip-rule="evenodd" fill="#75AD26" d="M152.497 62.643c1.227-1.705 2.363-3.289 3.507-4.865.811-1.122 1.614-2.254 2.458-3.35.279-.364.15-.604-.063-.892l-5.842-8.014c1.737 0 3.37 0 4.999-.002.24 0 .33.166.452.333 1.857 2.56 3.715 5.128 5.598 7.674.279.379.254.628-.01.988-1.866 2.555-3.717 5.124-5.574 7.686-.193.266-.401.458-.792.451-1.522-.027-3.047-.009-4.733-.009z"/><path fill-rule="evenodd" clip-rule="evenodd" fill="#75AD26" d="M143.104 62.643c2.019-2.809 3.955-5.521 5.921-8.215.227-.313.271-.476.019-.817-1.899-2.564-3.764-5.156-5.637-7.741-.054-.071-.083-.164-.174-.349 1.673 0 3.258 0 4.843-.005.295 0 .447.203.591.399 1.866 2.558 3.724 5.126 5.593 7.682.225.305.213.54-.005.836a1088.254 1088.254 0 0 0-5.715 7.868c-.189.264-.365.347-.663.347-1.548-.012-3.098-.005-4.773-.005zM112.771 40.447c-.204-1.065-.391-2.13-.564-3.201-.371-2.286-.716-4.577-1.09-6.863-.428-2.625-.873-5.247-1.314-7.868-.291-1.724-.614-3.442-.864-5.172-.066-.458-.254-.489-.616-.484-1.675.012-3.353.042-5.027-.012-.677-.023-.995.243-1.314.799-1.653 2.899-3.354 5.77-5.04 8.646-2.807 4.799-5.618 9.599-8.432 14.394-.203.348-.217.523.275.511.95-.021 1.901-.005 2.854-.005.924-.002 1.85-.015 2.773.007.313.007.499-.09.647-.365.658-1.214 1.333-2.422 2.003-3.63.12-.211.224-.389.55-.389 2.647.019 5.299.014 7.951.009.296 0 .45.103.487.425.132 1.153.335 2.3.425 3.455.037.486.25.493.607.493 1.7-.012 3.403-.035 5.101.009.646.017.682-.255.588-.759zm-7.746-8.265c-1.717-.019-3.438-.007-5.324-.007l4.597-8.84.222.067c.157 1.589.31 3.179.482 4.766.127 1.174.287 2.345.435 3.516.043.322-.008.502-.412.498z"/><path fill-rule="evenodd" clip-rule="evenodd" fill="#999798" d="M139.817 58.337c-.173-1.412-.367-2.813-1.737-3.659-.704-.435-.704-.439.053-.883 2.05-1.206 2.505-4.764.859-6.478-1.198-1.247-2.732-1.709-4.358-1.765-2.676-.086-5.353-.014-8.03-.03-.443-.002-.605.104-.603.58.016 5.077.014 10.155.002 15.232 0 .416.108.578.545.563a39.28 39.28 0 0 1 2.851.005c.522.021.688-.134.675-.665-.032-1.604 0-3.202-.019-4.805-.007-.423.127-.566.555-.555.898.027 1.804.074 2.698-.01 1.192-.104 2.266.666 2.455 1.974.167 1.146.301 2.296.455 3.446.044.337.132.614.583.609 1.171-.019 2.342-.009 3.564-.009-.455-1.179-.403-2.379-.548-3.55zm-3.918-7.443c-.056 1.144-.773 1.809-2.001 1.834-.523.015-1.049.005-1.572.005-.575 0-1.148-.016-1.722.007-.381.017-.533-.113-.524-.513a81.1 81.1 0 0 0 0-2.918c-.004-.355.13-.484.483-.478 1.147.016 2.298-.032 3.441.025 1.22.061 1.948.897 1.895 2.038zM44.381 60.708c-.028-.144-.002-.301-.023-.448-.173-1.169-.058-2.38-.455-3.516-.303-.876-.656-1.747-1.568-2.153-.642-.286-.409-.448.004-.688 1.996-1.183 2.67-4.138 1.409-6.062-1.132-1.719-2.901-2.204-4.754-2.28-2.645-.11-5.299-.014-7.949-.039-.55-.01-.658.185-.656.684.025 2.502.011 5.004.011 7.503 0 2.477.026 4.953-.016 7.425-.007.646.196.809.804.771a17.024 17.024 0 0 1 2.474.005c.7.058.825-.213.804-.844-.042-1.524 0-3.051-.021-4.576-.004-.434.088-.628.575-.609.998.032 2-.005 2.999.014 1.017.019 1.698.562 2.012 1.553.319.998.31 2.047.409 3.072.116 1.215.206 1.372 1.37 1.372h1.578c1.234-.002 1.231-.002.993-1.184zM40.29 50.705c-.067 1.1-.562 2.077-2.024 2.033-.524-.014-1.046 0-1.568 0-.575 0-1.148-.019-1.721.005-.368.014-.539-.084-.532-.495a54.48 54.48 0 0 0 0-2.915c-.007-.402.146-.513.524-.504 1.121.019 2.241-.014 3.361.01 1.149.022 2.024.827 1.96 1.866zM61.533 60.963c-1.136-2.993-2.257-5.994-3.379-8.997-.726-1.94-1.439-3.881-2.158-5.826-.159-.435-.397-.661-.926-.624-.871.061-1.753.063-2.624 0-.687-.049-.973.181-1.208.846-.954 2.722-2 5.408-3.008 8.113-.85 2.282-1.677 4.578-2.55 6.855-.18.47-.071.578.379.564.651-.015 1.301-.005 1.952-.005 1.615 0 1.612 0 2.127-1.492.118-.347.28-.688.379-1.04.106-.383.337-.48.711-.476 1.425.019 2.855.078 4.274-.019.887-.06 1.282.235 1.469 1.076.143.643.261 1.456.697 1.83.462.393 1.296.074 1.855.12h1.391c.98.002.968-.008.619-.925zm-6.567-5.07c-.919-.023-1.841-.009-2.765-.002-.312.002-.584-.03-.448-.441.589-1.783 1.19-3.563 1.841-5.505.589.991.695 1.942 1.023 2.815.307.813.517 1.659.783 2.483.129.412.111.667-.434.65z"/></svg>