<svg width="72" height="14" viewBox="0 0 72 14" xmlns="http://www.w3.org/2000/svg"><path d="M23.773.205a6.63 6.63 0 0 0-2.836.648c-1.282.606-2.444 1.618-3.394 2.961a12.893 12.893 0 0 0-1.556 3.013c-.779 2.133-.77 3.863.026 5.004.451.645 1.389 1.414 3.298 1.416h.007c3.476 0 6.07-2.277 7.715-6.771.434-1.188 1.006-3.408-.04-4.905C26.362.665 25.28.206 23.773.205zm20.974 0a6.63 6.63 0 0 0-2.836.648c-1.282.606-2.442 1.618-3.393 2.961a12.855 12.855 0 0 0-1.556 3.013c-.78 2.133-.771 3.863.025 5.004.451.645 1.39 1.414 3.299 1.416h.006c3.478 0 6.073-2.277 7.715-6.771.435-1.188 1.007-3.408-.039-4.905C47.335.665 46.253.206 44.747.205zM12.61.385c-1.144 0-2.254 0-3.25.505-.996.506-1.875 1.517-2.551 3.539-.146.435-.225.81-.235 1.135-.009.326.047.603.171.844.152.294.398.57.707.803.31.234.68.423 1.078.545.014.004.225.063.477.136.254.072.549.16.736.217.109.033.229.077.339.143.11.064.208.151.269.272.041.08.063.167.066.261a.857.857 0 0 1-.052.304c-.092.274-.233.451-.501.56-.268.109-.661.143-1.26.147H1.137l-1.18 3.242h7.991c.752 0 2.127 0 3.448-.562 1.32-.561 2.588-1.682 3.125-3.927.201-.844.139-1.531-.191-2.07-.332-.54-.932-.932-1.804-1.182l-.426-.123-.628-.181a.845.845 0 0 1-.498-.357.702.702 0 0 1-.074-.568.832.832 0 0 1 .415-.498c.211-.115.486-.18.808-.18h4.646c.031-.047.062-.099.094-.146.85-1.2 1.876-2.171 3.001-2.857H12.61V.385zm20.879 0c-2.067 0-3.605 1.046-4.332 3.004l-3.512 9.648h3.847l1.805-4.96 3.4.003.967-2.657-3.389-.002.547-1.538c.112-.276.385-.495.782-.495l4.009.001c.034-.047.063-.099.097-.147.848-1.2 2.049-2.171 3.175-2.857h-7.396zm17.848.007L46.73 13.044h3.913l1.674-4.453c.082.184 1.07 4.453 1.07 4.453h4.114s-.748-3.137-1.298-4.405c-.143-.326-.289-.69-.486-.996 1.161-.432 2.846-1.359 3.543-3.237.429-1.155.403-2.089-.073-2.773-.576-.831-1.75-1.239-3.591-1.241h-4.259zm8.026 0c.246.195.46.419.638.675.455.656.63 1.436.526 2.329h2.329l-3.512 9.651h3.509l3.515-9.651h4.508L71.97.392H59.363zm-5.448 2.612h.646c1.181.001 1.62.347 1.221 1.425-.375 1.012-1.05 1.637-2.334 1.637h-.005l-.664-.001 1.136-3.061zm-31.064.063c1.202.001 1.478.698.422 3.585-1.084 2.969-1.871 3.716-3.056 3.716h-.003c-1.153-.001-1.56-.731-.479-3.686.808-2.205 1.852-3.615 3.116-3.615zm20.974 0c1.201.001 1.478.698.422 3.585-1.084 2.969-1.871 3.716-3.056 3.716h-.003c-1.154-.001-1.557-.731-.478-3.686.806-2.205 1.851-3.615 3.115-3.615z" fill="#EE7F00"/></svg>