<svg width="27" height="27" viewBox="0 0 27 27" xmlns="http://www.w3.org/2000/svg"><g fill="none"><path d="M18.35 11.007c-.262.225-.504.578-.746 1.078-.424.877-.729 2.142-.728 3.016 0 .406.08.707.228.903.148.195.363.294.665.295.463.002 1.034-.339 1.5-.926.375-.48.679-1.175.845-1.995l.452-2.047c-.49-.469-.865-.65-1.33-.651a1.295 1.295 0 0 0-.886.327zM13.402.384C6.168.384.303 6.249.303 13.483s5.865 13.099 13.099 13.099c5.581 0 9.007-3.06 9.007-3.06s-1.503-.11-2.509-.486c-1.066-.399-1.683-.922-1.683-.922s2.275.261 4.36-.974c1.969-1.167 3.923-3.512 3.923-7.657C26.501 6.249 20.637.384 13.402.384zM5.87 15.887c.226.264.565.396 1.037.397.708-.001 1.273-.179 1.955-.647l.002-.001.002-.002c.053-.03.092-.053.128-.07a.262.262 0 0 1 .113-.028.15.15 0 0 1 .095.035.396.396 0 0 1 .071.079l.001.001.37.554v.003c.008.016.016.031.022.047.006.017.013.029.015.054a.182.182 0 0 1-.042.109.75.75 0 0 1-.132.119l-.002.001c-.907.631-1.747.912-2.705.911h-.002c-.812 0-1.448-.249-1.877-.734-.43-.485-.65-1.198-.65-2.115 0-1.465.539-2.913 1.435-3.917l.001-.001c.666-.713 1.521-1.102 2.484-1.102.637 0 1.156.187 1.516.534.36.349.556.854.555 1.476.001 1.03-.596 1.878-1.577 2.266-.809.321-1.633.444-3.159.461v.344c-.001.555.117.962.344 1.226zm9.635-5.019a2.855 2.855 0 0 1-.139-.054 1.38 1.38 0 0 0-.256-.028c-.31-.002-.666.215-1.028.638l-.001.001c-.296.334-.482.592-.628.917-.146.325-.252.723-.381 1.333l-.718 3.358c-.008.064-.026.119-.072.155-.046.036-.101.042-.166.043h-.794a.22.22 0 0 1-.122-.033.134.134 0 0 1-.055-.113c0-.008 0-.021.002-.038a1 1 0 0 1 .014-.082l.994-4.643c.106-.518.151-.881.151-1.181 0-.113 0-.181-.024-.357h-.96a.19.19 0 0 1-.125-.038c-.036-.027-.053-.075-.052-.123 0-.014-.001-.052.008-.088.003-.008.005-.018.011-.026l.105-.51v-.001a.294.294 0 0 1 .079-.156.218.218 0 0 1 .157-.053h1.574a.271.271 0 0 1 .183.064.423.423 0 0 1 .115.19c.055.165.077.408.078.762 0 .059 0 .107-.002.161.219-.334.32-.457.52-.644.48-.479 1.026-.748 1.535-.748.113 0 .222.013.315.037a.565.565 0 0 1 .226.105.168.168 0 0 1 .064.126c0 .006 0 .021-.005.034-.004.012-.009.021-.016.035l-.367.839a.287.287 0 0 1-.037.072.115.115 0 0 1-.068.046.185.185 0 0 1-.052.006.097.097 0 0 1-.063-.006zm6.549-.926l-.016.113-1.07 5.044v.001c-.043.171-.075.603-.075.888 0 .066 0 .143.01.251h.974a.173.173 0 0 1 .126.045.149.149 0 0 1 .05.116c0 .03 0 .07-.017.121l-.106.519v.002a.274.274 0 0 1-.083.144.258.258 0 0 1-.168.049h-.947c-.342 0-.597-.069-.765-.242-.167-.172-.237-.433-.237-.791 0-.069 0-.14.006-.226-.679.971-1.465 1.473-2.365 1.473h-.003c-.547 0-.994-.219-1.297-.617-.304-.399-.466-.973-.466-1.684.001-1.279.446-2.828 1.124-3.924.354-.569.722-.98 1.135-1.25.414-.271.874-.395 1.401-.395.356 0 .634.046.888.178.236.121.448.313.686.597l.178-.405c.018-.046.031-.08.058-.109a.15.15 0 0 1 .104-.045l.087-.001h.611c.044 0 .084.015.116.039s.06.059.061.106v.003zM8.859 12.345c.139-.203.208-.438.208-.711 0-.326-.096-.572-.27-.74-.174-.168-.434-.259-.776-.259-.58 0-1.078.243-1.479.703-.39.447-.684 1.104-.853 1.937.843-.004 1.527-.083 2.052-.236.541-.158.91-.391 1.118-.694z" fill="#EC1C24"/><path d="M5.525 14.314c1.526-.017 2.35-.14 3.159-.461.981-.388 1.579-1.236 1.577-2.266 0-.622-.195-1.126-.555-1.476-.359-.347-.879-.534-1.516-.534-.962 0-1.818.389-2.484 1.102l-.001.001c-.896 1.004-1.435 2.452-1.435 3.917 0 .917.22 1.63.65 2.115.43.485 1.066.734 1.877.734h.001c.958 0 1.798-.28 2.705-.911l.002-.001a.75.75 0 0 0 .132-.119.176.176 0 0 0 .042-.109c-.001-.024-.008-.037-.015-.054-.006-.016-.014-.031-.022-.047v-.003l-.37-.554-.001-.001a.46.46 0 0 0-.071-.079.146.146 0 0 0-.095-.035.277.277 0 0 0-.113.028c-.036.018-.075.04-.128.07l-.002.002-.002.001c-.682.469-1.247.646-1.955.647-.472-.001-.812-.134-1.037-.397-.227-.264-.345-.671-.345-1.229v-.341h.002zm.165-1.04c.169-.833.463-1.489.853-1.937.401-.46.899-.702 1.479-.703.342 0 .602.092.776.259.174.168.269.414.27.74 0 .273-.07.508-.208.711-.208.304-.577.537-1.117.693-.526.154-1.21.234-2.053.237zm9.998-2.447a.287.287 0 0 0 .037-.072l.367-.839a.499.499 0 0 0 .016-.035c.005-.013.005-.028.005-.034a.17.17 0 0 0-.064-.126.54.54 0 0 0-.226-.105 1.29 1.29 0 0 0-.315-.037c-.508 0-1.054.269-1.535.748-.2.187-.301.31-.52.644.002-.054.002-.103.002-.161 0-.354-.022-.597-.078-.762a.423.423 0 0 0-.115-.19.271.271 0 0 0-.183-.064h-1.574a.216.216 0 0 0-.157.053.294.294 0 0 0-.079.156v.001l-.105.51c-.006.009-.008.018-.011.026-.009.036-.007.075-.008.088a.152.152 0 0 0 .052.124c.037.029.08.037.125.037h.96c.024.177.024.245.024.357 0 .3-.045.663-.151 1.181l-.994 4.643a1.078 1.078 0 0 0-.014.082l-.002.038a.137.137 0 0 0 .055.113.211.211 0 0 0 .122.033h.794c.064-.001.12-.006.166-.042.045-.037.063-.092.072-.156l.718-3.358c.129-.61.235-1.008.381-1.333.146-.325.332-.583.628-.917h.001v-.001c.362-.423.718-.64 1.028-.638a1.416 1.416 0 0 1 .256.028c.076.03.113.045.139.054a.17.17 0 0 0 .063.011.185.185 0 0 0 .052-.006.15.15 0 0 0 .068-.051zm6.366 5.572a.156.156 0 0 0-.05-.116.18.18 0 0 0-.126-.045h-.974c-.01-.108-.01-.185-.01-.251 0-.285.031-.716.075-.888v-.001l1.07-5.044.016-.113v-.004a.133.133 0 0 0-.061-.106.193.193 0 0 0-.116-.039h-.611l-.087.001a.15.15 0 0 0-.104.045c-.027.029-.04.063-.058.109l-.178.407c-.238-.286-.45-.478-.686-.599-.254-.132-.532-.178-.888-.178-.528 0-.987.124-1.401.395-.413.27-.781.681-1.135 1.25-.678 1.096-1.123 2.645-1.124 3.924 0 .711.162 1.284.466 1.684.303.398.75.617 1.297.617h.003c.9 0 1.686-.502 2.365-1.473-.006.085-.006.157-.006.226 0 .358.07.619.237.791.168.173.422.242.765.242h.947a.254.254 0 0 0 .168-.049.27.27 0 0 0 .083-.144v-.001l.106-.52a.365.365 0 0 0 .017-.12zm-1.49-5.068l-.452 2.047c-.166.82-.47 1.515-.845 1.995-.465.587-1.037.928-1.5.926-.301-.001-.517-.1-.665-.295-.148-.196-.228-.497-.228-.903-.001-.874.304-2.139.728-3.015.242-.5.484-.854.746-1.079.263-.225.544-.326.884-.327.467.001.842.182 1.332.651z" fill="#FFF"/></g></svg>