<svg width="36" height="26" viewBox="0 0 36 26" xmlns="http://www.w3.org/2000/svg"><g fill="none" fill-rule="evenodd"><path fill="#00408A" d="M28.271 13.029l7.787-2.561-7.787-2.527V.627L17.737 4.281 7.56.785v7.012L.006 10.393l7.581 2.616v7.148l10.301-3.585.014-.007 10.369 3.592z"/><path d="M18.272 4.397l7.74 2.65v6.661l-7.768 2.678 9.744 3.372V1.025l-9.716 3.372zM.871 10.393l8.846 3.049-.028-6.078-8.818 3.029zm21.556-2.178h.048c.749-.11.9 1.326.9 1.806 0 .714-.075 1.696-.845 1.937 0 0-.027 0-.055.027-.872.186-.872-1.593-.872-2.122 0-.666.158-1.463.824-1.648zm.048 3.956c.076-.027.131-.027.178-.055.9-.371 1.539-1.408 1.567-2.445v-.157c0-.261-.049-.502-.151-.742-.261-.666-.948-.899-1.594-.769l-.227.082c-.769.315-1.312 1.14-1.441 1.992-.096.631-.048 1.531.542 1.956.337.24.742.24 1.126.138zm-3.921 1.401c.206-.028.515-.234.638-.371.206-.24.439-.686.57-1.215-.261-.082.075.021-.206-.055-.055.213-.179.447-.233.556-.056.083-.179.269-.254.296l-.103.021c-.076-.021-.076-.446-.055-.584V8.856c-.714.315-.844.343-1.586.687.028.164.028.178.021.15.007.034.014.083.028.145l.13-.027a2.5 2.5 0 0 1 .281-.055c.159-.028.159.185.159.453v2.438c0 .289-.055.797.179.879-.001-.003.197.101.431.046zm.028-5.357c.356 0 .639-.316.639-.693 0-.365-.282-.688-.639-.688a.676.676 0 0 0-.666.688c0 .377.281.693.666.693zm-7.026-.926c.309-.055.515-.055.667 0 .082.027.206.159.206.288 0 .083.055.296.055.481v5.913c0 .164.096.981-.873 1.566v.377l3.076-1.009v-.453c-.487 0-.769-.213-.769-.501v-3.316c.33-.083.535-.138.714-.138.158 0 .336.083.432.158a.58.58 0 0 1 .213.296c.021.075.096.288.123.452l.104.502h.234V8.376h-.31c-.028.268-.055.501-.055.556-.02.186-.123.398-.179.535a1.029 1.029 0 0 1-.405.419c-.309.165-.59.212-.899.322V7.235c0-.315 0-.529.309-.715l.103-.054c.508-.316 1.071-.131 1.353.026.309.131.59.797.694 1.326l.054.213h.254V5.188l-5.103 1.778v.323h.002z" fill="#FFF"/><path fill="#00408A" d="M7.607 22.189h2.528v.701H8.542v.626h1.05v.679h-1.05v1.319h-.935zm2.775.983h.817v2.342h-.817v-2.342zm0-.983h.817v.674h-.817v-.674zm2.074 2.672a.293.293 0 0 0 .281.171c.13 0 .227-.055.289-.171.055-.117.083-.288.083-.522 0-.227-.027-.397-.083-.515a.309.309 0 0 0-.289-.165c-.13 0-.22.055-.281.165-.055.118-.09.289-.09.515 0 .234.035.405.09.522zm-.852-.996c.055-.158.145-.288.247-.398.11-.11.24-.192.391-.254a1.29 1.29 0 0 1 .495-.089c.179 0 .344.027.494.089.151.062.282.144.393.254.109.11.191.241.253.392.062.151.089.316.089.494 0 .186-.027.344-.089.495-.062.15-.144.281-.253.392-.11.109-.241.192-.393.254a1.3 1.3 0 0 1-.494.089c-.178 0-.343-.028-.495-.089a1.185 1.185 0 0 1-.391-.254 1.157 1.157 0 0 1-.247-.392 1.27 1.27 0 0 1-.096-.495c.001-.179.034-.336.096-.488zm5.336 1.25c.151 0 .248-.062.302-.186.055-.117.082-.316.082-.583 0-.248-.02-.427-.068-.537-.048-.116-.137-.171-.269-.171a.324.324 0 0 0-.165.042.686.686 0 0 0-.172.129v.914c.001.261.098.392.29.392zm-1.105.22c0-.063.006-.11.006-.158v-2.98h.81v1.243c.097-.103.193-.172.289-.227a.887.887 0 0 1 .329-.068c.289 0 .515.103.674.302.164.206.248.501.248.879 0 .391-.09.7-.269.914a.88.88 0 0 1-.721.329.876.876 0 0 1-.734-.364l-.138.316h-.509c0-.07.008-.131.015-.186zm3.935-.886c-.384.021-.577.144-.577.357 0 .171.082.254.254.254.055 0 .11-.006.165-.028a.81.81 0 0 0 .158-.089v-.494zm.809.947c.008.041.014.076.028.117h-.803a.421.421 0 0 1-.034-.199c-.213.165-.46.254-.728.254a.64.64 0 0 1-.474-.186.66.66 0 0 1-.172-.48c0-.274.11-.488.343-.632.234-.151.57-.227 1.031-.227v-.207a.183.183 0 0 0-.075-.15c-.049-.042-.11-.055-.2-.055a.3.3 0 0 0-.205.068.376.376 0 0 0-.11.206l-.68-.144a.784.784 0 0 1 .344-.467c.164-.103.391-.15.672-.15.364 0 .625.055.797.171.171.11.261.289.261.521v1.435a.739.739 0 0 0 .005.125zm.399-2.224h.804v.344c.15-.124.288-.221.412-.282a.908.908 0 0 1 .398-.089c.226 0 .384.062.474.186.089.13.138.322.138.59v1.594h-.81V24.12a.92.92 0 0 0-.042-.315c-.027-.069-.089-.104-.192-.104a.363.363 0 0 0-.172.055c-.061.035-.13.082-.205.144v1.614h-.804v-2.342h-.001zm2.63-.983h.803v1.848l.797-.865h.817l-.728.755.715 1.587h-.9l-.419-.969-.282.295v.674h-.803zm3.873 2.26c-.377.021-.57.144-.57.357 0 .171.083.254.247.254a.392.392 0 0 0 .165-.028.65.65 0 0 0 .158-.089v-.494zm.81.947c.007.041.021.076.027.117h-.803a.513.513 0 0 1-.034-.199 1.16 1.16 0 0 1-.728.254.614.614 0 0 1-.467-.186.673.673 0 0 1-.179-.48c0-.274.117-.488.344-.632.233-.151.576-.227 1.03-.227v-.207c0-.061-.021-.116-.069-.15-.047-.042-.116-.055-.206-.055a.299.299 0 0 0-.199.068.306.306 0 0 0-.11.206l-.686-.144a.816.816 0 0 1 .35-.467c.165-.103.384-.15.673-.15.357 0 .625.055.796.171.165.11.255.289.255.521v1.435c0 .043 0 .084.006.125z"/></g></svg>