<svg width="44" height="17" viewBox="0 0 44 17" xmlns="http://www.w3.org/2000/svg"><g fill="none"><path d="M.139 14.901l.445-.045c.026.15.081.261.164.331a.49.49 0 0 0 .331.105c.148 0 .259-.031.334-.094a.283.283 0 0 0 .112-.22c0-.054-.016-.1-.048-.138a.38.38 0 0 0-.164-.098 5.14 5.14 0 0 0-.365-.099c-.245-.06-.416-.135-.516-.223a.59.59 0 0 1-.11-.779c.066-.1.16-.177.283-.229.123-.053.271-.079.446-.079.285 0 .499.062.643.188.145.125.22.292.227.501l-.459.018c-.02-.116-.062-.2-.125-.252-.064-.051-.162-.076-.291-.076a.524.524 0 0 0-.313.082.163.163 0 0 0-.072.141c0 .054.021.1.067.138.058.049.198.1.421.151a2.2 2.2 0 0 1 .494.163.655.655 0 0 1 .25.231.67.67 0 0 1 .091.362.673.673 0 0 1-.415.62 1.275 1.275 0 0 1-.494.083c-.287 0-.508-.067-.661-.201-.154-.131-.245-.325-.275-.581zm2.321-1.126v-.4h.437v.4H2.46zm0 1.869v-1.643h.437v1.643H2.46zm2.475 0h-.438v-.84c0-.178-.009-.293-.027-.345a.26.26 0 0 0-.09-.122.25.25 0 0 0-.15-.043.345.345 0 0 0-.203.062.31.31 0 0 0-.121.164 1.434 1.434 0 0 0-.033.379v.745h-.438v-1.643h.406v.241a.651.651 0 0 1 .541-.281c.096 0 .184.017.264.052a.443.443 0 0 1 .18.132c.04.055.069.115.085.183.017.069.024.166.024.293v1.023zm.491.108l.495.054c.008.062.027.104.057.127.042.032.107.049.196.049.114 0 .2-.017.257-.051a.213.213 0 0 0 .086-.11.632.632 0 0 0 .021-.2l.001-.24a.585.585 0 0 1-.49.263.608.608 0 0 1-.525-.28.955.955 0 0 1-.152-.552c0-.276.068-.487.2-.633a.642.642 0 0 1 .495-.218c.203 0 .371.089.503.268v-.228h.405v1.477c0 .194-.016.34-.048.436a.55.55 0 0 1-.135.227.583.583 0 0 1-.231.128 1.195 1.195 0 0 1-.367.047c-.279 0-.477-.048-.594-.144a.46.46 0 0 1-.174-.366.485.485 0 0 1 0-.054zm.391-.965c0 .175.033.303.1.384.068.081.15.122.248.122a.344.344 0 0 0 .268-.125c.073-.084.109-.207.109-.37 0-.171-.035-.297-.104-.38a.33.33 0 0 0-.265-.124.32.32 0 0 0-.256.122c-.066.081-.1.205-.1.371zm1.68.857v-2.268h.436v2.268zm1.934-.518l.432.072a.7.7 0 0 1-.265.362.777.777 0 0 1-.452.125c-.287 0-.499-.094-.637-.281a.947.947 0 0 1-.162-.568c0-.273.07-.487.214-.643a.705.705 0 0 1 .541-.231c.245 0 .438.081.58.243.143.163.21.411.204.746H8.792c.002.13.038.23.105.302a.334.334 0 0 0 .254.108.277.277 0 0 0 .174-.056.35.35 0 0 0 .106-.179zm.022-.441a.432.432 0 0 0-.097-.291.305.305 0 0 0-.229-.1.3.3 0 0 0-.236.105.403.403 0 0 0-.092.286h.654zm1.86.959v-2.268h1.68v.382h-1.221v.504h1.136v.383h-1.136v.617h1.266v.382zm3.286 0v-.245a.65.65 0 0 1-.236.208.661.661 0 0 1-.609.005.432.432 0 0 1-.19-.204.922.922 0 0 1-.059-.365v-1.042h.437v.756c0 .231.008.372.023.425a.235.235 0 0 0 .088.124c.042.03.097.045.161.045.074 0 .141-.02.199-.061.06-.041.1-.091.121-.151.021-.06.032-.208.032-.444v-.693h.437v1.643h-.404v-.001zm1.365 0h-.438v-1.643h.405v.233a.745.745 0 0 1 .187-.22.336.336 0 0 1 .188-.054c.1 0 .194.027.287.082l-.134.38a.379.379 0 0 0-.205-.07.24.24 0 0 0-.154.05c-.043.033-.076.094-.102.182-.023.088-.035.272-.035.551v.509h.001zm.806-.845c0-.145.035-.285.106-.421a.733.733 0 0 1 .303-.311.901.901 0 0 1 .438-.106c.248 0 .453.08.611.243a.838.838 0 0 1 .238.614c0 .25-.08.456-.24.621a.812.812 0 0 1-.605.246.944.944 0 0 1-.432-.103.707.707 0 0 1-.313-.301 1.004 1.004 0 0 1-.106-.482zm.445.023c0 .164.039.289.116.376a.372.372 0 0 0 .287.131.37.37 0 0 0 .287-.131c.076-.087.115-.213.115-.379 0-.162-.039-.286-.115-.373a.373.373 0 0 0-.287-.13.37.37 0 0 0-.287.13c-.077.087-.116.213-.116.376zm2.673.822v-2.268h.736c.277 0 .459.011.543.034.131.034.24.108.327.223a.71.71 0 0 1 .132.441c0 .14-.025.257-.076.352a.643.643 0 0 1-.43.331 2.555 2.555 0 0 1-.474.033h-.299v.854h-.459zm.459-1.886v.648h.25c.18 0 .301-.012.361-.036a.305.305 0 0 0 .196-.291.297.297 0 0 0-.073-.206.32.32 0 0 0-.184-.101 2.226 2.226 0 0 0-.329-.016h-.221v.002zm2.064.742l-.391-.072a.61.61 0 0 1 .229-.354c.107-.076.269-.114.481-.114.195 0 .34.022.435.068a.427.427 0 0 1 .2.176c.039.07.059.2.059.39l-.005.508c0 .146.007.252.021.32a.98.98 0 0 0 .078.221h-.432a1.393 1.393 0 0 1-.041-.127l-.016-.05a.79.79 0 0 1-.238.163.687.687 0 0 1-.271.055.557.557 0 0 1-.4-.139.464.464 0 0 1-.146-.349c0-.093.022-.176.066-.248a.428.428 0 0 1 .188-.168c.079-.039.194-.073.347-.102.202-.038.343-.074.422-.107v-.043c0-.085-.021-.146-.063-.182-.042-.036-.119-.054-.234-.054a.325.325 0 0 0-.184.045.352.352 0 0 0-.105.163zm.586.356a2.5 2.5 0 0 1-.265.066.794.794 0 0 0-.236.076.184.184 0 0 0-.085.154c0 .061.023.113.068.158a.24.24 0 0 0 .173.066.373.373 0 0 0 .224-.077.27.27 0 0 0 .104-.145.827.827 0 0 0 .018-.214v-.084h-.001zm.74-.855h.465l.394 1.167.385-1.167h.45l-.58 1.581-.105.289a1.09 1.09 0 0 1-.109.22.486.486 0 0 1-.119.124.518.518 0 0 1-.166.073.836.836 0 0 1-.223.027c-.083 0-.166-.009-.246-.027l-.04-.34c.067.013.13.02.185.02.102 0 .177-.03.227-.09a.62.62 0 0 0 .111-.229l-.629-1.648zm2.034 0h.401v.225c.144-.177.315-.265.513-.265a.488.488 0 0 1 .465.261.76.76 0 0 1 .235-.197.573.573 0 0 1 .268-.064c.12 0 .223.024.307.073a.453.453 0 0 1 .188.216.94.94 0 0 1 .045.341v1.052h-.437v-.941c0-.163-.015-.268-.044-.316-.041-.063-.104-.093-.187-.093a.295.295 0 0 0-.172.055.322.322 0 0 0-.116.164 1.217 1.217 0 0 0-.035.341v.79h-.437v-.902c0-.16-.008-.263-.023-.31a.2.2 0 0 0-.071-.104.225.225 0 0 0-.132-.034.327.327 0 0 0-.183.054.29.29 0 0 0-.113.156 1.133 1.133 0 0 0-.036.34v.8h-.437v-1.642h.001zm3.904 1.125l.432.072a.718.718 0 0 1-.266.362.777.777 0 0 1-.452.125c-.286 0-.499-.094-.637-.281a.947.947 0 0 1-.163-.568c0-.273.072-.487.214-.643a.708.708 0 0 1 .542-.231c.246 0 .438.081.58.243.143.163.21.411.204.746h-1.095c.004.13.039.23.106.302a.335.335 0 0 0 .253.108.273.273 0 0 0 .174-.056.344.344 0 0 0 .108-.179zm.021-.441c-.003-.127-.035-.225-.098-.291a.305.305 0 0 0-.228-.1.303.303 0 0 0-.237.105.412.412 0 0 0-.092.286h.655zm2.375.959h-.437v-.84c0-.178-.01-.293-.028-.345a.241.241 0 0 0-.09-.122.257.257 0 0 0-.15-.043.34.34 0 0 0-.324.226 1.48 1.48 0 0 0-.033.379v.745h-.437v-1.643h.405v.241a.657.657 0 0 1 .542-.281c.096 0 .184.017.263.052.078.034.14.078.181.132a.52.52 0 0 1 .085.183c.016.069.023.166.023.293v1.023zm1.288-1.643v.347h-.297v.665c0 .135.003.213.008.236.007.021.019.04.038.055a.118.118 0 0 0 .072.021c.04 0 .098-.014.172-.042l.038.338a.88.88 0 0 1-.342.064.52.52 0 0 1-.21-.04.31.31 0 0 1-.139-.102.403.403 0 0 1-.062-.17 2.203 2.203 0 0 1-.013-.307v-.718h-.198v-.347h.198v-.328l.437-.257v.585h.298zm.245 1.18l.438-.068a.312.312 0 0 0 .112.191.385.385 0 0 0 .238.066.43.43 0 0 0 .253-.063.136.136 0 0 0 .059-.116.119.119 0 0 0-.032-.083c-.021-.021-.07-.04-.146-.058-.353-.078-.575-.149-.671-.213a.425.425 0 0 1-.195-.371.46.46 0 0 1 .169-.36c.114-.098.289-.146.526-.146.227 0 .395.036.504.108.11.073.186.181.228.323l-.409.076a.26.26 0 0 0-.102-.146.373.373 0 0 0-.212-.052.48.48 0 0 0-.249.049c-.033.023-.051.052-.051.089 0 .031.016.058.045.08.039.029.176.07.407.123.233.054.396.118.487.195a.404.404 0 0 1 .138.325.498.498 0 0 1-.19.39c-.125.109-.311.164-.558.164-.224 0-.401-.045-.531-.136a.625.625 0 0 1-.258-.367zm5.035.463h-.494l-.196-.513h-.914l-.187.513h-.486l.878-2.268h.483l.916 2.268zm-.841-.896l-.317-.842-.307.842h.624zm1.592.896h-.438v-1.643h.405v.233a.73.73 0 0 1 .187-.22.334.334 0 0 1 .188-.054c.099 0 .194.027.286.082l-.133.38a.39.39 0 0 0-.205-.07.247.247 0 0 0-.156.05c-.041.033-.074.094-.1.182-.024.088-.035.272-.035.551v.509h.001zm1.867-.518l.433.072a.728.728 0 0 1-.265.362.78.78 0 0 1-.453.125c-.287 0-.499-.094-.637-.281a.947.947 0 0 1-.162-.568c0-.273.07-.487.214-.643a.706.706 0 0 1 .541-.231c.245 0 .438.081.581.243.142.163.209.411.203.746h-1.094c.004.13.039.23.106.302a.33.33 0 0 0 .253.108.272.272 0 0 0 .173-.056.35.35 0 0 0 .107-.179zm.022-.441c-.003-.127-.036-.225-.099-.291a.3.3 0 0 0-.227-.1.3.3 0 0 0-.236.105.403.403 0 0 0-.092.286h.654zm1.2-.185l-.392-.072a.63.63 0 0 1 .229-.354c.108-.076.27-.114.483-.114.193 0 .338.022.433.068a.425.425 0 0 1 .201.176c.039.07.059.2.059.39l-.006.508c0 .146.008.252.021.32.014.069.04.143.078.221h-.432a1.333 1.333 0 0 1-.042-.127.629.629 0 0 0-.016-.05.695.695 0 0 1-.508.218.55.55 0 0 1-.399-.139.457.457 0 0 1-.146-.349.436.436 0 0 1 .252-.416c.08-.039.196-.073.347-.102a2.38 2.38 0 0 0 .423-.107v-.043c0-.085-.021-.146-.063-.182-.042-.036-.12-.054-.235-.054a.32.32 0 0 0-.182.045.36.36 0 0 0-.105.163zm.586.356a2.5 2.5 0 0 1-.265.066.774.774 0 0 0-.235.076.18.18 0 0 0-.086.154c0 .061.023.113.068.158a.238.238 0 0 0 .173.066.38.38 0 0 0 .225-.077.278.278 0 0 0 .103-.145.876.876 0 0 0 .018-.214v-.084h-.001zM9.78 4.461H6.806c0-.487-.057-.814-.171-.981-.177-.247-.666-.37-1.465-.37-.775 0-1.29.071-1.542.213-.25.143-.376.453-.376.93 0 .432.111.717.335.853.159.097.37.154.633.171l.601.042c1.283.086 2.087.146 2.406.18 1.017.103 1.754.373 2.211.811.359.342.573.788.643 1.34.039.33.06.703.06 1.117 0 .956-.093 1.656-.274 2.1-.33.814-1.074 1.329-2.232 1.544-.484.092-1.225.138-2.223.138-1.665 0-2.824-.1-3.479-.299-.804-.244-1.335-.738-1.591-1.482-.143-.414-.214-1.104-.214-2.07h2.973l.001.247c0 .515.147.847.443.995.205.102.452.155.743.162h1.093c.559 0 .914-.028 1.067-.086.273-.107.452-.28.539-.52.044-.147.067-.338.067-.571 0-.522-.191-.841-.572-.955-.142-.045-.805-.108-1.988-.188-.95-.067-1.61-.133-1.979-.196C1.54 7.404.892 7.03.569 6.461.285 5.978.142 5.248.142 4.27c0-.744.076-1.341.23-1.79.153-.45.402-.79.743-1.023C1.617 1.1 2.258.889 3.038.826 3.688.77 4.409.741 5.201.741c1.247 0 2.137.072 2.667.214 1.293.347 1.939 1.321 1.939 2.92.001.127-.008.324-.027.586zm13.072 8.086V.674h5.953c.816 0 1.439.066 1.867.2.979.307 1.636.935 1.973 1.884.174.498.261 1.248.261 2.25 0 1.204-.097 2.07-.287 2.597-.382 1.042-1.168 1.642-2.354 1.797-.14.023-.734.044-1.781.061l-.531.018h-1.904v3.066h-3.197zm3.196-5.82h1.992c.631-.022 1.016-.071 1.152-.146.189-.104.316-.313.38-.624.04-.208.061-.517.061-.926 0-.502-.04-.875-.12-1.117-.115-.341-.391-.549-.826-.623a6.215 6.215 0 0 0-.62-.018h-2.019v3.454zm13.68 3.768h-4.272l-.574 2.052h-3.306L35.142.674h4.82l3.611 11.873h-3.236l-.609-2.052zm-.635-2.313l-1.498-5.147-1.453 5.147h2.951z" fill="#004A97"/><path d="M18.442 2.345c1.316 0 2.492.606 3.267 1.558l.688-1.478a6.036 6.036 0 0 0-4.16-1.646c-2.518 0-4.672 1.521-5.556 3.673h-1.343l-.793 1.701h1.728a5.346 5.346 0 0 0-.021.476c0 .195.011.387.029.578h-.868l-.793 1.701h2.103c.909 2.098 3.036 3.571 5.515 3.571a6.06 6.06 0 0 0 3.367-1.013V9.381a4.206 4.206 0 0 1-6.686-.473h4.403l.794-1.701h-5.845a4.459 4.459 0 0 1-.026-1.054h6.361l.793-1.701h-6.604a4.214 4.214 0 0 1 3.647-2.107z" fill="#FCC200"/><path d="M18.442 2.395c1.255 0 2.432.561 3.227 1.54l.051.063.035-.074.689-1.478.016-.032-.027-.026a6.08 6.08 0 0 0-4.195-1.66c-1.229 0-2.41.359-3.419 1.038a5.94 5.94 0 0 0-2.184 2.666l.047-.031h-1.376l-.014.029-.793 1.701-.033.072h1.808l-.052-.056a6.083 6.083 0 0 0-.021.481c0 .191.011.387.03.583l.051-.056h-.9l-.013.029-.795 1.701-.033.072h2.183l-.047-.031c.948 2.188 3.132 3.603 5.562 3.603a6.104 6.104 0 0 0 3.396-1.022l.021-.015V9.245l-.089.102a4.152 4.152 0 0 1-6.605-.468l-.043.079h4.436l.014-.029.793-1.701.033-.072h-5.924l.051.044a4.323 4.323 0 0 1-.025-1.042l-.051.046h6.394l.013-.029.794-1.701.034-.072h-6.685l.044.077a4.179 4.179 0 0 1 3.602-2.084zm-3.646 2.109H21.4l-.047-.073-.792 1.701.046-.03H14.2l-.005.046a4.462 4.462 0 0 0 .026 1.067l.008.043h5.888l-.046-.073-.793 1.701.045-.03h-4.496l.051.079a4.253 4.253 0 0 0 6.767.48l-.09-.034v2.085l.022-.042a6.003 6.003 0 0 1-3.339 1.004c-2.391 0-4.535-1.39-5.468-3.54l-.014-.031H10.62l.047.073.793-1.701-.047.03h.924l-.005-.056a5.848 5.848 0 0 1-.029-.573c0-.144.007-.299.021-.472l.005-.056h-1.784l.045.073.794-1.701-.046.03h1.377l.013-.032a5.839 5.839 0 0 1 2.146-2.622A5.999 5.999 0 0 1 18.236.83c1.547 0 3.012.579 4.125 1.631l-.012-.059-.688 1.478.085-.011a4.247 4.247 0 0 0-3.306-1.577 4.283 4.283 0 0 0-3.691 2.134l-.044.077h.091v.001z" fill="#004A97"/></g></svg>