<svg xmlns="http://www.w3.org/2000/svg" width="76" height="21" viewBox="0 0 76 21"><g fill="none"><path fill="#1A171B" d="M.162.727h19.689v19.689H.162z"/><path fill="#FFEC00" d="M.731 1.297h18.55v18.549H.731z"/><path fill="#1A171B" d="M1.715 16.099l2.42 2.466 5.67-5.752 5.859 5.871 2.455-2.431-5.801-5.8 1.115-1.079V7.073l.7-.593v1.802l.901.735 2.692-2.691.866.664c.509-1.886-2.443-6.168-4.888-3.795l-2.846 2.822.58.701-1.446 1.411-1.398-1.376.734-.664L6.21 3.076C3.86 1.142 1.452 4.084 1.37 6.954l.854-.711 2.621 2.822.938-.783V6.551l.581.439v2.266l1.139 1.138-5.788 5.705zM22.792 1.391V1.39h3.061c2.668.036 3.617 3.405 1.079 4.639l2.193 3.095h-2.467L24.88 6.609v2.515h-2.088V1.391zm2.088 1.696v1.708h.734c1.009-.19.735-1.637 0-1.708h-.734zm7.128.463c.569 0 1.103.19 1.541.498v-.296h2.041l.012 5.373h-2.063l.011-.332a2.667 2.667 0 0 1-1.541.486c-1.518 0-2.764-1.281-2.764-2.858-.001-1.579 1.245-2.871 2.763-2.871zm.438 1.707c-.675 0-1.233.522-1.233 1.163s.557 1.163 1.233 1.163c.688 0 1.245-.522 1.245-1.163s-.557-1.163-1.245-1.163zm4.235-1.506h2.17v5.373h-2.17V3.751zM37.771.68a1.15 1.15 0 1 1 0 2.3 1.15 1.15 0 0 1 0-2.3zm16.475 3.071h2.171v5.373h-2.171V3.751zM55.325.68a1.15 1.15 0 0 1 0 2.3 1.148 1.148 0 0 1-1.138-1.15A1.148 1.148 0 0 1 55.325.68zM39.254 3.751l.666-.012V2.79C39.907.892 41.757.05 43.489.56v1.756c-.521-.356-1.423-.177-1.398.261v1.174h1.85v-.949C43.929 1.058 45.542-.069 47.534.56v1.756c-.355-.356-1.387-.177-1.351.261v1.198h1.411v1.661H46.24v3.688h-2.17V5.459h-1.968v3.665h-2.101V5.459h-.747V3.751zm11.434 5.527c-1.661.012-3.013-1.233-3.014-2.821 0-1.59 1.162-2.895 3.013-2.895 1.85 0 3.014 1.031 3.014 3.214h-3.986c-.059.889 1.186 1.684 2.04.592h1.886c-.403 1.128-1.09 1.898-2.953 1.91zm-.701-3.771h1.542c-.095-.652-1.518-.652-1.542 0zm15.479 3.771c-1.66.012-3.013-1.233-3.013-2.821 0-1.59 1.163-2.895 3.013-2.895 1.863 0 3.013 1.031 3.013 3.214h-3.985c-.06.889 1.186 1.684 2.039.592h1.898c-.402 1.128-1.091 1.898-2.965 1.91zm-.699-3.771h1.542c-.096-.652-1.52-.652-1.542 0zm-2.882-1.649l-.642 1.305c-.806-.249-1.589-.202-1.564.023.022.142-.106.391 1.15.569 1.874.296 1.72 3.783-1.424 3.522-.866-.059-1.565-.284-2.146-.629l.699-1.399c.985.486 1.934.771 2.006.285.082-.605-1.033-.392-1.71-.902-1.209-.747-.521-3.06 1.46-3.083.699-.046 1.423.071 2.171.309zm7.424-.107h1.947v.403c1.79-1.198 3.77-.284 3.817 1.602v3.368h-2.051V5.839c-.013-.961-1.624-.818-1.684 0v3.285h-2.029V3.751zm-45.32 8.658l3.367-.036c1.697.024 2.503 2.218.927 3.677 1.849 1.103.783 4.329-1.815 4.329h-3.831l1.352-7.97zm1.555 4.757l-.272 1.316h.888c1.009.047.891-1.316.31-1.316h-.926zm.45-2.858l-.227 1.067.274.012c.817.047 1.293-1.079.308-1.079h-.355zm3.155 6.084l4.14-7.935h2.194l1.861 7.959h-2.146l-.393-1.423h-2.632l-.7 1.399h-2.324zm3.784-3.072h1.446l-.462-2.1-.984 2.1zm5.147 3.096h2.146l.546-4.993 3.071 4.969h2.302l.96-7.982h-2.146l-.605 4.993-3.071-5.017h-2.217l-.986 8.03zm10.567-8.031l-1.507 8.006h2.266l.605-2.989 2.028 2.989h2.978l-2.906-4.198 3.712-3.819h-2.882l-2.538 2.822.403-2.822-2.159.011z"/></g></svg>