<svg width="78" height="15" viewBox="0 0 78 15" xmlns="http://www.w3.org/2000/svg"><path d="M3.207 6.308C2.06 5.877.721 5.251.721 3.39c0-1.728 1.191-3.023 4.02-3.023 1.639 0 2.517.373 2.815.491-.029.7-.029 1.326 0 2.026h-.581l-.179-.507c-.268-.76-.729-1.325-1.936-1.325-1.563 0-2.056.744-2.056 1.638 0 .953.461 1.296 1.475 1.684l1.43.535c1.548.582 2.354 1.43 2.354 3.068 0 1.549-1.043 3.217-4.17 3.217-1.639 0-2.74-.357-3.039-.476.03-.7.03-1.549 0-2.25h.655l.18.73c.208.775.715 1.311 2.129 1.311 1.325 0 2.116-.655 2.116-1.832 0-.879-.418-1.505-1.326-1.847l-1.401-.522zM13.095.56c2.071 0 3.888.238 3.888 2.383 0 1.46-.982 2.086-2.114 2.309 1.354.09 2.487 1.028 2.487 2.592 0 2.561-1.728 3.142-4.334 3.142H9.076v-.329c.521-.118.595-.267.595-.833V1.722c0-.566-.074-.715-.595-.834V.56h4.019zm-1.191 4.393h.982c1.207 0 1.832-.432 1.832-1.832 0-1.399-.596-1.905-1.743-1.905h-.431c-.552 0-.641.163-.641.61v3.127h.001zm0 .655v3.857c0 .671.135.865.878.865h.403c1.207 0 1.876-.76 1.876-2.383 0-1.564-.581-2.339-2.234-2.339h-.923zm10.157-4.392c-.445 0-.521.119-.521.476v3.231h1.386c.58 0 1.489-.059 1.847-.313v1.311c-.357-.253-1.267-.313-1.847-.313H21.54v3.888c0 .625.254.834 1.624.834h.298c1.355 0 1.712-.09 2.011-1.386l.09-.387h.654a33.891 33.891 0 0 0 0 2.428h-7.506v-.329c.521-.118.597-.267.597-.833V1.721c0-.566-.075-.715-.597-.834V.559h7.269c-.03.76-.03 1.505 0 2.264h-.565l-.135-.432c-.328-1.072-.7-1.176-2.056-1.176h-1.163v.001zm14.327 9.769h-2.859c-.179-.552-.982-2.651-1.281-3.396l-.565-1.4h-1.222v3.634c0 .566.075.715.597.833v.329h-3.426v-.329c.521-.118.596-.267.596-.833V1.721c0-.566-.074-.715-.596-.834V.559h4.154c2.234 0 3.784.536 3.784 2.741 0 1.519-.88 2.234-1.833 2.576.194.389 1.801 3.857 2.651 5.109zm-4.974-5.45c1.444 0 1.86-.746 1.86-2.175 0-1.504-.669-2.144-1.652-2.144h-.506c-.447 0-.656.074-.656.565v3.753h.954v.001zM41.376.56c2.069 0 3.887.238 3.887 2.383 0 1.46-.981 2.086-2.114 2.309 1.355.09 2.486 1.028 2.486 2.592 0 2.561-1.726 3.142-4.333 3.142h-3.945v-.329c.52-.118.595-.267.595-.833V1.722c0-.566-.075-.715-.595-.834V.56h4.019zm-1.19 4.393h.982c1.207 0 1.832-.432 1.832-1.832 0-1.399-.596-1.905-1.742-1.905h-.433c-.55 0-.64.163-.64.61v3.127h.001zm0 .655v3.857c0 .671.133.865.878.865h.402c1.206 0 1.876-.76 1.876-2.383 0-1.564-.581-2.339-2.233-2.339h-.923zm13.105 5.377c-.09-.566-.418-1.609-.7-2.443l-.447-1.326h-3.306c-.343 1.042-.597 1.891-.73 2.487-.119.596-.209 1.043-.224 1.281h-1.891c.253-.402.729-1.326 1.444-3.068l1.921-4.735c.433-1.058.507-1.386.507-1.683 0-.209-.061-.492-.597-.611V.559h2.979c.044.313.074.671.388 1.549l2.188 6.24c.433 1.222.894 2.265 1.117 2.637h-2.649zM51.92 6.517l-1.4-4.199-1.444 4.199h2.844zm6.464-4.08v7.387c0 .566.148.715.745.833v.329h-2.532v-.329c.596-.118.743-.267.743-.833V1.722c0-.566-.163-.76-.743-.834V.56h3.171c.224.388.627 1.028 1.58 2.383l3.142 4.334V1.722c0-.566-.148-.715-.745-.834V.56h2.533v.328c-.596.119-.746.268-.746.834v9.338h-.982l-6.166-8.623zm9.919-.715c0-.566-.075-.715-.597-.834V.56h3.426v.328c-.521.119-.597.268-.597.834v8.102c0 .566.076.715.597.833v.329h-3.426v-.329c.521-.118.597-.267.597-.833V1.722zm5.539 4.691c.73 1.028 2.428 3.32 3.663 4.572h-3.499c-.254-.552-.625-1.46-1.714-3.099l-1.577-2.367 1.369-1.773c.82-1.057 1.878-2.472 2.159-3.187h2.443v.015c-.983.566-2.636 2.234-3.113 2.756l-1.087 1.161 1.356 1.922zM.85 13.591h76.655v1.043H.85z" fill="#063"/></svg>