<svg xmlns="http://www.w3.org/2000/svg" width="737" height="284" viewBox="0 0 737 284"><g fill="none"><path fill="#22A047" d="M556.836 284h180.172V.536H556.836z"/><path fill="#BD242E" d="M414.904 284h121.328V.536H414.904z"/><path fill="#EB8B2D" d="M238.264 284h176.64V.536h-176.64z"/><path fill="#DA322A" d="M0 284h208.067V.536H0z"/><path fill="#161714" d="M208.067 284h30.197V.536h-30.197z"/><path fill="#1E71AB" d="M536.232 284h20.604V.536h-20.604z"/><path fill="#FFF" d="M281.189 136.265h12.037c8.066 0 12.6-1.175 15.652-4.047 2.65-2.476 3.832-6.178 3.832-12.003 0-3.429-.727-8.158-4.198-11.22-2.926-2.745-7.577-3.87-16.051-3.87h-11.272v31.14zm0 50.981h14.717c16.562 0 22.729-4.664 22.729-17.197 0-5.865-1.44-9.975-4.389-12.557-3.764-3.198-8.848-4.446-18.154-4.446h-14.903v34.2zm-27.664 20.026V105.125H241.88V85.287h55.172c17.304 0 27.208 2.53 34.166 8.734 6.117 5.507 9.348 13.181 9.348 22.188 0 11.019-5.151 20.1-14.134 24.913l-.608.326.663.193c13.958 4.144 21.335 14.428 21.335 29.744 0 14.689-5.655 24.655-17.299 30.482-7.302 3.739-17.217 5.405-32.137 5.405h-44.861zm269.184 0v-57.08c0-5.788-.488-9.814-2.949-13.222-2.457-3.222-6.463-4.921-11.569-4.921-5.308 0-9.642 1.967-12.545 5.698-3.064 4.029-3.695 9.265-3.695 15.882v53.643h-26.523V132.62h-11.076v-19.077h27.109l4.366 11.263.3-.374c6.651-8.13 16.994-12.604 29.131-12.604 11.084 0 20 3.161 25.798 9.143 5.646 6.019 8.169 13.794 8.169 25.211v61.09h-26.516zm119.688 1.145c-10.126 0-16.354-3.88-22.251-13.834l-17.012-28.553h-8.094v41.242h-26.519V94.626h-11.073V75.548h37.592v70.648h9.231l18.904-32.653h26.505l-24.382 41.8 18.153 30.071c2.311 3.842 4.049 5.075 7.159 5.075 2.38 0 5.098-.91 7.113-2.376l.957-.695-.838 16.523-.208.159c-3.484 2.665-9.324 4.317-15.237 4.317zm-420.469.034c-7.831 0-13.448-2.265-16.689-6.725-2.364-3.275-3.56-8.4-3.56-15.226v-36.308c0-5.898-.192-9.733-2.759-13.222-2.398-3.131-6.474-4.921-11.197-4.921-4.874 0-9.235 2.007-11.961 5.507-2.633 3.505-3.701 8.051-3.701 15.69v54.026h-26.522v-57.08c0-5.902-.186-9.737-2.755-13.222-2.397-3.131-6.472-4.921-11.187-4.921-4.887 0-9.246 2.007-11.965 5.507-2.63 3.505-3.702 8.049-3.702 15.69v54.026H89.408V132.62h-11.08v-19.077h27.114l4.342 11.215.31-.394c6.124-7.97 16.602-12.536 28.757-12.536 12.791 0 22.114 4.006 27.71 11.911l.206.297.238-.277c3.779-4.457 12.428-11.931 27.983-11.931 12.589 0 22.455 4.22 27.757 11.888 3.819 5.423 5.444 12.201 5.444 22.66v38.98c0 4.552 2.047 5.163 4.047 5.163 2.114 0 5.459-1.273 6.917-2.365l.964-.726-.842 15.989-.232.159c-3.439 2.356-9.742 4.875-17.115 4.875zm178.738-47.004c-9.957 0-15.664 5.504-15.664 15.09 0 9.475 5.081 14.909 13.942 14.909 4.292 0 8.182-1.538 10.661-4.213 2.399-2.584 3.671-6.481 3.671-11.264v-12.407l-.186-.066c-2.748-.989-7.806-2.049-12.424-2.049zm-8.973 47.542c-20.605 0-33.405-11.994-33.405-31.299 0-19.965 13.776-31.879 36.844-31.879 5.802 0 12.614 1.038 17.771 2.708l.373.118v-1.69c0-6.534-.909-9.882-3.489-12.801-2.793-3.166-7.853-4.775-15.037-4.775-9.091 0-18.831 2.42-27.428 6.815l-.83.417v-18.465l.338-.15c8.699-3.975 20.042-6.16 31.934-6.16 14.928 0 25.608 3.234 32.647 9.889 5.725 5.34 8.386 12.992 8.386 24.086v39.521c0 3.669 1.11 5.165 3.825 5.165 2.126 0 5.693-1.304 7.112-2.37l.977-.735-1.054 16.001-.211.154c-4.298 3.008-10.937 4.878-17.32 4.878-7.95 0-13.94-3.196-16.435-8.765l-.177-.392-.295.318c-5.24 5.894-14.41 9.411-24.526 9.411z"/></g></svg>