<svg width="54" height="23" viewBox="0 0 54 23" xmlns="http://www.w3.org/2000/svg"><g fill="none" fill-rule="evenodd"><path fill="#00528E" d="M40.399 22.41h1.632v-4.248l2.45 4.248h1.661v-6.779H44.51v4.197l-2.373-4.197h-1.738zm10.416-6.775l-2.522-.004-2.04 6.779h1.914l.363-1.323h2.085l.371 1.323h1.954l-2.125-6.775zm-1.871 3.974l.615-2.237.628 2.237h-1.243zM36.155 22.41h3.935v-1.391h-2.148v-5.388h-1.787zm-.475-5.298V15.62h-3.585a.847.847 0 0 0-.846.848v5.094c0 .47.379.85.846.85l.005-.001h3.58v-1.496h-2.739v-1.137h2.527v-1.497h-2.527v-1.168h2.739v-.001zm-9.933-1.481h-1.789v6.78h1.789zm.683 0v1.522h1.282v5.257h1.915l.001-5.257h1.293v-1.522zm-12.043 6.857c1.885 0 3.129-1.393 3.129-3.49 0-2.106-1.244-3.499-3.129-3.499-1.883 0-3.137 1.393-3.137 3.499 0 2.098 1.254 3.49 3.137 3.49zm0-5.615c.891 0 1.43.792 1.43 2.125 0 1.324-.539 2.117-1.43 2.117-.899 0-1.429-.793-1.429-2.117 0-1.333.529-2.125 1.429-2.125zM8.409 18.49h-.652v-1.532h.702c.435 0 .961.087.961.719 0 .737-.493.813-1.011.813zm-2.273 3.917h1.622v-2.566c1.414-.038 3.359.125 3.359-2.125 0-1.433-.965-2.091-2.122-2.091H6.136v6.782zm-2.855-1.24c.371-.012.912-.117.895-.633-.036-1.011-3.199-.366-3.284-2.799-.049-1.421 1.131-2.188 2.364-2.23.996-.036 1.759.28 2.404 1.1l-1.03.848c-.443-.464-.704-.684-1.357-.66-.281.009-.701.205-.688.558.035 1.04 3.221.309 3.308 2.779.05 1.451-1.025 2.32-2.321 2.364-1.187.042-2.25-.255-2.959-1.329l1.104-.87c.448.625.794.9 1.564.872zm18.717-1.934c.622-.314 1.021-.86 1.021-1.662 0-1.394-.998-1.956-2.112-1.956h-3.029v6.796h1.667v-2.619h.72l1.22 2.616h1.988l-1.475-3.175zm-2.453-2.362h.805c.428 0 .933.117.933.726 0 .675-.573.723-1.044.723-.231 0-.461-.009-.694 0v-1.449zm.018-1.707h1.196l1.043-1.313h-1.025l-.611.666-.611-.666h-1.007l1.015 1.313zm-.091-3.832c.501-.019 1.232-.159 1.208-.855-.048-1.366-4.319-.495-4.435-3.782-.066-1.92 1.528-2.956 3.192-3.014 1.348-.048 2.38.381 3.251 1.485l-1.393 1.146c-.598-.625-.952-.922-1.833-.891-.38.013-.947.277-.931.754.05 1.405 4.354.416 4.471 3.753.069 1.959-1.387 3.133-3.137 3.193-1.604.057-3.04-.345-3.998-1.795l1.491-1.176c.606.847 1.073 1.218 2.114 1.182zm9.409 1.683h2.591L28.908 6.96l2.291-3.096h-2.742L26.02 7.217V3.864h-2.517v9.162h2.504v-2.142l1.27-1.718zM15.556 5.871V3.858h-4.832c-.63 0-1.14.513-1.14 1.145v6.865c0 .633.51 1.146 1.14 1.146l.006-.002h4.826v-2.017h-3.692V9.464h3.407V7.446h-3.407V5.871h3.692zM4.964 3.677c2.37 0 3.792 1.233 3.845 3.332H6.683c-.149-.948-.744-1.477-1.651-1.477-1.231 0-1.937 1.07-1.937 2.912 0 1.774.706 2.818 1.896 2.818 1.002 0 1.583-.637 1.72-1.897h2.22c-.068 2.371-1.544 3.752-4.007 3.752-2.667 0-4.32-1.802-4.32-4.713 0-2.913 1.68-4.727 4.36-4.727zM2.778 1.462h1.36l.826.899.826-.899h1.384L5.765 3.235H4.15L2.778 1.462zm34.867 2.395l-3.408.001-2.756 9.156h2.586l.502-1.791h2.819l.486 1.791h2.64l-2.869-9.157zm-2.538 5.372l.839-3.022.849 3.022h-1.688zm-.168-5.994h1.263l1.797-1.774h-1.931l-1.129 1.774z"/><path d="M47.492 3.401a1.697 1.697 0 1 1 0-3.397 1.7 1.7 0 0 1 0 3.397zm-5.559 2.124v4.194h8.381v.563h-8.381v1.109c0 .901.731 1.633 1.633 1.633h7.823c.902 0 1.634-.74 1.634-1.643V7.353h-8.381V6.73h8.381V5.515a1.63 1.63 0 0 0-1.633-1.629h-7.824a1.639 1.639 0 0 0-1.633 1.639z" fill="#E1001A"/></g></svg>