<svg width="18" height="22" viewBox="0 0 18 22" xmlns="http://www.w3.org/2000/svg"><path d="M16.291 7.852H1.196a.975.975 0 0 0-.972.97v.716c0 .533.438.966.972.966h.943v3.086c0 2.746 2.087 5.027 4.758 5.33v3.035h3.692V18.92c2.667-.303 4.757-2.584 4.757-5.33v-3.086h.944a.969.969 0 0 0 .968-.966v-.716a.97.97 0 0 0-.967-.97m-8.967 4.205a2.013 2.013 0 0 1 2.512-.265l-2.779 2.776a2.01 2.01 0 0 1 .267-2.511m2.837 2.84a2.001 2.001 0 0 1-2.509.267l2.776-2.776a2.002 2.002 0 0 1-.267 2.509M3.292 6.896V1.393c0-.532.32-.969.71-.969h.529c.392 0 .71.437.71.969v5.503H3.292zm8.703 0V1.393c0-.532.321-.969.711-.969h.53c.389 0 .71.437.71.969v5.503h-1.951z" fill="#1B1B1B" fill-rule="evenodd"/></svg>