<svg width="26" height="29" viewBox="0 0 26 29" xmlns="http://www.w3.org/2000/svg"><g fill="#1B1B1B"><path d="M15.538 3.135v2.679c4.466 1.085 7.791 5.118 7.791 9.914 0 5.626-4.577 10.203-10.203 10.203-5.626 0-10.203-4.577-10.203-10.203 0-4.795 3.325-8.827 7.79-9.914V3.135C4.795 4.267.306 9.483.306 15.727c0 7.068 5.752 12.82 12.82 12.82 7.068 0 12.82-5.752 12.82-12.82 0-6.244-4.488-11.46-10.408-12.592z"/><path d="M13.126 13.563c.797 0 1.447-.808 1.447-1.8V2.014c0-.992-.65-1.799-1.448-1.799-.798 0-1.447.808-1.447 1.799v9.749c.001.993.65 1.8 1.448 1.8z"/></g></svg>