<svg width="29" height="23" viewBox="0 0 29 23" xmlns="http://www.w3.org/2000/svg"><path d="M5.442 8.654a11.06 11.06 0 0 1 1.34-2.46l.218-.3L5.875 5l-.217.3a12.544 12.544 0 0 0-1.522 2.792L4 8.44 5.306 9l.136-.346zm3.765-4.873a11.067 11.067 0 0 1 2.447-1.353L12 2.29 11.427 1l-.347.138c-.995.395-1.93.912-2.782 1.538L8 2.896 8.91 4l.297-.219zm6.28 17.744c-.407.058-.82.086-1.23.089h-.068l-.05-.003a9.007 9.007 0 0 1-1.047-.066c-2.176-.255-4.192-1.26-5.763-2.905a10.24 10.24 0 0 1-2.707-5.555l3.188-.002L3.906 9 0 13.087l3.276-.002.038.303.016-.003c.374 2.35 1.423 4.514 3.064 6.232 1.668 1.747 3.782 2.852 6.073 3.227l-.003.02.333.044.14.01c.352.04.708.064 1.067.07l.174.012.029-.002h.319v-.023a10.5 10.5 0 0 0 1.14-.08l.334-.047-.182-1.369-.331.046zm5.309-2.305a11.012 11.012 0 0 1-2.45 1.35l-.346.137.57 1.293.347-.137a12.44 12.44 0 0 0 2.785-1.537l.298-.218L21.093 19l-.297.22zm2.764-3.876a11.062 11.062 0 0 1-1.343 2.459l-.217.3 1.12.897.218-.3a12.551 12.551 0 0 0 1.526-2.792l.136-.346L23.697 15l-.136.344zm2.132-5.389l-.01-.108-.048-.367-.014.003a11.49 11.49 0 0 0-3.04-6.14A10.696 10.696 0 0 0 16.53.149l.003-.018-.33-.043-.117-.007A10.134 10.134 0 0 0 14.839 0h-.334v.021c-.382.014-.764.031-1.163.087L13 .161l.237 1.343.315-.044a9.366 9.366 0 0 1 2.38-.021c2.16.254 4.16 1.249 5.72 2.873 1.486 1.55 2.415 3.519 2.71 5.647l-3.118.001L25.121 14 29 9.956h-3.308z" fill="#1B1B1B"/></svg>