<svg width="22" height="19" viewBox="0 0 22 19" xmlns="http://www.w3.org/2000/svg"><path d="M5.316.46c2.481 0 4.562 2.055 4.562 4.563 0 2.531-2.08 4.562-4.562 4.562A4.546 4.546 0 0 1 .754 5.023 4.564 4.564 0 0 1 5.316.46zm0 6.543a1.984 1.984 0 0 0 1.979-1.98c0-1.103-.901-1.98-1.979-1.98s-1.98.877-1.98 1.98c0 1.102.903 1.98 1.98 1.98zm1.755 11.73H5.216L15.192.461h1.854L7.071 18.733zm9.999-9.299c2.481 0 4.563 2.056 4.563 4.562 0 2.531-2.081 4.561-4.563 4.561a4.546 4.546 0 0 1-4.561-4.561 4.562 4.562 0 0 1 4.561-4.562zm0 6.542c1.078 0 1.98-.877 1.98-1.98 0-1.104-.902-1.98-1.98-1.98a1.984 1.984 0 0 0-1.979 1.98c0 1.103.902 1.98 1.979 1.98z" fill="#1B1B1B"/></svg>