<svg width="31" height="31" viewBox="0 0 31 31" xmlns="http://www.w3.org/2000/svg"><path d="M19.366 22.789c6.139 0 11.114-4.978 11.114-11.116C30.48 5.538 25.503.565 19.366.565c-6.134 0-11.109 4.974-11.109 11.108-.001 6.141 4.974 11.116 11.109 11.116zm-8.333-11.115c0-4.593 3.74-8.335 8.333-8.335 4.595 0 8.334 3.742 8.334 8.335 0 4.597-3.741 8.331-8.334 8.331-4.595 0-8.333-3.734-8.333-8.331zM5.585 29.386l6.802-6.804a13.002 13.002 0 0 1-3.931-3.922l-6.801 6.795a2.79 2.79 0 0 0 0 3.932 2.784 2.784 0 0 0 3.93-.001z" fill="#1B1B1B"/></svg>