<svg width="10" height="13" viewBox="0 0 10 13" xmlns="http://www.w3.org/2000/svg"><path fill="none" d="M-1-1h12v15H-1z"/><path fill="#1B1B1B" d="M3.262 11.507h4.2a.99.99 0 0 0 .848-.482l.762-1.267s.314-.91-.597-.84c-.909.07-3.392.282-4.757.563 0 0 .33-3.042-.76-4.548a.857.857 0 0 0-.655-.355c-.157-.006-.35-.016-.543-.02a.864.864 0 0 0-.88.945c.09 1.05.421 2.97 1.53 5.45a.935.935 0 0 0 .852.554M1.58 4.274l.52.087a.58.58 0 0 0 .669-.47l.28-1.632a.582.582 0 0 0-.475-.668l-.52-.09a.583.583 0 0 0-.67.474l-.28 1.629a.584.584 0 0 0 .476.67"/></svg>