<svg width="23" height="23" viewBox="0 0 23 23" xmlns="http://www.w3.org/2000/svg"><g fill="#1B1B1B"><path d="M5.345 19.966l.224-1.605c.199-.45.584-.943 1.241-1.137.737-.216 1.744-.105 1.744-.105 1.11.344 2.413.11 2.413.11.516-.123.68-.316.68-.316s.077-.072.122-.412c.03-.222.044-.636.044-.636-.086-.661-.242-.745-.342-.858-.099-.113-.123-.299-.123-.299-.014-.103.197-.426.315-.482.118-.058.135-.101.135-.101.038-.17.009-.537-.147-.654-.225-.166-.615-.046-.615-.046l.072-.093a.965.965 0 0 1 .385-.261c.161-.063.265-.391.32-.609.057-.215-.251-.323-.251-.323-.269-.133-.237-.852-.237-.852s.215-.3.379-.489c.164-.19.406-.599.406-.599.049-.426-.178-.565-.536-.729-.077-.035-.997-.41-1.425-.836-.424-.422-.356-.896-.315-1.013.13-.376.3-.809.345-1.439.066-1.003-.25-2.183-.971-2.311 0 0 .502-.24 1.54.857 0 0 1.951-1.92-4.553-4.015 0 0-7.622 6.244-4.544 14.121l3.694 5.132m11.77 1.374s.672-.151.889-.235l.553-.217c.239-.287-.267-2.336-.267-2.336-.065-.204.591-.853.591-.853.424.148.516.124.676.07.098-.033.154-.177.134-.185l.172-.134c-.235-.09-.926-.396-.926-.396l.224-.029c.333-.037.276-.224.276-.224s.245-.058.075-.13a29.43 29.43 0 0 0-.767-.286l.069-.211c.112-.216.538-.682.538-.682l-.277-.079c-.259-.183-.4-.134-.579-.075-.437.144-.529.536-.529.536s-.736-.432-1.262-.859c-.182-.146-.298-.153-.398-.143-.098.012-.181.037-.217.092-.025.036-.283.275-.461.441l-.199.191s.02-.045.012-.169c-.031-.434-.231-1.026-.332-1.31a2.609 2.609 0 0 1-.123-.617c-.096-.908-.13-1.307-.393-1.57-.155-.159-.312-.176-.436-.217l-.17-.103c-.025.292.198 1.858.299 2.144.102.284.156 1.196.156 1.196.004.172-.005.447-.017.725l-.012.241a5.502 5.502 0 0 0-.088.701l-.018.316a7.262 7.262 0 0 0 .113 1.469c.124 1.444.681 2.87 1.068 3.524l1.626-.586"/><path d="M12.169 22.66c-5.862 0-10.632-4.77-10.632-10.633 0-5.862 4.77-10.633 10.632-10.633s10.633 4.771 10.633 10.633c0 5.863-4.771 10.633-10.633 10.633m0-20.539c-5.462 0-9.906 4.444-9.906 9.906 0 5.462 4.444 9.906 9.906 9.906 5.462 0 9.907-4.444 9.907-9.906 0-5.462-4.445-9.906-9.907-9.906"/></g></svg>