<svg width="20" height="27" viewBox="0 0 20 27" xmlns="http://www.w3.org/2000/svg"><g fill="#1B1B1B"><path d="M8.06 10.123c0-.385-.335-.643-.67-.643-.336 0-.603.258-.603.643 0 .323.267.58.603.58.335 0 .67-.257.67-.58m4.352 2.641a.412.412 0 0 0-.536 0v.063l-.201.193c-.066.063-.133.128-.268.128-.334.323-.87.451-1.406.451-.403 0-.736-.065-1.071-.192 0 0-.067-.064-.134-.064-.269-.13-.469-.322-.67-.578-.133-.132-.334-.132-.535 0-.201.127-.201.319-.067.514.269.256.537.516.87.708.067 0 .134.064.202.064v.063c.47.192.938.258 1.406.258.736 0 1.406-.192 1.874-.578.134-.065.268-.194.335-.26a.862.862 0 0 0 .201-.256h.067a.331.331 0 0 0-.067-.514m.201-3.284c-.335 0-.669.258-.669.643 0 .323.334.58.669.58a.589.589 0 0 0 .602-.58c0-.385-.268-.643-.602-.643"/><path d="M18.706 22.096l-.044-.055-.081-.1-3.356-4.095a2.806 2.806 0 0 0 1.205-2.318c0-.9-.401-1.735-1.072-2.251.067-.13.067-.194.134-.322.133-.323.268-.643.402-.966.669-.192 1.205-.643 1.472-1.286l.201-.387v-.515a2.03 2.03 0 0 0-.938-1.737v-.062c0-3.027-1.673-5.601-4.017-6.694-.803-.322-1.674-.579-2.611-.579-.937 0-1.809.257-2.611.579-2.344 1.094-4.018 3.667-4.018 6.694v.062a1.789 1.789 0 0 0-.736.838c-.066.128-.134.257-.134.387-.068.127-.068.32-.068.513 0 .838.402 1.546 1.073 1.932l.402.193c.066 0 .133.063.2.063.469 1.417 1.272 2.639 2.344 3.539l-2.145 1.095c-.066 0-.132.064-.132.13-.133.191-.067.45.132.513l.671.387-3.195 3.854-1.338 1.614a16.039 16.039 0 0 0 6.943 2.963c.87.127 1.741.192 2.611.192.87 0 1.741-.065 2.611-.192a16.039 16.039 0 0 0 6.944-2.964l-.849-1.025zm-6.093-3.929l-1.272.709c-.201.129-.267.321-.134.516l.737 1.544-1.942 3.282-1.941-3.282.736-1.544c.134-.194.067-.387-.134-.516l-1.271-.709-2.076-1.158 1.875-1.029.201.13.133.063c.336.194.669.322 1.004.386.469.13.938.195 1.474.195.937 0 1.808-.195 2.611-.644.066 0 .134-.064.201-.13l1.941 1.029-2.143 1.158zm2.21-5.535h-.068c-.134.323-.267.646-.469.967-.468.645-1.071 1.223-1.673 1.608-.803.517-1.674.838-2.611.838-.403 0-.871-.065-1.271-.193-.269-.063-.538-.192-.871-.323-.134-.128-.269-.191-.469-.321 0 0-.066 0-.066-.063h-.068c-1.138-.838-2.008-2.061-2.41-3.604-.067-.129-.201-.259-.335-.259s-.203-.064-.335-.064c-.067-.063-.133-.063-.267-.128-.402-.257-.67-.708-.67-1.288v-.32c.066-.128.066-.192.133-.26.067-.255.268-.448.469-.578.535.065 1.004.13 1.54.13.736 0 1.406-.064 2.009-.258a9.455 9.455 0 0 0 2.611-1.158c1.072-.708 1.942-1.736 2.544-2.832 0 .064 0 .129.067.194.602 1.802 2.008 3.283 3.75 4.054.267.321.468.643.468 1.028v.067c0 .063-.068.191-.068.255 0 .129-.066.193-.066.323-.202.451-.669.771-1.206.835-.134.065-.268.13-.335.323-.066.321-.2.708-.333 1.027z"/></g></svg>