<svg xmlns="http://www.w3.org/2000/svg" width="174.83" height="78.231" viewBox="0 0 174.83 78.231"><g fill="#1B171B"><path d="M142.187 64.288v-1.993a23.397 23.397 0 0 1-10.646-2.851l-.996 1.725a25.373 25.373 0 0 0 11.642 3.119zM122.109 50.014a23.43 23.43 0 0 1-2.849-10.649h-1.991a25.352 25.352 0 0 0 3.116 11.646l1.724-.997zM117.269 38.17h1.991a23.407 23.407 0 0 1 2.849-10.649l-1.724-.996a25.348 25.348 0 0 0-3.116 11.645zM143.385 13.248v1.993a23.382 23.382 0 0 1 10.649 2.851l.992-1.726a25.34 25.34 0 0 0-11.641-3.118zM154.035 59.444a23.439 23.439 0 0 1-10.649 2.851v1.993a25.373 25.373 0 0 0 11.642-3.119l-.993-1.725zM131.542 18.092a23.36 23.36 0 0 1 10.646-2.851v-1.993a25.348 25.348 0 0 0-11.642 3.118l.996 1.726zM130.507 58.841a23.636 23.636 0 0 1-7.793-7.792l-1.731.998a25.792 25.792 0 0 0 8.524 8.523l1-1.729zM122.71 26.486a23.707 23.707 0 0 1 7.797-7.793l-1-1.729a25.776 25.776 0 0 0-8.524 8.524l1.727.998zM162.862 51.049a23.692 23.692 0 0 1-7.796 7.792l1 1.729a25.798 25.798 0 0 0 8.523-8.523l-1.727-.998zM155.066 18.693a23.714 23.714 0 0 1 7.796 7.793l1.728-.998a25.792 25.792 0 0 0-8.523-8.524l-1.001 1.729zM163.463 27.521a23.364 23.364 0 0 1 2.849 10.649h1.991a25.348 25.348 0 0 0-3.116-11.645l-1.724.996zM168.303 39.365h-1.991a23.348 23.348 0 0 1-2.849 10.649l1.724.996a25.345 25.345 0 0 0 3.116-11.645z"/></g><path fill="#F1932D" d="M145.758 23.514s-2.836 2.873-8.9 3.92c-6.884 1.186-11.827 6.71-9.234 11.693h13.909s-2.342-1.063-2.342-3.604 3.438-3.813 5.281-3.961c1.845-.149 10.091-1.72 11.936-4.137l-10.65-3.911z"/><path fill="#8FBE48" d="M140.988 55.106s2.84-2.873 8.904-3.92c6.888-1.187 11.827-6.71 9.238-11.693h-13.913s2.342 1.064 2.342 3.604c0 2.543-3.438 3.813-5.281 3.963-1.845.149-10.092 1.719-11.936 4.134l10.646 3.912z"/><g fill="#1B171B"><path d="M14.541 42.067c-.065-.444-.233-.767-.498-.97-.269-.204-.68-.303-1.225-.303-.524 0-.918.061-1.187.186-.268.124-.402.335-.402.637 0 .262.134.47.402.625.269.158.658.308 1.165.452.835.234 1.542.434 2.117.598.576.162 1.035.355 1.381.578.346.221.593.498.745.831s.225.781.225 1.342c0 .864-.359 1.578-1.078 2.146-.718.569-1.783.853-3.19.853a6.94 6.94 0 0 1-1.883-.236c-.563-.155-1.043-.381-1.437-.675a3.08 3.08 0 0 1-.926-1.057 3.165 3.165 0 0 1-.338-1.383h2.624c0 .463.177.82.541 1.073.355.251.823.377 1.398.377.48 0 .896-.076 1.242-.228.347-.149.52-.381.52-.696 0-.354-.125-.606-.381-.767-.255-.156-.645-.292-1.165-.411-.944-.208-1.697-.429-2.272-.658-.576-.228-1.022-.48-1.342-.756-.32-.274-.537-.575-.649-.902a3.496 3.496 0 0 1-.165-1.1c0-.368.074-.714.225-1.041a2.33 2.33 0 0 1 .714-.864c.329-.249.749-.449 1.273-.6.524-.149 1.165-.225 1.922-.225 1.385 0 2.394.281 3.035.842.641.562.991 1.34 1.061 2.332h-2.452zM24.155 48.785v-1.353c-.649 1.074-1.649 1.608-2.996 1.608-.485 0-.922-.084-1.32-.256a2.947 2.947 0 0 1-1.03-.725 3.441 3.441 0 0 1-.675-1.115 4.043 4.043 0 0 1-.247-1.452v-6.344h2.55v5.955c0 1.201.541 1.804 1.623 1.804.654 0 1.147-.208 1.48-.619.333-.411.498-.938.498-1.576v-5.563h2.528v9.636h-2.411zM27.588 53.35V39.148h2.446l.022 1.173c.588-.953 1.48-1.429 2.684-1.429.598 0 1.156.117 1.676.353.515.233.952.573 1.32 1.017.363.446.653.987.861 1.627.208.639.312 1.364.312 2.173 0 .732-.086 1.4-.264 2.009a4.713 4.713 0 0 1-.771 1.576 3.518 3.518 0 0 1-1.247 1.028c-.489.242-1.048.363-1.675.363-1.186 0-2.139-.502-2.857-1.509v5.818h-2.507zm4.541-6.485c1.463 0 2.195-.991 2.195-2.976 0-.861-.203-1.565-.606-2.106-.407-.541-.926-.814-1.567-.814-.615 0-1.125.254-1.537.764-.411.509-.619 1.176-.619 1.998 0 2.091.71 3.134 2.134 3.134zM40.064 44.633c.039.731.251 1.312.637 1.743.385.431.892.646 1.52.646.416 0 .783-.095 1.104-.283.321-.19.524-.455.619-.795h2.624c-.299.992-.823 1.756-1.567 2.293-.744.534-1.632.803-2.662.803-3.212 0-4.818-1.751-4.818-5.249 0-.744.104-1.418.312-2.02.208-.6.511-1.117.913-1.548a3.918 3.918 0 0 1 1.459-.989c.571-.227 1.234-.342 1.979-.342 1.489 0 2.615.476 3.376 1.429.767.955 1.147 2.392 1.147 4.312h-6.643zm4.018-1.605a2.677 2.677 0 0 0-.19-.934 1.904 1.904 0 0 0-.438-.665 1.755 1.755 0 0 0-.627-.392 2.148 2.148 0 0 0-.723-.128c-.511 0-.952.187-1.325.559-.372.372-.584.892-.636 1.559h3.939zM47.489 48.785v-9.636h2.39v1.145c.208-.329.429-.584.658-.769a2.692 2.692 0 0 1 1.437-.612c.247-.026.502-.039.762-.039h.333v2.624a4.243 4.243 0 0 0-.701-.059c-1.559 0-2.333.78-2.333 2.332v5.015h-2.546z"/></g><g fill="#1B171B"><path d="M68.658 50.29c-.19.984-.493 1.874-.909 2.671s-.939 1.48-1.572 2.053c-.627.571-1.359 1.011-2.19 1.322s-1.749.467-2.753.467a8.657 8.657 0 0 1-3.152-.571 6.752 6.752 0 0 1-2.528-1.716c-.714-.763-1.269-1.702-1.676-2.818-.407-1.119-.61-2.423-.61-3.912 0-1.456.187-2.768.559-3.938.372-1.169.905-2.157 1.593-2.962a7.005 7.005 0 0 1 2.532-1.858c.996-.434 2.104-.65 3.333-.65 1.074 0 2.047.161 2.922.483.875.324 1.628.77 2.255 1.335a6.48 6.48 0 0 1 1.507 1.993c.372.764.602 1.577.688 2.443h-3.606c-.242-.987-.71-1.753-1.402-2.297a3.674 3.674 0 0 0-2.338-.818c-1.502 0-2.61.539-3.32 1.622-.71 1.082-1.065 2.564-1.065 4.452 0 1.92.351 3.411 1.052 4.477.702 1.063 1.749 1.595 3.156 1.595 1.069 0 1.931-.288 2.58-.87.649-.578 1.095-1.413 1.337-2.502h3.607zM80.078 56.206l-1.091-3.557h-6.359l-1.216 3.557h-3.818l6.152-17.232h4.177l6.074 17.232h-3.919zm-4.286-13.367h-.021l-2.208 6.879h4.385l-2.156-6.879zM93.615 44.06c-.087-.883-.407-1.541-.961-1.972-.555-.434-1.39-.65-2.493-.65-2.048 0-3.07.7-3.07 2.102 0 .502.212.922.636 1.26.424.336 1.104.617 2.039.842a73.75 73.75 0 0 1 2.888.728c.813.225 1.563.484 2.238.777.376.157.735.353 1.078.584.337.233.623.523.856.87.234.347.42.762.559 1.247.139.484.208 1.071.208 1.764 0 .829-.173 1.565-.52 2.206S96.26 55 95.671 55.441c-.585.441-1.277.777-2.074 1.011a8.89 8.89 0 0 1-2.52.351c-2.506 0-4.394-.488-5.658-1.465-1.26-.979-1.926-2.42-1.996-4.323H86.9c.018.884.376 1.58 1.078 2.089.701.511 1.58.767 2.636.767 1.139 0 2.004-.208 2.593-.621.589-.414.884-.977.884-1.685 0-.276-.035-.53-.104-.764s-.203-.446-.402-.637c-.199-.188-.472-.356-.822-.504a7.823 7.823 0 0 0-1.351-.402 43.311 43.311 0 0 1-3.425-.843c-.961-.283-1.753-.638-2.381-1.061-.623-.424-1.082-.937-1.376-1.541-.294-.605-.441-1.374-.441-2.307 0-.708.13-1.373.389-1.997a4.29 4.29 0 0 1 1.195-1.619c.537-.457 1.199-.82 1.991-1.086.788-.268 1.719-.402 2.797-.402 1.038 0 1.974.134 2.805.402.831.269 1.546.649 2.143 1.143a5.058 5.058 0 0 1 1.395 1.79c.329.702.511 1.474.545 2.323h-3.434zM108.675 56.206v-7.734h-6.723v7.734h-3.606V38.973h3.606v6.514h6.723v-6.514h3.658v17.232h-3.658z"/></g></svg>