<svg width="33" height="34" viewBox="0 0 33 34" xmlns="http://www.w3.org/2000/svg"><g fill="none"><path d="M1.704 32.294l-.599 1.1-.33-1.07-.454 1.402h.198l.261-.835.281.927.507-.927.058.835h.186l-.108-1.432zm1.135 1.1l.001-.066c0-.261-.149-.427-.384-.427-.244 0-.427.193-.427.448 0 .244.161.403.407.403a.38.38 0 0 0 .344-.176l-.139-.079a.235.235 0 0 1-.201.098c-.13 0-.214-.077-.22-.2h.619v-.001zm-.607-.152c.032-.125.1-.185.214-.185.118 0 .185.062.204.185h-.418zm1.059-.316h-.194l-.099.799h.187l.055-.445a.325.325 0 0 1 .053-.156.171.171 0 0 1 .129-.061c.069 0 .108.035.108.101 0 .013-.003.052-.007.088l-.059.474h.188l.055-.445c.01-.085.025-.133.053-.164a.176.176 0 0 1 .127-.053c.071 0 .11.037.106.104-.002.023-.004.055-.01.096l-.057.461h.189l.052-.439c.016-.118.016-.126.016-.162 0-.141-.082-.217-.237-.217-.102 0-.17.035-.257.127-.042-.099-.088-.13-.188-.13a.275.275 0 0 0-.22.096l.01-.074zm1.443-.632h-.187l-.176 1.432h.186l.015-.108a.36.36 0 0 0 .287.128c.233 0 .416-.194.416-.443 0-.229-.157-.395-.375-.395-.093 0-.149.021-.252.092l.086-.706zm.122.769c.135 0 .23.099.23.244 0 .155-.116.281-.261.281-.132 0-.224-.099-.224-.238 0-.164.108-.287.255-.287zm1.383.331l.002-.066c0-.261-.149-.427-.385-.427-.244 0-.426.193-.426.448 0 .244.161.403.406.403a.38.38 0 0 0 .344-.176l-.139-.079a.234.234 0 0 1-.201.098c-.13 0-.214-.077-.22-.2h.619v-.001zm-.607-.152c.031-.125.1-.185.214-.185.118 0 .185.062.204.185h-.418zm1.051-.316h-.186l-.098.799h.187l.049-.398c.014-.112.031-.163.065-.204a.133.133 0 0 1 .1-.048c.035 0 .066.015.102.045l.12-.152c-.053-.05-.088-.063-.153-.063-.075 0-.12.022-.192.092l.006-.071zm1.31-.026c-.257 0-.45.185-.45.433 0 .244.185.418.442.418a.429.429 0 0 0 .438-.433c0-.247-.177-.418-.43-.418zm0 .158c.146 0 .242.1.242.251 0 .165-.106.285-.254.285-.147 0-.25-.108-.25-.265 0-.157.111-.271.262-.271zm.862.043h.171l.021-.174h-.17l.037-.304c.016-.126.043-.165.11-.165.036 0 .06.012.099.043l.02-.165a.352.352 0 0 0-.159-.043.243.243 0 0 0-.167.063c-.045.045-.069.107-.083.214l-.043.357h-.122l-.022.174h.122l-.076.625h.186l.076-.625zm1.281.072c.104-.026.159-.05.212-.102a.382.382 0 0 0 .116-.283.388.388 0 0 0-.125-.294c-.067-.057-.151-.079-.303-.079h-.257l-.161 1.31h.194l.065-.539h.071l.31.539h.206l-.328-.552zm-.187-.577h.083c.057 0 .108.009.138.021.063.026.1.092.1.17a.245.245 0 0 1-.061.163c-.045.05-.104.066-.22.066h-.09l.05-.42zm1.551.33h-.186l-.014.104a.321.321 0 0 0-.269-.123c-.242 0-.413.187-.413.451 0 .122.035.214.11.287a.36.36 0 0 0 .249.1c.094 0 .16-.028.248-.105l-.01.086h.187l.098-.8zm-.445.137c.128 0 .218.099.218.24 0 .154-.116.285-.253.285-.124 0-.212-.099-.212-.241-.001-.16.107-.284.247-.284zm.847-.622a.1.1 0 0 0-.1.1c0 .057.047.104.102.104a.103.103 0 0 0 .102-.101.109.109 0 0 0-.104-.103zm.043.485h-.187l-.098.799h.187l.098-.799zm.434.175h.171l.021-.174H12.4l.037-.304c.016-.126.043-.165.11-.165.036 0 .059.012.099.043l.02-.165a.352.352 0 0 0-.159-.043.243.243 0 0 0-.167.063c-.045.045-.069.107-.083.214l-.043.357h-.121l-.022.174h.122l-.076.625h.187l.075-.625zm.583 0h.17l.022-.174h-.171l.037-.304c.016-.126.043-.165.11-.165.036 0 .059.012.098.043l.021-.165a.353.353 0 0 0-.16-.043.245.245 0 0 0-.167.063c-.045.045-.069.107-.083.214l-.043.357h-.122l-.021.174h.122l-.076.625h.187l.076-.625zm1.069.293l.002-.066c0-.261-.15-.427-.385-.427-.244 0-.427.193-.427.448 0 .244.161.403.407.403a.38.38 0 0 0 .344-.176l-.139-.079a.233.233 0 0 1-.2.098c-.13 0-.214-.077-.22-.2h.618v-.001zm-.607-.152c.031-.125.1-.185.214-.185.118 0 .185.062.204.185h-.418zm1.007-.801a.1.1 0 0 0-.1.1c0 .057.046.104.102.104a.103.103 0 0 0 .103-.101.108.108 0 0 0-.105-.103zm.044.485h-.187l-.098.799h.187l.098-.799zm.732.089c-.083-.083-.153-.116-.25-.116-.163 0-.283.106-.283.251 0 .097.042.155.159.22.132.07.148.086.148.136 0 .053-.046.09-.107.09-.062 0-.105-.024-.163-.09l-.121.086c.083.116.163.159.29.159.173 0 .289-.1.289-.251 0-.105-.043-.159-.183-.24-.103-.055-.124-.078-.124-.124s.043-.083.101-.083c.045 0 .086.021.137.068l.107-.106zm.931.379l.002-.066c0-.261-.149-.427-.385-.427-.243 0-.426.193-.426.448 0 .244.161.403.407.403a.378.378 0 0 0 .343-.176l-.14-.079a.234.234 0 0 1-.201.098c-.129 0-.213-.077-.22-.2h.62v-.001zm-.607-.152c.031-.125.1-.185.214-.185.118 0 .185.062.205.185h-.419zm1.051-.316h-.187l-.098.799h.187l.046-.385c.016-.124.036-.173.085-.222a.187.187 0 0 1 .136-.056c.077 0 .118.037.118.108 0 .015-.005.051-.009.085l-.057.469h.187l.052-.429c.008-.066.012-.11.012-.146 0-.077-.014-.12-.053-.163a.276.276 0 0 0-.205-.08c-.082 0-.143.024-.223.093l.009-.073zm1.338-.51l-.161 1.31h.345c.162 0 .229-.012.297-.049a.385.385 0 0 0 .183-.338.294.294 0 0 0-.086-.222.311.311 0 0 0-.145-.067c.131-.07.19-.167.19-.303a.347.347 0 0 0-.098-.245c-.063-.063-.138-.086-.283-.086h-.242zm.171.18h.066c.132 0 .19.05.19.162a.26.26 0 0 1-.058.168c-.038.043-.097.063-.191.063h-.055l.048-.393zm-.068.548h.119c.176 0 .248.051.248.18a.223.223 0 0 1-.084.186c-.04.026-.093.035-.201.035h-.129l.047-.401zm1.595-.218h-.187l-.014.104a.321.321 0 0 0-.269-.123c-.242 0-.413.187-.413.451 0 .122.035.214.11.287a.36.36 0 0 0 .249.1c.095 0 .16-.028.248-.105l-.01.086h.187l.099-.8zm-.445.137c.127 0 .217.099.217.24 0 .154-.116.285-.253.285-.124 0-.212-.099-.212-.241 0-.16.108-.284.248-.284zm.89-.137h-.187l-.098.799h.187l.047-.385c.016-.124.035-.173.085-.222a.185.185 0 0 1 .135-.056c.076 0 .118.037.118.108 0 .015-.004.051-.008.085l-.057.469h.187l.052-.429a1.11 1.11 0 0 0 .013-.146c0-.077-.014-.12-.053-.163a.276.276 0 0 0-.204-.08c-.083 0-.144.024-.224.093l.007-.073zm1.029-.632h-.187l-.176 1.432h.187l.047-.381.291.381h.228l-.338-.434.418-.365h-.25l-.336.31.116-.943zm1.392.122h-.194l-.161 1.31h.194l.161-1.31zm.407.51h-.186l-.099.799h.188l.047-.385c.016-.124.036-.173.085-.222a.185.185 0 0 1 .135-.056c.076 0 .117.037.117.108a.97.97 0 0 1-.007.085l-.057.469h.187l.053-.429c.008-.066.012-.11.012-.146 0-.077-.014-.12-.053-.163a.277.277 0 0 0-.204-.08c-.083 0-.144.024-.224.093l.006-.073zm.941.175h.173l.021-.174h-.173l.046-.369h-.187l-.045.369h-.107l-.021.174h.106l-.077.625h.187l.077-.625zm1.057.293l.001-.066c0-.261-.149-.427-.385-.427-.244 0-.426.193-.426.448 0 .244.162.403.406.403a.38.38 0 0 0 .344-.176l-.14-.079a.234.234 0 0 1-.201.098c-.128 0-.214-.077-.219-.2h.62v-.001zm-.608-.152c.032-.125.101-.185.214-.185.118 0 .184.062.204.185h-.418zm1.051-.316h-.187l-.098.799h.187l.049-.398c.014-.112.031-.163.065-.204a.133.133 0 0 1 .1-.048c.035 0 .067.015.103.045l.119-.152c-.053-.05-.088-.063-.153-.063-.075 0-.12.022-.192.092l.007-.071zm.674 0h-.187l-.099.799h.187l.047-.385c.015-.124.035-.173.084-.222a.186.186 0 0 1 .135-.056c.077 0 .119.037.119.108 0 .015-.004.051-.008.085l-.057.469h.186l.053-.429c.008-.066.012-.11.012-.146 0-.077-.014-.12-.054-.163a.273.273 0 0 0-.204-.08c-.083 0-.144.024-.224.093l.01-.073zm1.546 0h-.187l-.014.104a.323.323 0 0 0-.27-.123c-.241 0-.412.187-.412.451 0 .122.035.214.109.287.065.063.156.1.25.1s.159-.028.248-.105l-.01.086h.187l.099-.8zm-.447.137c.128 0 .218.099.218.24 0 .154-.116.285-.253.285-.123 0-.211-.099-.211-.241 0-.16.107-.284.246-.284zm.881.038h.173l.021-.174h-.173l.045-.369h-.186l-.046.369h-.105l-.022.174h.106l-.077.625h.187l.077-.625zm.469-.66a.1.1 0 0 0-.1.1c0 .057.047.104.102.104a.104.104 0 0 0 .103-.101.108.108 0 0 0-.105-.103zm.044.485h-.188l-.098.799h.187l.099-.799zm.61-.026c-.258 0-.45.185-.45.433 0 .244.184.418.441.418a.429.429 0 0 0 .439-.433c.001-.247-.177-.418-.43-.418zm0 .158c.146 0 .242.1.242.251 0 .165-.106.285-.253.285-.147 0-.25-.108-.25-.265 0-.157.11-.271.261-.271zm.872-.132h-.187l-.098.799h.187l.047-.385c.016-.124.036-.173.084-.222a.189.189 0 0 1 .136-.056c.077 0 .118.037.118.108a.97.97 0 0 1-.007.085l-.057.469h.186l.053-.429c.008-.066.013-.11.013-.146 0-.077-.014-.12-.054-.163a.274.274 0 0 0-.204-.08c-.083 0-.144.024-.224.093l.007-.073zm1.546 0h-.187l-.013.104a.325.325 0 0 0-.27-.123c-.242 0-.413.187-.413.451 0 .122.036.214.11.287.064.063.155.1.249.1.095 0 .16-.028.248-.105l-.01.086h.187l.099-.8zm-.446.137c.128 0 .218.099.218.24 0 .154-.116.285-.253.285-.124 0-.212-.099-.212-.241 0-.16.108-.284.247-.284zm.968-.769h-.187l-.177 1.432h.187l.177-1.432z" fill="#575756"/><path fill="#0F0A30" d="M.33 27.764v.576h.977v2.677h.684V28.34h.973v-.576zm3.567 2.024h.833l-.411-1.28-.422 1.28zm.045-2.024h.769l1.151 3.252h-.737l-.214-.668H3.713l-.221.668h-.711l1.161-3.252zm4.363 0v.576h-.973v2.677h-.684V28.34h-.977v-.576zm1.072.566v.873h.731a.786.786 0 0 0 .327-.053c.128-.062.193-.184.193-.367 0-.197-.063-.33-.188-.397a.676.676 0 0 0-.314-.057h-.749v.001zm1.405-.482c.12.052.221.128.304.228a.919.919 0 0 1 .224.615.961.961 0 0 1-.117.456.657.657 0 0 1-.386.317c.15.06.256.146.319.257.063.112.094.281.094.509v.219c0 .148.005.249.018.302.018.084.06.146.126.186v.081h-.75a1.537 1.537 0 0 1-.072-.454l-.004-.302c-.003-.208-.039-.346-.108-.416-.069-.069-.198-.104-.387-.104h-.664v1.275h-.664v-3.252h1.556c.22.004.392.032.511.083zm2.082 1.94h.833l-.411-1.28-.422 1.28zm.045-2.024h.769l1.15 3.252h-.737l-.215-.668h-1.198l-.221.668h-.711l1.163-3.252zm4.249 1.82v.868h.79c.141 0 .251-.02.33-.058.142-.07.213-.206.213-.406 0-.169-.069-.285-.207-.349a.82.82 0 0 0-.325-.055h-.801zm0-1.255v.717h.791a.651.651 0 0 0 .344-.08c.088-.054.132-.149.132-.287 0-.151-.058-.251-.174-.3a1.255 1.255 0 0 0-.385-.051h-.708v.001zm1.766-.219c.1.139.149.304.149.497a.727.727 0 0 1-.151.479.785.785 0 0 1-.249.186.721.721 0 0 1 .376.286c.084.132.126.29.126.478a.953.953 0 0 1-.145.519.898.898 0 0 1-.597.419 2.278 2.278 0 0 1-.459.044h-1.466v-3.252h1.572c.397.005.678.12.844.344zm1.621 1.678h.833l-.411-1.28-.422 1.28zm.045-2.024h.77l1.15 3.252h-.737l-.214-.668h-1.198l-.221.668h-.711l1.161-3.252zm2.323 0h.712l1.291 2.268v-2.268h.633v3.253h-.679l-1.325-2.308v2.308h-.632zm3.204 0h.669v1.34l1.256-1.34h.879l-1.336 1.338 1.404 1.915h-.874l-1.002-1.419-.327.331v1.088h-.669zm4.587.744l.411 1.279h-.833l.422-1.279zm-.377-.744l-1.161 3.252h.71l.221-.668h1.198l.214.668h.737l-1.15-3.252h-.769zm-4.638-9.514l-.218 1.017h-1.717l-1.001 4.722h-1.207l1-4.722h-1.724l.218-1.017zm1.419.997l-.269 1.266h1.409c.252 0 .467-.047.645-.142.178-.095.292-.263.345-.505.054-.267-.012-.443-.199-.529a2.048 2.048 0 0 0-.67-.09h-1.261zm-.471 2.216l-.323 1.53h1.41c.252 0 .454-.034.607-.102.283-.125.462-.363.538-.716.063-.298-.018-.503-.241-.615-.125-.063-.311-.095-.561-.098h-1.43v.001zm3.691-2.601c.125.244.152.536.082.876-.076.35-.225.632-.448.845-.122.12-.29.229-.503.327.27.106.455.275.555.506.1.231.115.512.045.841-.073.34-.224.645-.452.916a2.185 2.185 0 0 1-.506.451 1.97 1.97 0 0 1-.711.288 4.248 4.248 0 0 1-.831.078h-2.602l1.219-5.74h2.788c.702.011 1.156.215 1.364.612z"/><path fill="#0F0A30" d="M27.953 6.089v.262h3.831v19.507H.591V6.351h15.251v-.262H.329V26.12h31.717V6.089z"/><path fill="#0F0A30" d="M5.7 23.989l9.06-15.767h-4.314L1.385 23.989zM20.191.75L6.833 23.989h4.323L24.504.75zm-3.587 23.239L27.844 4.43h-4.313L12.289 23.989z"/></g></svg>