<svg width="15" height="19" viewBox="0 0 15 19" xmlns="http://www.w3.org/2000/svg"><g fill="#1B1B1B"><path d="M8.001 9.614c.006.77.497 1.393 1.097 1.386l3.825-.036c.599-.005 1.082-.635 1.077-1.404l-.002-.175c-.006-.77-.497-1.39-1.095-1.385l-3.826.035c-.6.008-1.083.635-1.077 1.405l.001.174zm0 8.01c.006.764.482 1.378 1.063 1.376l2.895-.03c.58-.004 1.046-.629 1.041-1.393l-.001-.202c-.005-.764-.481-1.38-1.062-1.375l-2.894.03c-.58.003-1.048.63-1.043 1.393l.001.2zm-.999-2.989c.005.76.463 1.37 1.022 1.365l4.975-.05c.557-.006 1.007-.624 1-1.383v-.202c-.006-.757-.463-1.37-1.02-1.365l-4.976.05c-.56.006-1.008.625-1.003 1.383l.002.202z"/><path d="M7.003 12.622c.004.766.5 1.383 1.104 1.378l5.807-.053c.605-.008 1.09-.632 1.086-1.398l-.002-.174c-.005-.764-.5-1.382-1.105-1.375l-5.808.054c-.605.004-1.09.63-1.085 1.395l.003.173z"/><path d="M1.903 7.805c1.018-.426 1.784-1.448 2.055-2.32.318-1.017.574-2.889.708-3.931C4.762.82 5.664-.012 6.658 0c.86.01 1.794.815 1.902 1.645.16 1.239-.377 4.092-.916 5.16-.238.473.765.947.765.947-.332.288-.543.71-.54 1.177l.002.145c.003.487.238.92.602 1.203-.79.11-1.395.766-1.388 1.559l.001.147c.004.591.352 1.103.856 1.365a1.556 1.556 0 0 0-.833 1.377v.172c.01.863.74 1.557 1.635 1.55l.242-.003c-.333.29-.54.708-.537 1.173l.002.17c.003.464.217.876.549 1.159L2.218 19C1.293 18.96.75 18.476.47 17.111c-.368-1.782-.594-5.901-.398-7.03.193-1.111.946-1.905 1.831-2.276"/></g></svg>