<svg width="26" height="23" viewBox="0 0 26 23" xmlns="http://www.w3.org/2000/svg"><g fill="#1B1B1B"><path d="M21.634 2.236H3.633a.797.797 0 0 0-.796.797v12.064c0 .439.356.795.796.795h7.236l-.892-1.252H4.249V3.489h16.234V14.64h-2.698c.001.288-.017.642-.064 1.013l-.035.239h3.947a.796.796 0 0 0 .796-.795V3.033a.796.796 0 0 0-.795-.797"/><path d="M16.753 14.227c-.065-.769-.54-1.753-1.628-2.064-.682-.196-1.87-.385-2.526-.482v-.106a3.313 3.313 0 0 0 2.528-3.215 3.31 3.31 0 0 0-3.307-3.306A3.31 3.31 0 0 0 8.512 8.36a3.313 3.313 0 0 0 2.526 3.213v1.92l-.976-1.368a.863.863 0 1 0-1.407 1.001l3.203 4.501v4.505h4.348v-4.82c.553-.982.599-2.478.547-3.085m-4.935-6.426a.78.78 0 0 0-.779.782v.969a1.421 1.421 0 0 1-.646-1.193c0-.786.64-1.427 1.427-1.427a1.43 1.43 0 0 1 1.428 1.427c0 .499-.26.94-.649 1.194v-.97a.782.782 0 0 0-.781-.782m-2.608.558a2.614 2.614 0 0 1 2.61-2.611 2.613 2.613 0 0 1 2.609 2.611c0 1.169-.77 2.16-1.831 2.492v-.517a2.125 2.125 0 0 0 1.345-1.975c0-1.17-.952-2.123-2.123-2.123a2.125 2.125 0 0 0-.781 4.098v.516A2.613 2.613 0 0 1 9.21 8.359"/><path d="M1.229 17.738L25.042 2.126a.818.818 0 0 0-.898-1.369L.331 16.369a.82.82 0 0 0 .898 1.369"/></g></svg>