<svg width="25" height="25" viewBox="0 0 25 25" xmlns="http://www.w3.org/2000/svg"><g fill="#1B1B1B"><path d="M23.594.364H1.592a.973.973 0 0 0-.973.974v14.745a.97.97 0 0 0 .973.971h8.845l-1.09-1.53H2.346V1.895H22.19v13.629h-3.299a9.543 9.543 0 0 1-.121 1.53h4.824a.97.97 0 0 0 .972-.971V1.338a.973.973 0 0 0-.972-.974"/><path d="M17.628 15.02c-.08-.942-.66-2.144-1.991-2.525-.831-.238-2.285-.469-3.086-.587v-.131a4.047 4.047 0 0 0 3.089-3.929 4.045 4.045 0 0 0-4.042-4.04 4.044 4.044 0 0 0-4.041 4.04 4.048 4.048 0 0 0 3.086 3.927v2.346l-1.19-1.673a1.055 1.055 0 0 0-1.72 1.224l3.913 5.502v5.508h5.314v-5.893c.676-1.2.731-3.027.668-3.769m-6.03-7.854a.956.956 0 0 0-.955.955v1.186a1.744 1.744 0 1 1 1.908.001V8.121a.955.955 0 0 0-.953-.955m-3.19.682a3.194 3.194 0 0 1 3.19-3.19 3.194 3.194 0 0 1 3.191 3.19 3.194 3.194 0 0 1-2.238 3.046v-.632a2.597 2.597 0 0 0 1.643-2.414 2.599 2.599 0 0 0-2.596-2.595 2.598 2.598 0 0 0-2.594 2.595c0 1.094.679 2.032 1.639 2.413v.632a3.197 3.197 0 0 1-2.235-3.045"/></g></svg>