<svg width="29" height="24" viewBox="0 0 29 24" xmlns="http://www.w3.org/2000/svg"><path d="M11.295 23.369c-2.818 0-5.645.007-8.471 0-1.159 0-2.428.611-2.428-.782-.008-2.051 2.012.548 2.176-1.847h3.18c.203 1.604.665 1.057 2.316 1.057 1.582.007 2.482.657 2.615-1.057h15.251c1.448 0 2.567-.689 2.545 1.041-5.849-.025-11.431 1.588-17.184 1.588zM3.465 4.902c.017 0 .032 0 .048-.008a.154.154 0 0 1-.07.016c.007 0 .015-.008.022-.008zm23.611 10.921c.008.634-.548 1.98.908 1.98-.007-1.001.557-2.121-.908-1.98zm-1.619-.337c.007.681-.58 2.083 1.11 2.199-.006-1.362.54-1.987-1.11-2.199zm-1.927-.587c0 .76-.454 2.341 1.308 2.537-.024-1.684.305-1.989-1.308-2.537zm-2.286-.995c0 .893-.462 2.639 1.542 3.108.025-2.012.22-2.208-1.542-3.108zm-2.584-1.612c-.016 1.041-.617 3.359 1.746 4 .008-2.261.157-2.669-1.746-4zm-2.912-2.788c.04 1.59-.625 5.089 1.957 5.668v-3.538c.071-.375-1.683-1.823-1.957-2.13zm-3.711-4.626c-2.614 0-5.988-.563-8.524.016.008 0 0 0-.048.008-.094.031-.062.023-.022.008-.774.267-1.253 2.388-1.526 3.038-.54 1.331.752 1.19 1.707 1.198 3.162 0 6.332-.008 9.495 0 1.855.006-.22-4.291-1.082-4.268zm-1.69-3.381a70.748 70.748 0 0 0-2.606 0c.156.172 1.018 1.018 1.275 1.793.525-.58.658-1.269 1.331-1.793zM3.184 15.502c1.519-.063 1.119-2.545-.383-2.106-1.253.312-.917 2.255.383 2.106zm8.783-.016c1.402-.25.9-2.506-.516-2.09-1.331.33-.822 2.396.516 2.09zm16.527 2.56c0 1.747-.063 1.684-1.84 1.684H8.711c-2.584 0-7.273.978-8.173-2.365-.673-2.474-.321-6.748.563-9.151.446-1.096.971-3.734 2.004-4.408 1.119-.736 4.031-.188 5.348-.188-.51-2.02-2.17-1.949-3.837-2.145-.133-.031-.094-.031-.023-.023-.29-.25-.251-.454.142-.579C5.948.863 7.169.863 8.383.863c.578 0 5.519-.212 5.268.423-.18.454-1.463.195-1.816.219A2.993 2.993 0 0 0 9.612 3.61c1.15.024 2.606-.234 3.695.212 1.611.666 2.012 2.764 2.842 4.093a16.153 16.153 0 0 0 6.348 5.786 16.356 16.356 0 0 0 4.393 1.502c2.096.4 1.604.706 1.604 2.843z" fill="#1B1B1B"/></svg>