<svg width="27" height="19" viewBox="0 0 27 19" xmlns="http://www.w3.org/2000/svg"><g fill="#1B1B1B"><path d="M22.956 18.11v-.188l-.281.188zm0-4.937h-.31l.31.152zM8.354 11.152c-2.241 2.267-4.193 4.157-8.159 4.157v2.962c5.059 0 7.676-2.489 10.277-5.068-.34-.335-.681-.673-1.035-1.001a37.412 37.412 0 0 1-1.083-1.05zm6.081-2.739c1.802-1.81 3.205-3.026 6.343-3.319l-.082 1.212c-.026.382.234.557.578.388l5.014-2.461c.345-.169.365-.481.047-.694L21.697.427c-.318-.213-.6-.075-.625.308l-.093 1.37c-4.382.266-6.417 2.046-8.663 4.261.305.299.605.591.907.87.434.401.829.792 1.212 1.177z"/><path d="M26.287 14.96l-3.331-1.636-.311-.152-1.372-.673c-.344-.169-.604.006-.578.388l.015.219.067.994c-4.161-.389-5.65-2.834-8.444-5.417C9.191 5.78 6.327 1.792.194 1.792v2.962c4.973 0 7.119 3.324 10.128 6.105 3.002 2.775 5.144 5.895 10.656 6.229l.067.993.025.376c.025.382.307.521.625.308l.979-.657.281-.188 3.378-2.267c.319-.211.299-.524-.046-.693z"/></g></svg>