<svg width="28" height="28" viewBox="0 0 28 28" xmlns="http://www.w3.org/2000/svg"><path d="M17.563 15.747v1.705c6.61 3.837 9.913 1.918 9.913 10.445H.512c0-8.846 3.302-6.608 9.913-10.445v-1.493c-1.174-.851-1.387-2.238-1.813-3.837-.212 0-.319-.212-.319-.532v-.213c-.106-.107-.213-.426-.321-.747-.106-.427-.639-1.491-.212-1.813.32-.319.533 0 .533 0-.428-2.557-1.067-5.862 2.345-6.82 0-2.132 8.206-1.173 9.164 2.238.428 1.386-.104 4.583-.104 4.583.104-.319.318-.319.427-.213.426.32 0 1.599-.108 2.026-.106.427-.214.64-.318.854v.106c0 .213-.214.532-.321.532-.427 1.385-.747 2.877-1.815 3.624z" fill="#1B1B1B" fill-rule="evenodd"/></svg>