<svg width="42" height="27" viewBox="0 0 42 27" xmlns="http://www.w3.org/2000/svg"><g fill="none"><path fill="#FFF" d="M.979.66h40.11v25.479H.979z"/><path fill="#F9B500" d="M1.647 22H40.42v3.476H1.647z"/><path fill="#003278" d="M1.647 1.329H40.42v3.476H1.647zm15.258 6.614l-3.808 9.084h-2.484L8.739 9.778c-.113-.446-.212-.61-.558-.798-.565-.308-1.499-.595-2.318-.773l.055-.264h4c.509 0 .967.339 1.083.926l.99 5.257 2.445-6.183h2.469zm9.734 6.119c.01-2.397-3.314-2.53-3.293-3.601.009-.326.318-.672.997-.761.337-.043 1.266-.078 2.318.407l.411-1.927a6.321 6.321 0 0 0-2.198-.401c-2.323 0-3.957 1.233-3.971 3.001-.015 1.309 1.168 2.037 2.057 2.473.916.445 1.224.731 1.22 1.128-.007.609-.731.879-1.406.889-1.182.02-1.867-.319-2.413-.573l-.427 1.991c.55.252 1.563.47 2.612.481 2.471.001 4.086-1.219 4.093-3.107zm6.134 2.965h2.173l-1.898-9.084h-2.005c-.452 0-.832.263-1.001.666l-3.525 8.418h2.468l.489-1.356h3.016l.283 1.356zm-2.623-3.218l1.237-3.41.711 3.41H30.15zm-9.886-5.866l-1.943 9.084h-2.35l1.942-9.084h2.351zm3.007 11.585h-.955v.888h1.068v.267h-1.39v-2.465h1.335v.267h-1.014v.779h.955v.264zm.607-1.441h.322v2.597h-.322zm1.134 1.77c.007.436.281.615.606.615.231 0 .374-.04.491-.091l.058.23a1.445 1.445 0 0 1-.592.113c-.545 0-.871-.362-.871-.896s.314-.951.831-.951c.581 0 .731.505.731.831a.721.721 0 0 1-.012.15h-1.242v-.001zm.943-.231c.004-.201-.084-.52-.446-.52-.329 0-.468.296-.494.52h.94zm2.063.996c-.084.04-.271.102-.509.102-.533 0-.881-.362-.881-.903 0-.545.373-.944.951-.944.189 0 .358.048.446.095l-.073.245a.781.781 0 0 0-.373-.084c-.406 0-.626.304-.626.67 0 .41.264.663.614.663a.928.928 0 0 0 .396-.084l.055.24zm.903-2.133v.424h.461v.245h-.461v.955c0 .219.063.343.241.343a.594.594 0 0 0 .187-.022l.015.246a.884.884 0 0 1-.285.043.46.46 0 0 1-.348-.135c-.088-.099-.124-.256-.124-.465v-.966h-.274v-.245h.274v-.329l.314-.094zm.91.976a8.31 8.31 0 0 0-.015-.552h.281l.015.351h.012c.08-.237.277-.388.493-.388.033 0 .059.004.088.007v.304c-.032-.007-.065-.007-.109-.007-.227 0-.388.168-.432.41a.889.889 0 0 0-.011.15v.944h-.322v-1.219zm2.853.319c0 .655-.457.94-.882.94-.475 0-.848-.351-.848-.911 0-.589.391-.937.877-.937.509 0 .853.37.853.908zm-1.402.018c0 .388.22.681.535.681.307 0 .537-.289.537-.688 0-.3-.15-.677-.53-.677-.377 0-.542.351-.542.684zm1.895-.41c0-.186-.004-.332-.015-.479h.285l.019.293h.008a.655.655 0 0 1 .585-.33c.245 0 .626.146.626.754v1.053h-.322v-1.021c0-.285-.106-.523-.41-.523a.466.466 0 0 0-.453.479v1.064h-.322v-1.29h-.001z"/></g></svg>