<svg width="50" height="17" viewBox="0 0 50 17" xmlns="http://www.w3.org/2000/svg"><defs><linearGradient x1=".002%" y1="49.993%" x2="99.999%" y2="49.993%" id="a"><stop stop-color="#112257" offset="0%"/><stop stop-color="#004493" offset="100%"/></linearGradient></defs><path d="M19.067.608l-6.372 15.205H8.537L5.4 3.678c-.19-.747-.355-1.021-.935-1.335-.945-.515-2.507-.996-3.881-1.294L.677.608h6.694c.853 0 1.619.567 1.813 1.55l1.656 8.799L14.935.608h4.132zm16.292 10.241c.018-4.012-5.548-4.233-5.51-6.027.012-.545.531-1.124 1.668-1.273.563-.073 2.117-.13 3.879.681l.69-3.224c-.947-.345-2.164-.675-3.68-.675-3.888 0-6.626 2.067-6.647 5.026-.025 2.19 1.953 3.41 3.445 4.139 1.531.745 2.046 1.223 2.039 1.89-.012 1.021-1.223 1.47-2.354 1.488-1.978.03-3.126-.535-4.039-.961l-.713 3.332c.918.421 2.614.789 4.374.808 4.135-.001 6.837-2.041 6.848-5.204zm10.268 4.964h3.639L46.09.608h-3.357c-.755 0-1.392.438-1.674 1.115l-5.902 14.09h4.129l.82-2.271h5.047l.474 2.271zm-4.389-5.387l2.07-5.709 1.191 5.709h-3.261zM24.688.608l-3.253 15.205H17.5L20.754.608h3.934z" fill="url(#a)"/></svg>