<svg xmlns="http://www.w3.org/2000/svg" width="18" height="8" viewBox="0 0 18 8"><g fill="#1b1b1b"><path d="M5.59 5.968a.7.7 0 0 0-.702.7l.024.177a.697.697 0 0 0 .678.521c.328 0 .601-.22.679-.521l.024-.177a.7.7 0 0 0-.703-.7zm1.562 0a.7.7 0 0 0-.701.7l.023.177a.697.697 0 0 0 .678.521c.328 0 .602-.22.68-.521l.023-.177a.7.7 0 0 0-.703-.7zm3.624 0a.7.7 0 0 0-.703.7l.023.177a.7.7 0 0 0 .68.521c.327 0 .599-.22.678-.521l.024-.177a.7.7 0 0 0-.702-.7zm1.564 0a.7.7 0 0 0-.703.7l.025.177a.695.695 0 0 0 .678.521c.326 0 .6-.22.678-.521l.023-.177a.7.7 0 0 0-.701-.7zm.871-5.587H4.719a.407.407 0 0 0-.406.404v3.586h-.459v-.173h-.246v.819h.246v-.173h.459v.608c0 .225.183.407.406.407h8.492a.407.407 0 0 0 .406-.407V.785a.407.407 0 0 0-.406-.404zM6.606 2.816h-1.6V1.157h1.6v1.659zm2.154 0H7.048V1.157H8.76v1.659zm2.121 0H9.17V1.157h1.711v1.659zm2.041 0h-1.6V1.157h1.6v1.659z"/><path fill-opacity=".5" d="M1.469 7.366c-.327 0-.6-.22-.678-.521l-.025-.177a.702.702 0 0 1 1.404 0l-.023.177a.7.7 0 0 1-.678.521zM.451 2.817h1.6V1.158h-1.6v1.659zM2.34 5.859H.2V.38h2.141c.224 0 .407.184.407.405V4.37h.474v-.173h.246v.818h-.246v-.172h-.474v.609a.41.41 0 0 1-.408.407zm14.129 1.507c.327 0 .6-.22.678-.521l.025-.177a.702.702 0 0 0-1.404 0l.023.177a.7.7 0 0 0 .678.521zm1.018-4.549h-1.6V1.158h1.6v1.659zm-1.889 3.042h2.14V.38h-2.141a.408.408 0 0 0-.407.405V4.37h-.474v-.173h-.246v.818h.246v-.172h.474v.609a.41.41 0 0 0 .408.407z"/><path d="M13.554 4.371h.528v-.173h.246v.819h-.246v-.172h-.528z"/></g></svg>