<svg width="30" height="28" viewBox="0 0 30 28" xmlns="http://www.w3.org/2000/svg"><path d="M29.681 23.452L17.948 1.719C17.454.804 16.482.237 15.411.237c-1.07 0-2.043.567-2.537 1.482L1.142 23.452a2.655 2.655 0 0 0 .057 2.646c.247.415.602.762 1.027 1.003.437.248.938.38 1.451.38h23.469c.514 0 1.015-.132 1.451-.38a2.8 2.8 0 0 0 1.027-1.003 2.66 2.66 0 0 0 .057-2.646zm-14.271-.593a1.458 1.458 0 0 1-1.459-1.46 1.458 1.458 0 1 1 2.918 0c0 .807-.652 1.46-1.459 1.46zm1.459-6.325a1.458 1.458 0 1 1-2.918 0V8.263a1.459 1.459 0 1 1 2.918 0v8.271z" fill="#1B1B1B"/></svg>