<svg width="23" height="27" viewBox="0 0 23 27" xmlns="http://www.w3.org/2000/svg"><g fill="#1B1B1B"><path d="M22.497 21.059l-4.57-7.384c-.244-.367-.652-.448-1.143-.408h-5.791c-.244 0-.408-.04-.408-.04v-1.02c0-.245.041-.408.082-.408h5.139c.572 0 1.02-.448 1.02-1.06 0-.531-.447-1.02-1.02-1.02h-5.139c-.041.041-.082-.163-.082-.406V6.905a1.68 1.68 0 0 0-1.672-1.673h-.448c-.938 0-1.673.734-1.673 1.673v8.36c0 .898.734 1.675 1.673 1.675h7.952c.245 0 .53.164.652.326.817 1.224 3.346 5.098 3.346 5.098.326.49 1.06.611 1.633.245.571-.326.776-1.019.449-1.55"/><path d="M17.397 20.407a.92.92 0 0 0-1.185.406c-1.181 2.49-3.712 4.079-6.485 4.079-3.955 0-7.181-3.221-7.181-7.178a7.146 7.146 0 0 1 2.817-5.669c.408-.328.449-.858.164-1.225-.287-.367-.819-.449-1.184-.163C2.099 12.371.834 14.939.834 17.714c0 4.894 3.997 8.892 8.892 8.892 3.429 0 6.567-1.957 8.037-5.058.206-.409.041-.938-.366-1.141M8.423.133c1.224 0 2.203.979 2.203 2.203a2.193 2.193 0 0 1-2.203 2.202A2.194 2.194 0 0 1 6.22 2.336c0-1.224.98-2.203 2.203-2.203"/></g></svg>