<svg width="29" height="28" viewBox="0 0 29 28" xmlns="http://www.w3.org/2000/svg"><g fill="#3F3F41"><path d="M14.657 24.503c-.81 0-1.439.645-1.439 1.474 0 .831.63 1.476 1.439 1.476.811 0 1.44-.646 1.44-1.476.001-.829-.629-1.474-1.44-1.474m0-6.547a7.27 7.27 0 0 0-5.221 2.214.906.906 0 0 0 0 1.289.964.964 0 0 0 1.352 0c1.078-1.106 2.52-1.658 3.869-1.658 1.44 0 2.881.552 3.961 1.658.181.186.359.279.629.279.271 0 .451-.093.632-.279a.904.904 0 0 0 0-1.289 7.273 7.273 0 0 0-5.222-2.214m-.044-6.45c-3.601 0-7.022 1.474-9.632 4.056-.359.369-.359 1.013 0 1.381a.963.963 0 0 0 1.351 0c2.16-2.304 5.13-3.502 8.281-3.502 3.149 0 6.121 1.198 8.371 3.502.181.185.45.278.63.278.27 0 .539-.093.721-.278.358-.368.358-1.012 0-1.381-2.611-2.582-6.031-4.056-9.722-4.056"/><path d="M28.745 11.044c-3.871-3.964-9.002-5.991-14.131-5.991-5.041 0-10.173 2.027-14.043 5.991-.359.368-.359 1.015 0 1.382.359.371.9.371 1.26 0 3.601-3.594 8.191-5.437 12.783-5.437 4.678 0 9.269 1.843 12.779 5.437.182.184.45.278.63.278.271 0 .54-.094.722-.278.359-.367.359-1.014 0-1.382"/><path d="M7.663 25.533L23.878 2.126a.818.818 0 1 0-1.346-.932L6.318 24.601a.819.819 0 0 0 1.345.932"/></g></svg>