<svg width="30" height="23" viewBox="0 0 30 23" xmlns="http://www.w3.org/2000/svg"><g fill="#1B1B1B"><path d="M15.041 19.502c-.81 0-1.44.645-1.44 1.474 0 .83.63 1.477 1.44 1.477.81 0 1.44-.646 1.44-1.477 0-.83-.63-1.474-1.44-1.474m0-6.547a7.27 7.27 0 0 0-5.221 2.214.904.904 0 0 0 0 1.289.963.963 0 0 0 1.351 0c1.079-1.105 2.52-1.658 3.87-1.658 1.44 0 2.881.553 3.961 1.658.18.187.359.279.629.279s.45-.093.63-.279a.904.904 0 0 0 0-1.289 7.27 7.27 0 0 0-5.22-2.214m-.045-6.45c-3.601 0-7.022 1.474-9.632 4.056-.359.369-.359 1.014 0 1.382a.965.965 0 0 0 1.351 0c2.16-2.305 5.13-3.504 8.281-3.504 3.15 0 6.121 1.199 8.371 3.504a.96.96 0 0 0 .63.277c.268 0 .539-.093.719-.277.359-.368.359-1.013 0-1.382-2.609-2.582-6.03-4.056-9.72-4.056"/><path d="M29.127 6.043C25.256 2.079 20.126.052 14.996.052 9.955.052 4.824 2.079.954 6.043c-.359.368-.359 1.015 0 1.382a.853.853 0 0 0 1.261 0c3.6-3.594 8.191-5.437 12.782-5.437 4.68 0 9.27 1.843 12.78 5.437.181.185.45.278.63.278.271 0 .54-.094.721-.278.359-.367.359-1.014-.001-1.382"/></g></svg>